<svg width="121" height="26" viewBox="0 0 121 26" fill="none" xmlns="http://www.w3.org/2000/svg">
<path d="M27.2845 3.57977C27.4557 3.44881 27.798 3.26961 28.0444 3.18001L28.4894 3.02148L36.3275 3.04216C43.748 3.05595 44.1861 3.06284 44.6105 3.1869C44.857 3.25582 45.2746 3.42124 45.5347 3.55909C45.7948 3.69004 46.1713 3.9106 46.3561 4.04155C46.541 4.1794 46.8764 4.48266 47.0955 4.71011C47.3145 4.93756 47.6294 5.32353 47.7869 5.57166C47.9512 5.81978 48.1976 6.29535 48.3277 6.63997C48.4646 6.99837 48.5946 7.50841 48.6425 7.84613C48.6905 8.20454 48.7178 9.62436 48.7178 11.4991C48.7178 13.3738 48.6905 14.7936 48.6425 15.152C48.5946 15.5035 48.4646 15.986 48.3208 16.3582C48.1839 16.7028 47.958 17.1646 47.8074 17.3921C47.6636 17.6195 47.3487 18.0055 47.1092 18.2536C46.8627 18.5017 46.5341 18.7981 46.3767 18.9222C46.2124 19.0393 45.8633 19.2461 45.6031 19.3839C45.343 19.5149 44.8433 19.7079 43.8918 20.0043L37.2516 20.0801L31.7615 22.8508C28.7358 24.3809 26.2509 25.6284 26.2303 25.6284C26.2098 25.6284 26.203 21.0174 26.2303 5.12365L26.4015 4.74457C26.4973 4.53091 26.6616 4.24143 26.7711 4.0898C26.8807 3.93817 27.1134 3.71072 27.2845 3.57977Z" fill="#E30E1B"/>
<path fill-rule="evenodd" clip-rule="evenodd" d="M62.5663 0.148194C62.4431 0.196441 62.2172 0.354965 62.0597 0.506597C61.8749 0.692691 61.7517 0.899461 61.6832 1.12691C61.6284 1.3199 61.5874 1.60248 61.5874 1.7679C61.5874 1.96088 61.6216 2.07116 61.6901 2.09184C61.7448 2.11252 61.9639 2.1263 62.1693 2.1263C62.3746 2.1263 62.5937 2.10562 62.6553 2.07805C62.7169 2.04359 62.8127 1.94021 62.8606 1.83682C62.9428 1.6714 62.9907 1.65073 63.1824 1.66451C63.2987 1.6783 63.7095 1.78168 64.086 1.88507C64.5173 2.00913 64.9485 2.08495 65.2566 2.08495C65.6742 2.09184 65.7768 2.06427 66.0233 1.90575C66.1807 1.79547 66.3861 1.60937 66.4751 1.4922C66.5641 1.36814 66.6873 1.09245 66.7489 0.885676C66.8105 0.678906 66.8584 0.423889 66.8584 0.320503C66.8584 0.210226 66.8105 0.113732 66.7557 0.0930552C66.701 0.0723782 66.4545 0.0585938 66.2081 0.0585938C65.7974 0.0585938 65.7495 0.0723783 65.5304 0.299826C65.3935 0.430781 65.236 0.541059 65.1676 0.541059C65.0991 0.541059 64.6473 0.430781 64.1544 0.299826C63.6616 0.168871 63.155 0.065486 63.0249 0.065486C62.8949 0.065486 62.6827 0.10684 62.5663 0.148194ZM55.4264 2.82243C55.1047 2.90514 54.7761 3.04988 54.5433 3.21529C54.338 3.35314 54.071 3.59437 53.9546 3.74601C53.8314 3.89764 53.6671 4.15265 53.585 4.31807C53.5097 4.47659 53.407 4.835 53.3728 5.11069C53.3317 5.37949 53.318 5.80682 53.3454 6.05494C53.3659 6.30307 53.4549 6.65458 53.5371 6.84067C53.6124 7.02677 53.8177 7.30935 53.9889 7.46788C54.16 7.6264 54.4544 7.83317 54.6392 7.92967C54.8309 8.02616 55.1184 8.15022 55.2895 8.19847C55.4606 8.24671 55.8577 8.39145 56.1794 8.51552C56.5217 8.66026 56.8229 8.82567 56.9119 8.93595C57.0077 9.04623 57.0693 9.21854 57.0693 9.36328C57.0762 9.50112 57.0146 9.68722 56.9324 9.79749C56.8571 9.90088 56.7065 10.0318 56.5901 10.087C56.4738 10.1421 56.2137 10.1904 56.0083 10.1904C55.8029 10.1904 55.4675 10.1283 55.2758 10.0594C55.0773 9.98359 54.7213 9.7975 54.4886 9.64586C54.249 9.48734 54.0162 9.37706 53.9752 9.39085C53.9272 9.40463 53.6808 9.80439 53.4275 10.2869C53.1674 10.7624 52.9757 11.2035 52.9963 11.2587C53.0168 11.3138 53.3454 11.5206 53.7356 11.7067C54.2353 11.9548 54.5981 12.0789 55.0157 12.1547C55.3374 12.2098 55.8303 12.2581 56.111 12.2581C56.3916 12.2581 56.8229 12.2236 57.0693 12.1823C57.3158 12.1409 57.6375 12.0651 57.7881 12.003C57.9387 11.9479 58.2194 11.7963 58.4042 11.6722C58.5959 11.5482 58.8149 11.369 58.8902 11.2794C58.9724 11.1966 59.1161 10.9968 59.2051 10.8451C59.301 10.6935 59.4242 10.4178 59.4858 10.2248C59.5543 10.0387 59.6227 9.69411 59.6432 9.46666C59.6638 9.23921 59.6501 8.86703 59.609 8.63958C59.568 8.41213 59.4653 8.08819 59.3831 7.91588C59.301 7.74357 59.0751 7.45409 58.8834 7.268C58.6917 7.08191 58.3289 6.83378 58.0619 6.70972C57.8018 6.57876 57.3226 6.39956 57.0009 6.30307C56.6791 6.20658 56.3163 6.06184 56.2 5.98602C56.0767 5.91021 55.9398 5.77925 55.8988 5.69654C55.8577 5.60694 55.844 5.45531 55.8645 5.35192C55.8851 5.24165 55.9877 5.08312 56.0973 4.98663C56.2068 4.87635 56.3985 4.79364 56.5901 4.76607C56.7613 4.7454 57.0556 4.76607 57.2405 4.80743C57.4322 4.85567 57.7197 4.97974 57.8908 5.09691C58.0619 5.20718 58.2468 5.283 58.3015 5.26232C58.3563 5.24165 58.5959 4.84878 58.8218 4.3801C59.0545 3.91831 59.2325 3.51166 59.2188 3.47031C59.2051 3.42896 58.9792 3.298 58.7123 3.18083C58.4521 3.05677 57.925 2.89135 57.5485 2.81554C57.172 2.73972 56.6586 2.67769 56.4053 2.68458C56.1452 2.68458 55.7071 2.74661 55.4264 2.82243ZM72.3006 2.77418C72.0405 2.82243 71.6982 2.90514 71.5476 2.95338C71.397 3.00163 71.0547 3.15326 70.7946 3.29111C70.466 3.45653 70.1306 3.71844 69.7267 4.12508C69.2475 4.60066 69.0832 4.82121 68.8505 5.29679C68.6999 5.62073 68.5219 6.11008 68.4671 6.38578C68.4124 6.65458 68.3644 7.14394 68.3644 7.46788C68.3644 7.79182 68.4124 8.29496 68.4671 8.59133C68.5287 8.8946 68.6793 9.3426 68.8299 9.62519C68.9668 9.90777 69.2133 10.3006 69.3776 10.5074C69.535 10.7142 69.8431 11.0243 70.0621 11.1966C70.2743 11.369 70.7124 11.6378 71.0342 11.7894C71.4312 11.9824 71.8009 12.0995 72.1979 12.1616C72.5197 12.2167 73.0262 12.2581 73.3274 12.2581C73.6286 12.2581 74.1557 12.2098 74.4912 12.1478C74.8745 12.0789 75.2989 11.9479 75.6207 11.7963C75.9013 11.6584 76.3052 11.4172 76.5106 11.2587C76.716 11.1002 77.024 10.8176 77.1883 10.6315C77.3526 10.4454 77.5717 10.1421 77.6812 9.94913C77.7907 9.76303 77.9413 9.4322 78.0235 9.22543C78.0988 9.01866 78.1946 8.69472 78.2288 8.50173C78.2699 8.31564 78.2973 7.86074 78.2973 7.50234C78.2973 7.14394 78.2562 6.6339 78.2014 6.3651C78.1467 6.0963 77.9824 5.63451 77.8386 5.33125C77.6264 4.89703 77.4416 4.6489 76.9556 4.15265C76.449 3.63573 76.2368 3.4772 75.7576 3.24286C75.4358 3.08434 74.9772 2.91203 74.7308 2.85C74.4843 2.78797 73.9504 2.72594 73.5328 2.71215C73.0605 2.69147 72.6018 2.71215 72.3006 2.77418ZM72.5402 5.1934C72.7387 5.12448 73.0468 5.09691 73.4301 5.11069C73.8545 5.13137 74.101 5.17272 74.3542 5.28989C74.5459 5.37949 74.8198 5.5518 74.9704 5.67587C75.1278 5.80682 75.3605 6.11008 75.518 6.40646C75.7644 6.87514 75.785 6.95784 75.7918 7.46788C75.7918 7.91588 75.7576 8.08819 75.6138 8.39835C75.518 8.60512 75.3195 8.91527 75.1689 9.08069C75.0251 9.24611 74.7787 9.45288 74.6281 9.54248C74.4775 9.63208 74.2037 9.74925 74.012 9.81128C73.8271 9.86642 73.5328 9.91466 73.3616 9.91466C73.1905 9.91466 72.8825 9.86642 72.6771 9.81128C72.4717 9.75614 72.1774 9.63208 72.0268 9.54248C71.8762 9.45288 71.6366 9.24611 71.4928 9.08069C71.3491 8.91527 71.1711 8.63958 71.0889 8.46727C70.9794 8.24671 70.9315 7.9917 70.911 7.57126C70.8973 7.13704 70.9178 6.9096 71 6.70972C71.0616 6.55809 71.1985 6.29618 71.308 6.12387C71.4107 5.95156 71.664 5.69654 71.8693 5.5518C72.0679 5.41396 72.3691 5.24854 72.5402 5.1934ZM115.119 2.73972C114.948 2.77418 114.626 2.85 114.4 2.91892C114.175 2.98095 113.757 3.15326 113.476 3.30489C113.134 3.4772 112.792 3.73911 112.45 4.07684C112.169 4.35253 111.82 4.77986 111.676 5.02798C111.532 5.26922 111.341 5.71722 111.238 6.02048C111.08 6.50295 111.053 6.68215 111.053 7.46788C111.053 8.2605 111.074 8.43281 111.245 8.94973C111.347 9.27368 111.566 9.74925 111.731 10.0181C111.895 10.2869 112.251 10.7142 112.525 10.9761C112.888 11.3207 113.203 11.5344 113.647 11.7549C114.065 11.9548 114.455 12.0858 114.845 12.1547C115.167 12.2098 115.687 12.2581 116.009 12.2581C116.331 12.2581 116.851 12.2098 117.173 12.1547C117.556 12.0858 117.953 11.9548 118.337 11.7687C118.658 11.6102 119.083 11.3552 119.281 11.1966C119.48 11.045 119.788 10.728 119.966 10.5005C120.151 10.2731 120.342 10.0112 120.397 9.91466C120.459 9.81817 120.609 9.48045 120.733 9.15651C120.938 8.62579 120.965 8.48795 120.993 7.67465C121.013 6.95784 120.993 6.68904 120.897 6.33064C120.835 6.08251 120.705 5.71033 120.609 5.50356C120.52 5.29678 120.315 4.93838 120.158 4.71094C119.993 4.48349 119.678 4.13198 119.459 3.9321C119.24 3.73222 118.809 3.44274 118.508 3.28422C118.207 3.12569 117.741 2.9396 117.481 2.87068C117.193 2.78797 116.687 2.72594 116.215 2.71215C115.783 2.69837 115.29 2.71215 115.119 2.73972ZM115.14 5.23475C115.373 5.15894 115.763 5.09691 116.009 5.09001C116.256 5.09001 116.605 5.13826 116.796 5.20029C116.988 5.26922 117.262 5.40017 117.413 5.50356C117.563 5.60694 117.789 5.80682 117.912 5.94467C118.029 6.08251 118.2 6.33753 118.282 6.52363C118.398 6.77864 118.433 6.97852 118.433 7.46788C118.439 8.00548 118.412 8.14333 118.255 8.48795C118.145 8.70161 117.933 9.01177 117.775 9.17718C117.611 9.33571 117.344 9.54248 117.173 9.62519C117.002 9.70789 116.687 9.81128 116.468 9.85953C116.174 9.92845 115.975 9.92845 115.646 9.87331C115.414 9.83196 115.071 9.72168 114.893 9.63208C114.709 9.54248 114.421 9.32881 114.257 9.15651C114.086 8.9842 113.894 8.72229 113.819 8.57065C113.743 8.41902 113.661 8.12265 113.627 7.91588C113.593 7.70911 113.593 7.35071 113.62 7.12326C113.654 6.89581 113.75 6.57187 113.832 6.39956C113.914 6.22725 114.147 5.92399 114.346 5.731C114.626 5.44842 114.804 5.33814 115.14 5.23475ZM5.28304 3.08434C5.02291 3.15326 4.63271 3.27732 4.42735 3.36003C4.22198 3.44274 3.83178 3.63573 3.57166 3.79425C3.31153 3.95278 2.88026 4.2905 2.62013 4.53863C2.36685 4.78675 2.00404 5.22097 1.81921 5.50356C1.63438 5.78614 1.38794 6.26861 1.27157 6.57187C1.15519 6.87513 1.01143 7.37138 0.956665 7.67465C0.881364 8.06062 0.860832 8.44659 0.888214 8.94973C0.908751 9.34949 0.984048 9.87331 1.05935 10.1214C1.13465 10.3696 1.26471 10.7417 1.35371 10.9485C1.43585 11.1553 1.64122 11.5275 1.79182 11.7756C1.94927 12.0237 2.24362 12.3959 2.44899 12.6027C2.65436 12.8095 2.99663 13.1127 3.19515 13.2644C3.40052 13.4229 3.79755 13.6641 4.07137 13.802C4.33835 13.9398 4.72854 14.0914 4.92706 14.1397C5.24196 14.2086 5.00921 14.2224 3.07877 14.2431L0.867676 14.2568V25.6292C1.10727 25.6844 5.15297 25.6913 10.0064 25.6844L18.8372 25.6637C19.8434 25.3191 20.3705 25.0779 20.6512 24.9124C20.9319 24.747 21.3495 24.4438 21.5685 24.237C21.7944 24.0371 22.1025 23.6994 22.2599 23.4926C22.4174 23.2858 22.6433 22.9412 22.7596 22.7344C22.876 22.5277 23.0334 22.1693 23.1156 21.9418C23.1977 21.7144 23.3073 21.3215 23.3552 21.0665C23.41 20.8046 23.4579 20.3083 23.4579 19.9637C23.4579 19.5157 23.41 19.1229 23.3004 18.668C23.2114 18.3096 23.0403 17.8133 22.9239 17.5652C22.8144 17.3171 22.5269 16.8622 22.301 16.552C22.0682 16.235 21.7054 15.8283 21.4932 15.6491C21.2741 15.4699 20.8771 15.1942 20.617 15.0357C20.3569 14.8772 19.9187 14.6773 19.6586 14.5877L19.1794 14.4292C22.9924 14.3671 23.3347 14.3464 23.3894 14.2568C23.4305 14.1948 23.4579 11.9962 23.4579 8.65336C23.4579 5.63451 23.4442 3.11191 23.4236 3.05677C23.3963 2.96717 22.3489 2.95338 14.5792 2.96028C6.36462 2.96028 5.72799 2.97406 5.28304 3.08434ZM32.3913 3.00163C34.4997 3.01542 37.9224 3.01542 39.9898 3.00163C42.064 2.99474 40.3389 2.98785 36.1563 2.98785C31.9737 2.98785 30.2828 2.99474 32.3913 3.00163ZM62.8333 3.07055C62.799 3.13948 62.7306 3.31868 62.6827 3.47031C62.6347 3.62194 62.5731 3.77357 62.5457 3.81493C62.5184 3.85628 62.402 4.14576 62.2856 4.4697C62.1692 4.79364 61.9023 5.50356 61.6901 6.05494C61.4779 6.60633 61.2656 7.1784 61.2109 7.33003C61.1561 7.48166 60.9439 8.05373 60.7249 8.60512C60.5126 9.15651 60.3004 9.72857 60.2457 9.8802C60.1977 10.0318 60.0061 10.5419 59.8212 11.0174C59.6364 11.493 59.4995 11.9203 59.5269 11.9617C59.5543 12.0306 59.8692 12.0444 60.8001 12.0306L62.0323 12.0168L62.58 10.4661H65.7631C65.9069 10.7624 66.0164 11.0795 66.1054 11.3621C66.1876 11.6446 66.2902 11.9203 66.3313 11.9686C66.3929 12.0375 66.7147 12.0582 67.632 12.0513C68.7409 12.0513 68.8436 12.0375 68.8436 11.9341C68.8436 11.8652 68.6588 11.3138 68.4261 10.7073C68.2002 10.1008 67.9811 9.52869 67.9537 9.4322C67.9195 9.33571 67.5977 8.48795 67.2349 7.5368C66.8721 6.59255 66.5367 5.68965 66.4819 5.53802C66.4272 5.38639 66.1876 4.75229 65.948 4.12508L65.5099 2.98785C63.0112 2.95338 62.888 2.96028 62.8333 3.07055ZM64.0038 6.35132C64.086 6.11008 64.175 5.94467 64.2024 5.97224C64.2297 5.99981 64.4214 6.51673 64.6336 7.12326C64.8458 7.72979 65.0512 8.30875 65.147 8.60512H64.1887C63.3056 8.60512 63.2303 8.59822 63.2714 8.48795C63.2919 8.41902 63.4357 8.00548 63.5863 7.57126C63.7369 7.13704 63.9217 6.58566 64.0038 6.35132ZM81.8227 3.05677C81.8022 3.11191 81.7816 5.11758 81.7816 7.50234C81.7816 9.88709 81.7953 11.8928 81.8159 11.9479C81.8432 12.0375 82.0418 12.0513 83.0138 12.0513C83.9859 12.0513 84.1844 12.0375 84.2118 11.9479C84.2323 11.8928 84.246 11.2311 84.246 10.4867V9.12204C85.8616 9.04623 86.4571 8.99109 86.6077 8.94973C86.7583 8.90838 87.0664 8.78432 87.2923 8.67404C87.5182 8.56376 87.8262 8.34321 87.97 8.17779C88.1206 8.01237 88.3328 7.68843 88.4355 7.45409C88.545 7.20597 88.6545 6.80621 88.6888 6.52363C88.7161 6.24793 88.723 5.80682 88.6888 5.53802C88.6614 5.26922 88.5792 4.88324 88.4971 4.67647C88.4218 4.4697 88.2506 4.15955 88.1137 3.98724C87.97 3.81493 87.7167 3.58059 87.5387 3.46342C87.3676 3.33936 87.0732 3.18772 86.8815 3.1188C86.5803 3.00163 86.2791 2.98785 84.205 2.96717C82.1445 2.94649 81.8638 2.96028 81.8227 3.05677ZM84.2666 4.86257L84.8553 4.91081C85.3071 4.94528 85.5124 4.99352 85.7383 5.12448C85.93 5.24165 86.0464 5.36571 86.0943 5.52423C86.1354 5.6414 86.1628 5.86885 86.1628 6.02048C86.1628 6.17211 86.108 6.40645 86.0396 6.53741C85.9711 6.67526 85.8205 6.82689 85.6836 6.89581C85.5124 6.98541 85.2797 7.01987 84.246 7.01987L84.2597 5.94467L84.2666 4.86257ZM91.0368 3.03609C91.0025 3.08434 90.8314 3.51166 90.6603 3.98035C90.4823 4.45592 90.1537 5.33814 89.921 5.94467C89.6882 6.55119 89.476 7.13015 89.4418 7.21975C89.4144 7.31625 89.2433 7.76425 89.0721 8.21915C88.8941 8.67404 88.5998 9.45288 88.4081 9.94223C88.2233 10.4385 87.9768 11.0726 87.8741 11.3552C87.7646 11.6446 87.6962 11.9134 87.7235 11.9617C87.7578 12.0237 88.0727 12.0444 88.9968 12.0306L90.229 12.0099L90.7424 10.4592C93.8161 10.4592 93.9666 10.4729 94.0214 10.5832C94.0556 10.6521 94.172 10.9692 94.2747 11.2862C94.3774 11.6102 94.4938 11.9134 94.5348 11.9617C94.5964 12.0306 94.9182 12.0513 95.8286 12.0513C96.9376 12.0513 97.0403 12.0375 97.0403 11.9272C97.0403 11.8583 96.9034 11.431 96.7254 10.9761C96.5542 10.5212 96.2051 9.59072 95.945 8.90838C95.6917 8.22604 95.3426 7.29557 95.1715 6.84067C94.9935 6.38578 94.5964 5.33125 94.2816 4.49727L93.7065 2.98095C91.4201 2.95338 91.0915 2.96717 91.0368 3.03609ZM92.2416 6.20658C92.2963 6.0067 92.358 5.84128 92.3717 5.84128C92.3853 5.84128 92.4812 6.10319 92.5839 6.41335C92.6934 6.7235 92.8988 7.30935 93.0357 7.70222C93.1794 8.10197 93.3095 8.46727 93.3232 8.51552C93.3437 8.58444 93.1247 8.59822 92.3853 8.59822C91.8582 8.59822 91.427 8.59133 91.427 8.58444C91.427 8.57755 91.5844 8.11576 91.7829 7.56437C91.9746 7.01987 92.18 6.40646 92.2416 6.20658ZM96.9376 3.10502C96.9171 3.18772 96.9102 4.60755 96.9239 6.25482C96.9513 9.11515 96.9581 9.28057 97.1019 9.80439C97.1909 10.1077 97.3483 10.5143 97.4579 10.7004C97.5605 10.8934 97.7864 11.176 97.9439 11.3345C98.1082 11.493 98.4231 11.7205 98.649 11.8376C98.9228 11.9755 99.2719 12.0858 99.6758 12.1547C100.018 12.2098 100.573 12.2512 100.908 12.2512C101.25 12.2512 101.791 12.2098 102.106 12.1478C102.428 12.0927 102.845 11.9755 103.03 11.879C103.222 11.7894 103.544 11.5619 103.749 11.3758C103.961 11.1898 104.208 10.8796 104.31 10.6935C104.413 10.5074 104.563 10.1077 104.646 9.80439C104.796 9.28057 104.803 9.12204 104.83 6.25482C104.844 4.60755 104.837 3.18772 104.817 3.10502C104.776 2.95338 104.762 2.94649 103.612 2.94649C102.462 2.94649 102.448 2.95338 102.414 3.10502C102.4 3.18772 102.373 4.5593 102.366 6.15144C102.346 8.99109 102.346 9.05312 102.195 9.37706C102.092 9.59072 101.942 9.76993 101.757 9.89399C101.497 10.0663 101.408 10.0801 100.874 10.0801C100.347 10.0801 100.258 10.0663 99.9975 9.89399C99.8127 9.76993 99.6621 9.59072 99.5594 9.37706C99.4088 9.06001 99.4088 8.99109 99.3883 6.15144C99.3746 4.5593 99.3541 3.18772 99.3335 3.10502C99.2993 2.95338 99.2925 2.94649 98.1424 2.94649C96.9924 2.94649 96.9787 2.95338 96.9376 3.10502ZM105.775 3.04988C105.755 3.11191 105.734 5.11069 105.734 7.49545C105.734 9.8871 105.755 11.8859 105.768 11.941C105.803 12.0306 106.152 12.0444 108.37 12.0444H110.937C110.937 10.1559 110.923 9.9767 110.834 9.94223C110.779 9.92845 110.163 9.90777 109.465 9.90777H108.198C108.198 4.67647 108.185 3.11191 108.164 3.04988C108.137 2.96717 107.945 2.94649 106.973 2.94649C106.008 2.94649 105.809 2.96717 105.775 3.04988ZM54.4954 14.1879C54.3448 14.2293 54.0573 14.3533 53.852 14.4636C53.6009 14.6015 53.4047 14.7784 53.2632 14.9943C53.1469 15.1735 53.01 15.4286 52.9689 15.5595C52.921 15.6974 52.8867 16.0833 52.8867 16.421C52.8867 16.938 52.9141 17.1034 53.0579 17.386C53.1469 17.579 53.3522 17.8547 53.5165 18.0063C53.6808 18.1579 53.9546 18.3371 54.1189 18.4198C54.3654 18.5301 54.5707 18.5577 55.1115 18.5577C55.7071 18.5577 55.844 18.5301 56.1315 18.3854C56.3163 18.2958 56.5765 18.089 56.7134 17.9374C56.8434 17.7857 57.0146 17.5238 57.0899 17.3515C57.1789 17.1447 57.2268 16.8828 57.2336 16.5589V16.0764C55.4675 16.0489 55.1594 16.0695 55.091 16.1316C55.0431 16.1798 55.0088 16.3521 55.0088 16.5107C55.0088 16.6692 55.0294 16.8484 55.0431 16.9035C55.0704 16.9862 55.1868 17.0069 55.488 17.0069C55.8851 17.0069 55.8988 17.0138 55.8577 17.1654C55.8371 17.2481 55.7824 17.3584 55.7413 17.4067C55.7002 17.4549 55.5359 17.5238 55.3853 17.5583C55.2347 17.5928 55.0225 17.6065 54.9062 17.5859C54.7966 17.5583 54.6186 17.4618 54.5091 17.3653C54.3996 17.2619 54.2695 17.0896 54.2079 16.9724C54.1532 16.8622 54.1052 16.6003 54.1052 16.3866C54.1052 16.1522 54.1532 15.911 54.2421 15.7318C54.3174 15.5802 54.468 15.401 54.5776 15.3321C54.6803 15.2562 54.8651 15.1873 54.9746 15.1666C55.091 15.1529 55.2964 15.1873 55.4401 15.2425C55.5839 15.3045 55.7481 15.4492 55.8166 15.5595C55.8851 15.6767 55.9672 15.7663 56.0014 15.7663C56.0425 15.7663 56.2821 15.6905 56.5354 15.594C56.9393 15.4492 56.994 15.401 56.994 15.2493C56.994 15.1391 56.8914 14.9737 56.686 14.7669C56.5217 14.6015 56.2342 14.3947 56.0562 14.312C55.844 14.2155 55.5565 14.1535 55.2484 14.1397C54.9883 14.1328 54.646 14.1535 54.4954 14.1879ZM59.3215 14.2431C59.1162 14.312 58.8218 14.4429 58.6712 14.5394C58.5206 14.6359 58.3084 14.822 58.1989 14.953C58.0893 15.077 57.9456 15.3045 57.8771 15.4561C57.7881 15.656 57.7539 15.911 57.7539 16.3521C57.747 16.8759 57.7744 17.0345 57.9182 17.3171C58.0072 17.51 58.2331 17.8064 58.4111 17.9718C58.5959 18.1372 58.8834 18.344 59.0477 18.4198C59.2941 18.5301 59.4995 18.5577 60.0403 18.5577C60.5811 18.5577 60.7933 18.5301 61.0329 18.4198C61.204 18.344 61.4847 18.151 61.649 17.9994C61.8201 17.8478 62.0529 17.5376 62.1624 17.3102C62.3335 16.9655 62.3609 16.8277 62.3609 16.3521C62.3609 15.9455 62.3267 15.7249 62.224 15.4906C62.1487 15.3252 61.9776 15.0633 61.8544 14.9185C61.7243 14.7738 61.4779 14.5739 61.3067 14.4774C61.1424 14.3809 60.8481 14.2569 60.6564 14.2086C60.4716 14.1604 60.1772 14.119 60.0061 14.119C59.8418 14.119 59.5337 14.181 59.3215 14.2431ZM59.5611 15.3941C59.698 15.3183 59.8897 15.2907 60.1224 15.2976C60.3483 15.3114 60.5469 15.3734 60.6701 15.463C60.7796 15.5457 60.937 15.718 61.0192 15.8421C61.1082 15.973 61.1767 16.1798 61.1767 16.3039C61.1767 16.4279 61.1082 16.6485 61.0329 16.8001C60.9576 16.9518 60.8138 17.1447 60.7112 17.2206C60.6085 17.2964 60.4168 17.3998 60.2799 17.4411C60.0951 17.4963 59.9787 17.4894 59.7323 17.4067C59.568 17.3446 59.342 17.1999 59.2394 17.0827C59.1367 16.9655 59.0203 16.7381 58.9792 16.5796C58.9176 16.3452 58.9245 16.2281 59.0066 16.0075C59.0682 15.8559 59.1709 15.6836 59.2325 15.6215C59.301 15.5526 59.4516 15.4561 59.5611 15.3941ZM80.6658 14.2224C80.4878 14.2775 80.1798 14.4292 79.9813 14.5532C79.7759 14.6842 79.5226 14.9254 79.3994 15.1184C79.2693 15.3045 79.1393 15.5802 79.0982 15.7318C79.0571 15.8834 79.0434 16.2418 79.0571 16.5244C79.0845 16.9104 79.1461 17.1379 79.2899 17.4204C79.4062 17.6479 79.6253 17.9098 79.8444 18.089C80.0429 18.2544 80.3372 18.4267 80.4947 18.475C80.6521 18.5163 81.0629 18.5577 81.3983 18.5577C81.8296 18.5508 82.0965 18.5163 82.2882 18.4336C82.4388 18.3647 82.6716 18.2406 82.8016 18.151C82.9385 18.0545 83.1439 17.8478 83.2603 17.6892C83.3835 17.5238 83.5273 17.1999 83.5889 16.9724C83.6436 16.745 83.6984 16.4348 83.6984 16.2832C83.6984 16.1316 83.6505 15.8559 83.5957 15.6629C83.5341 15.4492 83.3835 15.1942 83.1987 14.9737C83.0138 14.7669 82.7195 14.5394 82.4525 14.4085C82.1102 14.2224 81.9117 14.1741 81.501 14.1466C81.1587 14.1259 80.8849 14.1535 80.6658 14.2224ZM80.8506 15.4148C81.0012 15.3458 81.234 15.2907 81.3641 15.2907C81.501 15.2907 81.7269 15.3458 81.8775 15.4217C82.0486 15.5044 82.2129 15.6629 82.3087 15.8145C82.3909 15.9593 82.4594 16.1729 82.4594 16.2832C82.4662 16.4004 82.4183 16.6003 82.3704 16.7312C82.3156 16.8691 82.1992 17.0414 82.1102 17.1241C82.0212 17.2068 81.8433 17.324 81.7063 17.3929C81.5421 17.4687 81.3914 17.4963 81.2272 17.4618C81.0971 17.4411 80.8917 17.3584 80.7685 17.2826C80.6453 17.2068 80.481 17.0138 80.3988 16.8553C80.3167 16.6967 80.2482 16.4555 80.2482 16.3177C80.2414 16.1729 80.3099 15.973 80.4125 15.8076C80.5152 15.6422 80.6864 15.4906 80.8506 15.4148ZM92.3717 14.1879C92.2279 14.2224 91.9883 14.312 91.8377 14.3878C91.6871 14.4636 91.4201 14.6635 91.249 14.822C91.071 14.9805 90.8588 15.27 90.7698 15.4561C90.6466 15.718 90.6124 15.9248 90.6124 16.3039C90.6055 16.6623 90.6534 16.9173 90.763 17.193C90.8519 17.4204 91.0368 17.7168 91.2079 17.8822C91.3654 18.0476 91.6734 18.2682 91.8925 18.3716C92.2347 18.537 92.3717 18.5577 92.933 18.5577C93.4875 18.5577 93.6449 18.5301 93.9598 18.3854C94.172 18.2889 94.4732 18.0683 94.6444 17.9029C94.8087 17.7375 95.014 17.4549 95.0893 17.2826C95.1989 17.0414 95.2262 16.8346 95.2262 16.3177C95.2262 15.7801 95.2057 15.6146 95.0825 15.3872C95.0003 15.2356 94.8155 15.0012 94.6717 14.8703C94.528 14.7324 94.3158 14.5532 94.1994 14.4774C94.0899 14.3947 93.8092 14.2844 93.5833 14.2224C93.3574 14.1673 93.0494 14.119 92.8988 14.119C92.7482 14.1259 92.5154 14.1604 92.3717 14.1879ZM92.399 15.4423C92.5633 15.3596 92.8029 15.2907 92.933 15.2907C93.0699 15.2907 93.3095 15.3527 93.4669 15.4286C93.6723 15.525 93.7955 15.6422 93.8914 15.8352C93.9667 15.9868 94.0283 16.2074 94.0283 16.3177C94.0283 16.4348 93.9872 16.6416 93.9324 16.7863C93.8708 16.9449 93.7202 17.1241 93.5354 17.2481C93.3163 17.4067 93.1657 17.4549 92.933 17.4549C92.7071 17.4549 92.5496 17.4067 92.3717 17.2826C92.2347 17.193 92.0567 17.0069 91.9814 16.8691C91.8993 16.7312 91.8445 16.5038 91.8445 16.3177C91.8445 16.1385 91.8993 15.9248 91.9746 15.8007C92.0431 15.6905 92.2347 15.525 92.399 15.4423ZM117.714 14.2431C117.508 14.312 117.207 14.4498 117.05 14.5532C116.892 14.6497 116.646 14.8841 116.516 15.0633C116.379 15.2425 116.242 15.5113 116.201 15.6629C116.16 15.8145 116.139 16.2074 116.153 16.5244C116.18 16.9931 116.221 17.1792 116.358 17.4204C116.454 17.5928 116.673 17.8547 116.838 18.0063C117.002 18.1579 117.276 18.3371 117.44 18.4198C117.686 18.5301 117.892 18.5577 118.433 18.5577C119.035 18.5577 119.165 18.537 119.494 18.3785C119.719 18.2682 120.007 18.0476 120.199 17.8271C120.397 17.6134 120.575 17.3171 120.644 17.1103C120.712 16.9104 120.76 16.5727 120.753 16.2832C120.749 15.9662 120.701 15.7019 120.609 15.4906C120.541 15.3252 120.37 15.0633 120.247 14.9185C120.117 14.7738 119.87 14.5739 119.699 14.4774C119.535 14.3809 119.24 14.2569 119.049 14.2086C118.864 14.1604 118.569 14.119 118.398 14.119C118.234 14.119 117.926 14.181 117.714 14.2431ZM117.919 15.4423C118.09 15.3527 118.33 15.2838 118.453 15.2838C118.576 15.2838 118.795 15.3458 118.946 15.4217C119.097 15.4975 119.302 15.6767 119.391 15.8214C119.494 15.973 119.562 16.1729 119.562 16.3177C119.562 16.4555 119.494 16.683 119.411 16.8346C119.322 16.9862 119.151 17.1792 119.014 17.2688C118.884 17.3584 118.672 17.448 118.535 17.4687C118.357 17.5032 118.22 17.4687 117.994 17.3446C117.823 17.255 117.611 17.0758 117.529 16.938C117.44 16.807 117.351 16.6071 117.33 16.49C117.296 16.3521 117.337 16.1798 117.454 15.9386C117.577 15.6698 117.68 15.5664 117.919 15.4423ZM101.729 14.2913C101.62 14.3533 101.456 14.4705 101.367 14.5532C101.271 14.6359 101.141 14.822 101.072 14.9737C101.004 15.1253 100.949 15.4079 100.949 15.594C100.949 15.8214 100.99 16.0213 101.079 16.166C101.154 16.2901 101.305 16.4417 101.408 16.5107C101.51 16.5796 101.825 16.7105 102.106 16.807C102.578 16.9724 102.626 17 102.64 17.1861C102.654 17.2964 102.619 17.4273 102.571 17.4756C102.524 17.5307 102.359 17.5652 102.209 17.5652C102.031 17.5652 101.839 17.5032 101.661 17.386C101.51 17.2895 101.346 17.2137 101.291 17.2275C101.243 17.2412 101.127 17.3722 101.038 17.5238C100.949 17.6755 100.853 17.8478 100.833 17.9029C100.805 17.9649 100.819 18.0545 100.853 18.1097C100.894 18.1717 101.107 18.2889 101.326 18.3785C101.62 18.4957 101.873 18.5439 102.243 18.5439C102.647 18.5439 102.838 18.5094 103.133 18.3785C103.345 18.282 103.578 18.1166 103.653 18.0063C103.735 17.896 103.838 17.6961 103.879 17.5583C103.92 17.4273 103.961 17.2068 103.961 17.062C103.954 16.9173 103.906 16.6899 103.838 16.552C103.769 16.4142 103.626 16.235 103.509 16.1591C103.4 16.0833 103.078 15.9317 102.791 15.8283C102.51 15.7318 102.25 15.6009 102.209 15.5388C102.161 15.463 102.181 15.3941 102.277 15.2907C102.352 15.208 102.489 15.146 102.571 15.146C102.654 15.146 102.825 15.2011 102.948 15.2631C103.071 15.3252 103.222 15.3527 103.29 15.3321C103.359 15.3045 103.489 15.1322 103.578 14.9392L103.749 14.5946C103.516 14.3878 103.311 14.2913 103.153 14.2568C102.996 14.2155 102.654 14.1879 102.4 14.1879C102.113 14.1879 101.86 14.2293 101.729 14.2913ZM62.5115 14.3533C62.4157 14.4498 62.4157 14.4843 62.5389 14.7324C62.6142 14.8841 62.6758 15.0426 62.6758 15.077C62.6758 15.1184 62.7785 15.3734 62.9086 15.6491C63.0318 15.9248 63.244 16.4142 63.3809 16.7312C63.5178 17.0551 63.7369 17.5652 63.8601 17.8684L64.0997 18.4198L65.0033 18.4543C65.2087 18.0545 65.4756 17.4618 65.7221 16.8691C65.9754 16.2832 66.3039 15.5182 66.4545 15.1666C66.5983 14.8151 66.7147 14.4843 66.7147 14.4223C66.7147 14.3671 66.6736 14.3051 66.612 14.2844C66.5572 14.2706 66.3108 14.25 66.0643 14.25C65.681 14.25 65.6057 14.2706 65.5235 14.4085C65.4688 14.4912 65.284 14.9047 65.1197 15.3183C64.9485 15.7387 64.7637 16.2005 64.6952 16.3521C64.5926 16.5934 64.572 16.614 64.5241 16.49C64.4967 16.4142 64.2982 15.9179 64.086 15.3872C63.8738 14.8565 63.6479 14.3878 63.5794 14.3396C63.5178 14.2913 63.2782 14.25 63.0455 14.25C62.7625 14.2546 62.5845 14.289 62.5115 14.3533ZM67.2965 14.3602C67.2007 14.4567 67.187 14.6911 67.1939 16.359C67.1939 17.3998 67.2144 18.2958 67.2281 18.3509C67.2623 18.4405 67.4608 18.4543 68.4603 18.4543C69.4666 18.4543 69.6651 18.4405 69.6925 18.3509C69.713 18.2958 69.7267 18.1235 69.7267 17.9718C69.7267 17.8202 69.713 17.6548 69.6925 17.5928C69.6651 17.5169 69.535 17.4894 69.0421 17.4894H68.4261V16.8691C69.1722 16.8691 69.4323 16.8553 69.4871 16.8346C69.5693 16.8139 69.5898 16.6899 69.5898 16.3521C69.5898 16.0213 69.5693 15.8972 69.4871 15.8697C69.4323 15.8559 69.1722 15.8352 68.9052 15.8352H68.4261V15.2838C69.3639 15.2838 69.5419 15.2562 69.624 15.1804C69.6856 15.1184 69.7267 14.9599 69.7267 14.7669C69.7267 14.5877 69.6856 14.4154 69.624 14.3533C69.5419 14.2706 69.316 14.25 68.4671 14.25C67.5977 14.25 67.3924 14.2706 67.2965 14.3602ZM70.555 14.2982C70.4728 14.3258 70.4592 14.6497 70.466 16.3935L70.4797 18.4543L71.6092 18.4198L71.6777 17.0551L72.5676 18.4198C73.6013 18.4543 73.8956 18.4267 73.923 18.3923C73.9504 18.3509 73.7108 17.9856 73.3959 17.579C73.0741 17.1723 72.814 16.8208 72.814 16.8001C72.814 16.7863 72.9372 16.6967 73.081 16.614C73.2635 16.5129 73.4005 16.3636 73.4917 16.166C73.567 16.0075 73.6286 15.7387 73.6286 15.5802C73.6286 15.4217 73.6013 15.2011 73.5602 15.0977C73.5191 14.9943 73.4027 14.822 73.3 14.7117C73.1974 14.6015 73.0262 14.4636 72.9099 14.4016C72.7524 14.3189 72.4718 14.2913 71.6777 14.2775C71.1163 14.2637 70.6098 14.2775 70.555 14.2982ZM71.6434 15.2149H71.8693C71.9926 15.2149 72.1637 15.2631 72.2458 15.3183C72.3417 15.3872 72.3964 15.4906 72.3964 15.6146C72.3964 15.718 72.3759 15.8421 72.3485 15.8903C72.3211 15.9317 72.1911 16.0075 72.0542 16.042C71.9241 16.0833 71.7804 16.1109 71.7324 16.1109C71.6708 16.1109 71.6434 15.9799 71.6434 15.6629V15.2149ZM74.4569 14.2982C74.3748 14.3258 74.3611 14.6497 74.368 16.3935L74.3816 18.4543L75.5112 18.4198L75.5796 16.0833C76.6954 17.5238 77.1267 18.0614 77.2568 18.1993C77.4964 18.4612 77.5032 18.4612 78.0303 18.4612C78.441 18.4612 78.5711 18.4336 78.5916 18.3509C78.6122 18.2958 78.6259 17.3998 78.6259 16.3521C78.6259 14.76 78.6122 14.4429 78.5232 14.3533C78.4616 14.2913 78.2904 14.2568 78.0303 14.2568C77.8112 14.2568 77.5922 14.2844 77.5306 14.3189C77.4484 14.374 77.4211 14.6084 77.3937 15.4906L77.3594 16.6003C76.1409 15.0357 75.7165 14.505 75.6344 14.4154C75.4975 14.2775 75.4153 14.2568 75.0183 14.2568C74.765 14.2637 74.5117 14.2775 74.4569 14.2982ZM86.505 14.2982C86.4229 14.3258 86.4092 14.6497 86.4161 16.3935L86.4297 18.4543C88.545 18.4267 88.6888 18.4061 88.9489 18.2682C89.1063 18.1855 89.3733 17.9925 89.5308 17.8478C89.6882 17.703 89.8936 17.4136 89.9894 17.2068C90.1195 16.9311 90.1606 16.7174 90.1606 16.3521C90.1606 16.0144 90.1195 15.7801 90.0168 15.5595C89.9415 15.3941 89.7772 15.1322 89.6471 14.9874C89.5171 14.8358 89.2227 14.6221 88.9968 14.505C88.6066 14.3051 88.5519 14.2913 87.5935 14.2775C87.0527 14.2637 86.5598 14.2706 86.505 14.2982ZM87.5935 15.2838L87.8536 15.2907C87.9974 15.2907 88.2301 15.3458 88.3807 15.4217C88.5519 15.5044 88.7162 15.6629 88.812 15.8145C88.8941 15.9593 88.9626 16.1936 88.9626 16.3383C88.9626 16.4831 88.9215 16.7036 88.8599 16.8346C88.8051 16.9724 88.6477 17.1585 88.5039 17.2481C88.3602 17.3446 88.1001 17.448 87.5935 17.5238V16.4073V15.2838ZM97.7317 14.2982C97.6427 14.3258 97.6359 14.6428 97.6427 16.3935L97.6564 18.4543C99.8606 18.4543 100.059 18.4405 100.087 18.3509C100.107 18.2958 100.121 18.1235 100.121 17.9718C100.121 17.8202 100.107 17.6479 100.087 17.5928C100.059 17.51 99.9222 17.4894 99.4362 17.4894H98.8201V16.8691C99.6895 16.8691 99.8675 16.8415 99.9496 16.7657C100.011 16.7036 100.052 16.5451 100.052 16.3521C100.052 16.166 100.011 16.0006 99.9496 15.9386C99.8812 15.8628 99.7032 15.8352 99.3335 15.8352H98.8201V15.2838C99.7511 15.2838 99.936 15.2562 100.018 15.1804C100.08 15.1184 100.121 14.9599 100.121 14.7669C100.121 14.5808 100.08 14.4154 100.018 14.3533C99.936 14.2706 99.7169 14.25 98.8749 14.2568C98.2999 14.2568 97.7864 14.2775 97.7317 14.2982ZM104.194 14.3602C104.125 14.4292 104.084 14.5739 104.091 14.7738C104.091 14.9461 104.139 15.1184 104.194 15.1804C104.262 15.2425 104.427 15.2838 104.639 15.2838H104.981C104.981 17.579 105.002 18.2958 105.015 18.3509C105.043 18.4336 105.173 18.4543 105.597 18.4543C106.022 18.4543 106.152 18.4336 106.179 18.3509C106.2 18.2958 106.213 17.579 106.213 16.7657V15.2838C106.692 15.2838 106.877 15.27 106.932 15.2493C107.014 15.2218 107.035 15.1046 107.035 14.7669C107.035 14.4292 107.014 14.312 106.932 14.2844C106.877 14.2637 106.261 14.25 105.57 14.25C104.516 14.25 104.29 14.2706 104.194 14.3602ZM108.596 14.3327C108.534 14.3809 108.438 14.5463 108.383 14.698C108.329 14.8496 108.198 15.1873 108.096 15.4561C107.993 15.718 107.877 16.0282 107.829 16.1454C107.781 16.2556 107.665 16.5382 107.582 16.7657C107.493 16.9931 107.322 17.4273 107.199 17.7306C107.083 18.0339 106.994 18.3233 107.007 18.3647C107.028 18.4267 107.206 18.4474 107.63 18.4336L108.233 18.4198L108.459 17.7995L109.91 17.7651C109.971 18.0614 110.033 18.2131 110.088 18.2958C110.177 18.4405 110.238 18.4543 110.731 18.4543C111.108 18.4543 111.293 18.4267 111.32 18.3647C111.341 18.3233 111.108 17.6272 110.8 16.8346C110.492 16.0351 110.149 15.146 110.026 14.8496C109.91 14.5532 109.773 14.2982 109.725 14.2844C109.677 14.2637 109.431 14.25 109.171 14.25C108.91 14.25 108.664 14.2844 108.596 14.3327ZM109.177 15.7318L109.294 16.0764C109.362 16.2625 109.431 16.5244 109.499 16.8691H109.157C108.917 16.8691 108.821 16.8415 108.842 16.7795C108.856 16.7381 108.938 16.4762 109.02 16.2143L109.177 15.7318ZM112.005 14.3533C111.895 14.4567 111.888 14.6428 111.895 16.3728C111.895 17.4204 111.922 18.3233 111.95 18.3716C111.991 18.4405 112.244 18.4543 113.059 18.4405C114.045 18.4198 114.147 18.4061 114.462 18.2406C114.654 18.1372 114.955 17.8891 115.133 17.6892C115.311 17.4825 115.509 17.1792 115.564 17.0069C115.619 16.8346 115.66 16.5382 115.66 16.3521C115.66 16.1591 115.619 15.8697 115.564 15.6974C115.509 15.525 115.318 15.2218 115.133 15.0219C114.934 14.7945 114.661 14.5808 114.428 14.4705C114.092 14.312 113.956 14.2913 113.093 14.2637C112.258 14.2362 112.107 14.25 112.005 14.3533ZM113.127 15.2838H113.353C113.476 15.2838 113.695 15.3458 113.846 15.4148C113.997 15.4837 114.154 15.5802 114.202 15.6353C114.243 15.6905 114.318 15.8697 114.366 16.042C114.435 16.297 114.435 16.4142 114.353 16.6899C114.298 16.8897 114.181 17.0965 114.072 17.193C113.969 17.2757 113.764 17.3791 113.627 17.4204C113.483 17.4549 113.312 17.4894 113.25 17.4894C113.141 17.4894 113.127 17.3929 113.127 16.3866V15.2838ZM57.4801 20.777C57.3842 20.8459 57.2747 20.9907 57.2268 21.1079C57.1857 21.2181 57.1583 21.356 57.172 21.3973C57.1857 21.4456 57.3021 21.4869 57.4253 21.4869C57.5554 21.48 57.6786 21.4318 57.7265 21.3629C57.795 21.2526 57.8155 21.2526 58.103 21.3629C58.2673 21.4318 58.4864 21.4869 58.589 21.4869C58.7191 21.4869 58.856 21.4111 58.9861 21.2802C59.0956 21.163 59.1846 20.9976 59.1846 20.9011C59.1846 20.777 59.1367 20.715 59.034 20.6874C58.9313 20.6599 58.8149 20.6943 58.7054 20.7839C58.5411 20.9149 58.5274 20.9149 58.2262 20.7908C58.0551 20.7219 57.8566 20.6667 57.7813 20.6598C57.706 20.6598 57.5691 20.715 57.4801 20.777ZM91.8651 20.7563C91.7829 20.8046 91.6666 20.9218 91.6049 21.0114C91.5502 21.101 91.5023 21.2457 91.5023 21.3284C91.4954 21.4594 91.5297 21.4869 91.7213 21.4869C91.8445 21.4869 91.9952 21.4318 92.0636 21.3629C92.1731 21.2526 92.1937 21.2526 92.4538 21.3629C92.6044 21.4318 92.8166 21.4869 92.9193 21.4869C93.022 21.4869 93.1657 21.4456 93.241 21.3973C93.3163 21.3422 93.419 21.2043 93.4669 21.0872C93.5354 20.908 93.5354 20.8459 93.4669 20.7632C93.419 20.7012 93.33 20.653 93.2753 20.653C93.2205 20.653 93.0973 20.715 93.0014 20.7839C92.8371 20.9149 92.8235 20.9149 92.5086 20.7839C92.3306 20.715 92.1458 20.6598 92.0978 20.6598C92.0499 20.6667 91.9404 20.7081 91.8651 20.7563ZM54.0162 21.7971C53.9067 21.8591 53.7561 21.9625 53.6877 22.0245C53.6124 22.0866 53.5165 22.2244 53.4618 22.3278C53.407 22.4381 53.3659 22.7 53.3659 22.9137C53.3728 23.2927 53.3865 23.3272 53.6603 23.5891C53.8177 23.7407 54.071 23.8993 54.2216 23.9475C54.3722 23.9958 54.5844 24.0922 54.6871 24.1681C54.8445 24.2921 54.8719 24.3542 54.8582 24.6023C54.8445 24.8435 54.8103 24.9055 54.6666 24.9607C54.5707 24.9951 54.4133 25.002 54.3106 24.9745C54.2079 24.9538 54.0505 24.8573 53.9683 24.7608C53.8793 24.6712 53.7561 24.5954 53.6945 24.5885C53.626 24.5885 53.496 24.6574 53.407 24.7401C53.3112 24.8297 53.2359 24.9469 53.229 25.002C53.229 25.0572 53.3659 25.2364 53.5371 25.3949C53.7082 25.5603 53.9341 25.7119 54.0368 25.7326C54.1395 25.7533 54.2832 25.7809 54.3585 25.7947C54.4338 25.8084 54.6529 25.7878 54.8377 25.7464C55.0499 25.6982 55.269 25.5879 55.4059 25.4569C55.5359 25.3398 55.6797 25.1192 55.7413 24.9676C55.8029 24.8022 55.8371 24.554 55.8166 24.3473C55.8029 24.1336 55.7345 23.9268 55.6386 23.7959C55.5496 23.6787 55.2347 23.4581 54.8925 23.2789C54.4749 23.0653 54.2832 22.9274 54.2695 22.8309C54.2627 22.7551 54.2901 22.638 54.338 22.569C54.3996 22.4794 54.5091 22.445 54.7008 22.445C54.8514 22.445 55.0225 22.4932 55.0773 22.5484C55.1321 22.6104 55.221 22.6586 55.269 22.6586C55.3169 22.6586 55.4127 22.5759 55.4949 22.4656C55.5702 22.3623 55.6318 22.2244 55.6318 22.1555C55.6249 22.0935 55.5086 21.9694 55.3716 21.8867C55.1982 21.7856 54.9632 21.7282 54.6666 21.7144C54.3448 21.6937 54.1668 21.7144 54.0162 21.7971ZM57.7607 21.9832C57.6923 22.1486 57.5485 22.4932 57.4458 22.762C57.3363 23.0239 57.2131 23.3341 57.1652 23.4513C57.1173 23.5615 56.9187 24.0578 56.7271 24.554C56.5354 25.0434 56.3779 25.4914 56.3779 25.5327C56.3779 25.581 56.4259 25.6361 56.4806 25.6568C56.5354 25.6775 56.7065 25.6913 56.8503 25.6913C57.0009 25.6913 57.1652 25.6499 57.2131 25.6017C57.261 25.5534 57.3569 25.3673 57.4253 25.1881L57.5417 24.8642L58.8081 24.8573C59.0203 25.3673 59.123 25.5603 59.1641 25.6017C59.212 25.6499 59.3831 25.6913 59.5474 25.6913C59.7254 25.6982 59.876 25.6568 59.9376 25.5879C60.0334 25.4914 60.0198 25.4294 59.8555 25.0158C59.7528 24.7608 59.4379 23.9613 59.1641 23.2445C58.8834 22.5208 58.637 21.8798 58.6164 21.8109C58.5822 21.7213 58.4932 21.6937 58.2262 21.6937C57.884 21.6937 57.8771 21.6937 57.7607 21.9832ZM58.0277 23.534C58.1167 23.2721 58.192 23.0722 58.1989 23.086C58.2125 23.0997 58.2741 23.2927 58.3563 23.5202C58.4316 23.7476 58.5069 23.9889 58.5343 24.0509C58.5617 24.1612 58.5206 24.175 58.192 24.175C57.925 24.175 57.8223 24.1474 57.8429 24.0854C57.8566 24.044 57.9387 23.789 58.0277 23.534ZM61.9228 21.7557C61.827 21.7833 61.6285 21.8798 61.4779 21.9625C61.3273 22.0521 61.115 22.2313 60.9987 22.3692C60.8891 22.507 60.7385 22.7758 60.6769 22.9619C60.6153 23.1549 60.5605 23.5064 60.5605 23.7407C60.5537 24.0233 60.6085 24.3128 60.7043 24.5678C60.7933 24.8091 60.9644 25.071 61.1356 25.2364C61.2862 25.388 61.5463 25.5741 61.7175 25.643C61.9297 25.7395 62.1898 25.7809 62.5389 25.7809C62.9565 25.7878 63.1276 25.7533 63.4288 25.6086C63.6342 25.5052 63.9149 25.3122 64.0381 25.1606C64.1681 25.0158 64.3393 24.7608 64.4146 24.5885C64.5104 24.3679 64.5515 24.1267 64.5515 23.7614C64.5583 23.4788 64.5104 23.1204 64.4557 22.9688C64.4077 22.8172 64.2503 22.5552 64.1134 22.3829C63.9765 22.2106 63.7095 21.997 63.5247 21.9005C63.2645 21.7695 63.066 21.7282 62.6416 21.7144C62.3404 21.7075 62.0186 21.7213 61.9228 21.7557ZM62.0666 22.638C62.2309 22.5484 62.402 22.5277 62.6416 22.5484C62.8333 22.5621 63.0592 22.638 63.155 22.7138C63.2508 22.7827 63.4014 22.9481 63.4904 23.0791C63.6273 23.2789 63.641 23.3823 63.6205 23.7959C63.6068 24.1336 63.5589 24.3335 63.4699 24.4506C63.4014 24.5471 63.2645 24.685 63.1618 24.7608C63.0523 24.8435 62.847 24.9055 62.6074 24.9193C62.3198 24.9331 62.1829 24.9055 62.0118 24.8022C61.8886 24.7195 61.7243 24.554 61.649 24.43C61.5737 24.3128 61.4984 24.0854 61.471 23.9337C61.4505 23.7821 61.4642 23.534 61.5052 23.3823C61.5395 23.2307 61.6353 23.0308 61.7038 22.9343C61.7791 22.8378 61.9365 22.7069 62.0666 22.638ZM71.4449 21.8453C71.4107 21.9349 71.1848 22.5001 70.9384 23.1066C70.6988 23.7132 70.4729 24.2852 70.4455 24.3817C70.4181 24.4782 70.3017 24.7539 70.1922 25.002C70.0484 25.3191 70.0074 25.4776 70.0553 25.5534C70.0895 25.6086 70.2264 25.6637 70.3496 25.6775C70.4797 25.6913 70.6508 25.6844 70.7398 25.6637C70.8425 25.6361 70.9452 25.4983 71.0616 25.2433L71.2327 24.8642L72.4854 24.8986C72.6908 25.4294 72.7866 25.6086 72.8345 25.6361C72.8756 25.6637 73.0262 25.6913 73.17 25.6913C73.3069 25.6913 73.4712 25.6775 73.526 25.6568C73.5807 25.6361 73.6286 25.5672 73.6286 25.4983C73.6286 25.4363 73.5191 25.0985 73.389 24.7608C73.259 24.4162 72.9441 23.596 72.684 22.9343L72.2185 21.7282C71.5544 21.6868 71.5065 21.7006 71.4449 21.8453ZM71.6434 23.5891C71.7393 23.2652 71.8214 23.0101 71.8283 23.0239C71.8351 23.0308 71.9173 23.2789 72.0131 23.5684C72.1089 23.8648 72.1911 24.1198 72.1911 24.1405C72.1911 24.1612 72.0336 24.175 71.4723 24.1681L71.6434 23.5891ZM82.0144 21.8316C81.7816 21.9212 81.5694 22.0797 81.3435 22.3278C81.1655 22.5346 80.9739 22.8378 80.9191 23.0101C80.8643 23.1756 80.8164 23.5064 80.8164 23.7338C80.8164 23.9613 80.8712 24.299 80.9328 24.492C81.0149 24.7263 81.1655 24.9538 81.4257 25.2157C81.7132 25.5052 81.898 25.6223 82.1513 25.6982C82.343 25.7533 82.6921 25.7878 82.9385 25.7809C83.2603 25.774 83.4793 25.7257 83.7258 25.6017C83.9174 25.5052 84.1776 25.3122 84.3145 25.1675C84.4445 25.0227 84.6225 24.7263 84.7047 24.5058C84.7937 24.2714 84.8553 23.9544 84.8553 23.7338C84.8553 23.5133 84.7937 23.1825 84.7115 22.955C84.6157 22.6931 84.4605 22.4588 84.246 22.252C84.0612 22.0659 83.7942 21.8867 83.5889 21.8178C83.3903 21.7488 83.0617 21.7006 82.8016 21.7006C82.5415 21.7006 82.2129 21.7557 82.0144 21.8316ZM82.295 22.6793C82.4456 22.5966 82.6784 22.5277 82.8222 22.5277C82.9591 22.5277 83.1644 22.569 83.2671 22.6173C83.3698 22.6724 83.5409 22.8103 83.6436 22.9274C83.7463 23.0446 83.8627 23.2789 83.9037 23.4375C83.9448 23.596 83.9585 23.8234 83.9311 23.9406C83.9038 24.0509 83.8079 24.2783 83.7189 24.4369C83.6162 24.623 83.4725 24.7677 83.315 24.8366C83.185 24.8918 82.9454 24.94 82.7879 24.94C82.5963 24.94 82.4183 24.8849 82.2608 24.7815C82.1308 24.6988 81.9665 24.5058 81.8843 24.3542C81.7953 24.1818 81.7406 23.9475 81.7406 23.7338C81.7406 23.5133 81.7953 23.2858 81.8843 23.1135C81.9665 22.9481 82.1376 22.7689 82.295 22.6793ZM88.1959 21.9074C87.9495 22.059 87.8399 22.19 87.7578 22.4036C87.6893 22.5966 87.6619 22.8034 87.6893 23.0101C87.7099 23.1756 87.7852 23.3961 87.8536 23.4926C87.9221 23.5822 88.2301 23.789 88.545 23.9406C88.853 24.0922 89.1337 24.2577 89.168 24.3197C89.209 24.3748 89.2364 24.492 89.2364 24.5747C89.2364 24.6574 89.1748 24.7953 89.0995 24.8711C89.0242 24.9469 88.8736 25.0089 88.7572 25.0089C88.6203 25.0089 88.4697 24.9331 88.2986 24.7608C88.1548 24.6298 88.0247 24.5196 88.0042 24.5196C87.9837 24.5196 87.8878 24.6092 87.7852 24.7126C87.6825 24.8159 87.5935 24.9745 87.5935 25.0572C87.5935 25.1606 87.6962 25.2984 87.8878 25.4569C88.059 25.5948 88.3054 25.7188 88.4834 25.7602C88.6545 25.7947 88.9147 25.8016 89.0653 25.774C89.2159 25.7464 89.4349 25.6637 89.5444 25.5948C89.6608 25.519 89.8046 25.3949 89.873 25.3191C89.9347 25.2433 90.0373 25.0227 90.0989 24.8366C90.1811 24.5609 90.1879 24.43 90.1332 24.1956C90.0921 24.0371 89.9894 23.8166 89.9004 23.7132C89.8114 23.6098 89.5102 23.4099 89.2296 23.2721C88.9489 23.1411 88.6888 22.9757 88.6409 22.9137C88.5792 22.8309 88.5724 22.762 88.6203 22.6655C88.6614 22.5897 88.7778 22.4932 88.8804 22.4519C89.031 22.3967 89.12 22.4105 89.3391 22.5208C89.4897 22.5897 89.6471 22.638 89.6814 22.6242C89.7224 22.6104 89.8046 22.5001 89.873 22.3898C89.9347 22.2727 89.9757 22.1417 89.962 22.0935C89.9415 22.0452 89.7704 21.9349 89.5855 21.8522C89.3665 21.7557 89.1063 21.7006 88.8804 21.7006C88.5998 21.7006 88.4492 21.742 88.1959 21.9074ZM92.0088 22.1624C91.9062 22.4174 91.7556 22.7965 91.6666 23.0101C91.5844 23.2169 91.3654 23.7614 91.1942 24.2163C91.0162 24.6712 90.8246 25.1399 90.7766 25.2639C90.6877 25.4638 90.6877 25.4983 90.7766 25.5948C90.8383 25.6499 91.0026 25.6982 91.1532 25.6982C91.3357 25.6982 91.4726 25.6522 91.5639 25.5603C91.6392 25.4845 91.7419 25.2915 91.7898 25.1399L91.8719 24.8642H93.1726C93.3232 25.3191 93.4327 25.5121 93.508 25.581C93.597 25.6568 93.7613 25.6982 93.9324 25.6982C94.083 25.6982 94.2405 25.6568 94.2884 25.6086C94.35 25.5465 94.3158 25.4018 94.172 25.0089C94.0625 24.7194 93.8434 24.1474 93.686 23.7338C93.5217 23.3134 93.2821 22.6931 93.1452 22.3554L92.8988 21.7351L92.2005 21.6937L92.0088 22.1624ZM92.3237 23.5271C92.4538 23.1135 92.4812 23.0653 92.5428 23.1825C92.577 23.2583 92.666 23.4857 92.7413 23.6994C92.8098 23.9062 92.8645 24.0991 92.8645 24.1267C92.8645 24.1543 92.7071 24.1818 92.5222 24.1818C92.2941 24.1818 92.18 24.152 92.18 24.0922C92.18 24.044 92.2484 23.789 92.3237 23.5271ZM96.0819 21.8178C95.9108 21.8798 95.6301 22.0728 95.459 22.2451C95.2468 22.4519 95.0893 22.6931 94.9935 22.955C94.9045 23.2031 94.8497 23.4995 94.8566 23.7476C94.8566 23.9682 94.9113 24.2921 94.9729 24.4713C95.0346 24.6505 95.2125 24.9469 95.3631 25.1261C95.5206 25.3053 95.767 25.5121 95.9108 25.581C96.0614 25.6568 96.3557 25.7395 96.5611 25.7671C96.787 25.8015 97.0745 25.8015 97.2799 25.7602C97.4647 25.7188 97.7112 25.643 97.8275 25.5948C97.9371 25.5396 98.163 25.3604 98.3273 25.195C98.4984 25.0227 98.6764 24.7539 98.7517 24.5402C98.8338 24.3197 98.8886 24.0095 98.8886 23.7338C98.8886 23.4375 98.8338 23.1549 98.7448 22.9205C98.6695 22.7207 98.4915 22.4381 98.3546 22.2933C98.2109 22.1486 97.9781 21.9625 97.8275 21.8867C97.6222 21.7833 97.3963 21.7351 96.9718 21.7213C96.5543 21.7075 96.301 21.7351 96.0819 21.8178ZM96.3626 22.6793C96.5269 22.5966 96.7596 22.5277 96.8828 22.5277C97.0061 22.5277 97.232 22.5897 97.3826 22.6655C97.5948 22.7689 97.6906 22.8861 97.8344 23.1962C98.0055 23.5684 98.0123 23.6167 97.9439 23.9751C97.896 24.1818 97.807 24.43 97.7385 24.5265C97.6701 24.6161 97.5058 24.747 97.3757 24.8159C97.2457 24.8849 97.0198 24.94 96.8692 24.94C96.7186 24.94 96.4858 24.8849 96.3557 24.8159C96.2188 24.747 96.0477 24.5747 95.9655 24.4231C95.8766 24.2714 95.7944 24.0095 95.7739 23.851C95.7533 23.6374 95.7807 23.465 95.9039 23.1962C96.034 22.9137 96.1298 22.8034 96.3626 22.6793ZM105.871 21.742C105.816 21.7626 105.645 21.8384 105.495 21.9074C105.344 21.9694 105.097 22.1624 104.947 22.3278C104.803 22.4932 104.632 22.7345 104.577 22.8723C104.516 23.0239 104.475 23.3341 104.475 23.7338C104.475 24.2508 104.502 24.4093 104.639 24.6919C104.735 24.878 104.947 25.1606 105.118 25.3122C105.303 25.4776 105.57 25.6292 105.768 25.6913C105.953 25.7464 106.295 25.7878 106.521 25.7878C106.795 25.7809 107.048 25.7257 107.302 25.6155C107.507 25.5259 107.795 25.3191 107.952 25.1468C108.109 24.9745 108.287 24.7126 108.342 24.5609C108.397 24.3955 108.431 24.044 108.431 23.6994C108.424 23.3479 108.383 23.0101 108.322 22.8723C108.267 22.7345 108.103 22.4932 107.952 22.3278C107.801 22.1693 107.562 21.9694 107.411 21.8867C107.213 21.7833 106.98 21.7351 106.556 21.7213C106.234 21.7075 105.926 21.7213 105.871 21.742ZM105.994 22.6448C106.131 22.5828 106.336 22.5277 106.453 22.5277C106.562 22.5277 106.781 22.5897 106.932 22.6655C107.083 22.7413 107.267 22.8861 107.343 22.9895C107.452 23.1411 107.48 23.2858 107.48 23.7338C107.48 24.237 107.459 24.3197 107.288 24.5471C107.172 24.7057 107.007 24.8297 106.843 24.878C106.706 24.9193 106.467 24.94 106.316 24.9262C106.165 24.9055 105.946 24.8297 105.837 24.7539C105.72 24.6781 105.57 24.492 105.501 24.3473C105.406 24.1405 105.378 23.9682 105.399 23.6236C105.419 23.2927 105.467 23.1273 105.583 22.9688C105.666 22.8585 105.85 22.7138 105.994 22.6448ZM114.154 21.8729C113.949 21.9694 113.689 22.1348 113.579 22.2382C113.476 22.3416 113.305 22.5759 113.203 22.7689C113.045 23.0653 113.025 23.1962 113.025 23.7338C113.025 24.2646 113.052 24.4024 113.203 24.6988C113.298 24.8849 113.517 25.1675 113.689 25.3191C113.867 25.4776 114.134 25.6361 114.325 25.6913C114.517 25.7464 114.818 25.7947 115.01 25.7947C115.195 25.7947 115.503 25.7464 115.694 25.6982C115.948 25.6223 116.132 25.5052 116.42 25.2157C116.68 24.9538 116.831 24.7263 116.913 24.492C116.974 24.299 117.029 23.9613 117.029 23.7338C117.029 23.5064 116.981 23.1756 116.927 23.0101C116.872 22.8378 116.68 22.5346 116.502 22.3278C116.262 22.0659 116.071 21.928 115.811 21.8316C115.592 21.7488 115.277 21.7006 114.989 21.7006C114.64 21.7006 114.435 21.742 114.154 21.8729ZM114.476 22.6793C114.62 22.5966 114.845 22.5277 114.976 22.5277C115.106 22.5208 115.352 22.5897 115.516 22.6793C115.729 22.7896 115.865 22.9274 115.982 23.148C116.112 23.403 116.139 23.5202 116.105 23.8372C116.085 24.0785 116.009 24.3059 115.9 24.4713C115.804 24.6161 115.612 24.7815 115.468 24.8435C115.311 24.9124 115.092 24.94 114.907 24.9262C114.736 24.9124 114.51 24.8435 114.407 24.7815C114.305 24.7126 114.154 24.5265 114.072 24.3679C113.983 24.1956 113.928 23.9406 113.921 23.7338C113.921 23.4995 113.969 23.2996 114.072 23.1135C114.154 22.9619 114.339 22.7689 114.476 22.6793ZM118.412 21.8316C118.289 21.9005 118.124 22.0452 118.049 22.1555C117.974 22.2658 117.878 22.4588 117.837 22.5966C117.782 22.7689 117.782 22.9068 117.837 23.1135C117.878 23.2652 118.015 23.4857 118.138 23.6029C118.261 23.727 118.535 23.8924 118.741 23.9751C118.946 24.0578 119.172 24.175 119.24 24.237C119.302 24.299 119.357 24.4438 119.357 24.5609C119.357 24.6781 119.302 24.8228 119.22 24.9055C119.103 25.0158 119.021 25.0296 118.823 24.9883C118.672 24.9607 118.508 24.8711 118.433 24.7677C118.357 24.6712 118.248 24.5954 118.193 24.5885C118.138 24.5885 118.001 24.6505 117.899 24.7263C117.796 24.8022 117.714 24.9193 117.714 24.9883C117.714 25.0572 117.796 25.2019 117.899 25.3191C118.001 25.4363 118.2 25.5879 118.33 25.6568C118.474 25.7395 118.713 25.7878 118.946 25.7878C119.179 25.7878 119.425 25.7395 119.589 25.6568C119.74 25.581 119.945 25.4018 120.055 25.2502C120.164 25.0916 120.267 24.8366 120.288 24.6643C120.308 24.492 120.294 24.2439 120.253 24.1129C120.219 23.9751 120.096 23.7821 119.993 23.6787C119.884 23.5753 119.569 23.3754 119.288 23.2307C118.932 23.0584 118.768 22.9274 118.754 22.8378C118.741 22.762 118.782 22.638 118.836 22.5621C118.905 22.4588 119.001 22.4243 119.192 22.4381C119.343 22.445 119.507 22.5001 119.562 22.5552C119.617 22.6104 119.699 22.6586 119.747 22.6586C119.795 22.6586 119.897 22.569 119.973 22.4588C120.048 22.3416 120.11 22.2037 120.11 22.1486C120.11 22.0866 119.952 21.9625 119.767 21.8729C119.521 21.7488 119.316 21.7006 119.028 21.7006C118.768 21.7006 118.563 21.7419 118.412 21.8316ZM67.4677 21.8109C67.3855 21.8384 67.3718 22.1417 67.3855 23.7338C67.3924 25.3467 67.4129 25.6292 67.5019 25.6637C67.5567 25.6775 67.7004 25.6982 67.8236 25.6913C67.9469 25.6913 68.0975 25.6637 68.1522 25.6292C68.2275 25.581 68.2618 25.388 68.2891 24.9262L68.3234 24.2852C69.0832 24.2232 69.2954 24.1681 69.4187 24.0785C69.5213 24.0026 69.6719 23.851 69.7541 23.7407C69.8704 23.5822 69.8978 23.4513 69.8978 23.017C69.8978 22.5966 69.8704 22.4519 69.7541 22.2864C69.6719 22.1693 69.4871 22.0176 69.3433 21.9487C69.138 21.8453 68.8847 21.8109 68.3234 21.7902C67.9058 21.7764 67.5224 21.7833 67.4677 21.8109ZM68.2891 22.5277H68.5287C68.6725 22.5277 68.8162 22.5759 68.9052 22.6655C68.9805 22.7413 69.0421 22.8723 69.0421 22.955C69.0421 23.0377 69.0148 23.1825 68.9874 23.2721C68.9532 23.3754 68.8573 23.4513 68.6999 23.4926C68.5698 23.5271 68.4192 23.5615 68.3713 23.5615C68.3097 23.5615 68.2891 23.4099 68.2891 23.0446V22.5277ZM74.4159 21.8729C74.32 21.9694 74.2995 22.1555 74.3063 23.148C74.3063 23.789 74.3474 24.4782 74.3885 24.6781C74.4501 24.9469 74.5459 25.1192 74.7513 25.3398C74.9019 25.4983 75.1415 25.6706 75.2716 25.712C75.4016 25.7533 75.696 25.7878 75.9219 25.7878C76.1478 25.7878 76.4353 25.7326 76.5722 25.6706C76.7023 25.6086 76.8939 25.4776 76.9898 25.3673C77.0925 25.2639 77.2225 25.0296 77.2841 24.8504C77.3663 24.5954 77.3937 24.2301 77.3937 23.1825C77.3937 22.0452 77.3731 21.8316 77.291 21.804C77.2362 21.7833 77.0788 21.7695 76.9487 21.7695C76.8255 21.7695 76.668 21.8109 76.6064 21.8729C76.5174 21.9556 76.5038 22.1762 76.5038 23.1825C76.5038 24.1198 76.4764 24.4438 76.3942 24.6436C76.3395 24.7884 76.2505 24.9262 76.2094 24.9538C76.1615 24.9814 76.0177 25.0089 75.8877 25.0089C75.7576 25.0089 75.5728 24.9538 75.4838 24.8918C75.3674 24.7953 75.3058 24.6643 75.2647 24.3886C75.2373 24.175 75.2099 23.5202 75.2099 22.9205C75.2031 22.0176 75.1826 21.8316 75.1004 21.804C75.0457 21.7833 74.8882 21.7695 74.7581 21.7695C74.6349 21.7695 74.4775 21.8178 74.4159 21.8729ZM78.4547 21.8729C78.352 21.9694 78.3383 22.1968 78.3452 23.7338C78.352 25.195 78.3657 25.5052 78.4547 25.5948C78.53 25.6706 78.7354 25.6982 79.3378 25.6982C79.9402 25.6982 80.1456 25.6706 80.2277 25.5948C80.2893 25.5327 80.3372 25.4087 80.3372 25.3191C80.3372 25.2226 80.3235 25.0985 80.303 25.0434C80.2756 24.9607 80.1524 24.94 79.7554 24.94H79.242C79.242 22.0659 79.2283 21.8316 79.1393 21.804C79.0845 21.7833 78.9271 21.7695 78.797 21.7695C78.6738 21.7695 78.5163 21.8178 78.4547 21.8729ZM101.558 21.8109C101.49 21.8384 101.462 21.9418 101.476 22.1831L101.49 22.5277H102.243C102.243 25.2295 102.257 25.5052 102.346 25.5948C102.4 25.6499 102.558 25.6982 102.688 25.6982C102.818 25.6982 102.975 25.6775 103.03 25.6637C103.119 25.6292 103.133 25.3949 103.133 24.0785V22.5277C103.783 22.5277 103.893 22.5001 103.92 22.4243C103.941 22.3623 103.954 22.2382 103.954 22.1486C103.954 22.0521 103.906 21.928 103.852 21.8729C103.769 21.7902 103.544 21.7695 102.702 21.7695C102.126 21.7764 101.613 21.7902 101.558 21.8109ZM109.362 21.8109C109.28 21.8384 109.266 22.1417 109.28 23.7338C109.287 25.3467 109.307 25.6292 109.396 25.6637C109.451 25.6775 109.793 25.6982 110.149 25.6982C110.622 25.6982 110.896 25.6568 111.156 25.5603C111.368 25.4845 111.649 25.3053 111.84 25.1123C112.08 24.8849 112.196 24.7057 112.272 24.4369C112.326 24.237 112.374 23.9199 112.374 23.7338C112.374 23.5409 112.326 23.2307 112.272 23.0446C112.21 22.8516 112.066 22.5897 111.95 22.4588C111.833 22.3209 111.642 22.1555 111.525 22.0797C111.409 22.0039 111.142 21.9074 110.937 21.8591C110.731 21.8109 110.314 21.7695 110.013 21.7764C109.711 21.7764 109.417 21.7902 109.362 21.8109ZM110.184 23.7338C110.184 22.6311 110.191 22.5277 110.3 22.5277C110.369 22.5277 110.54 22.5552 110.677 22.5966C110.82 22.6311 111.026 22.7413 111.142 22.8378C111.293 22.9619 111.368 23.1066 111.43 23.403C111.491 23.7132 111.491 23.8717 111.423 24.1129C111.375 24.2783 111.252 24.5058 111.156 24.6092C111.053 24.7195 110.861 24.8366 110.731 24.8711C110.601 24.9055 110.423 24.94 110.334 24.94C110.184 24.94 110.184 24.9331 110.184 23.7338Z" fill="white"/>
</svg>
