<svg width="4496" height="494" viewBox="0 0 4496 494" fill="none" xmlns="http://www.w3.org/2000/svg">
<path fill-rule="evenodd" clip-rule="evenodd" d="M17.6 1.5C17.3 2.3 17 59.1 17 127.7C17 196.4 17.4 253 17.8 253.7C18.3 254.6 36.9 255 95.6 255.2L172.7 255.5C185.5 262.1 189.5 264.9 191.6 267.5C193.3 269.7 195.7 273.3 196.9 275.5C198 277.7 199.5 283.1 200.2 287.5C201.1 293.8 201.1 297.4 200.2 304.5C199.4 310.1 197.9 315.6 196.3 319C194.8 322 191.3 326.6 188.5 329.2C185.1 332.5 181.3 334.8 176.8 336.5C173 337.9 167.2 339.3 163.8 339.6C160.3 339.9 154.6 339.7 151 339C147.4 338.4 142.3 336.9 139.5 335.8C136.8 334.6 132.6 331.8 130.2 329.6C127.9 327.3 124.7 322.8 123.1 319.5C120.8 314.8 120 311.4 119.4 304C118.9 298.5 118 294 117.3 293.2C116.3 292.3 103.4 292 59.6 292C10.8 292 2.9 292.2 1.6 293.5C0.4 294.6 0 297 0 303.2C0 307.8 0.5 315.5 1 320.5C1.6 325.4 3.4 335.1 5.1 342C6.7 348.9 9.9 358.5 12.1 363.5C14.4 368.4 17.4 374.4 18.8 376.8C20.3 379.2 23.6 383.9 26.2 387.3L30.9 393.5C24.2 400.5 20.7 404.5 18.8 407C17 409.5 13.6 415.1 11.3 419.5C9.1 423.9 6 431.3 4.5 436C3 440.8 1.6 448 1.3 452.5C0.9 458.4 1.1 461.8 2.3 465.5C3.2 468.2 5.3 471.8 7 473.5C10 476.3 10.6 476.5 18.3 476.5C23.9 476.5 27.6 475.9 30 474.8C31.9 473.8 36.3 470.6 39.8 467.5L46 462C46 472.8 46.7 475.9 48.5 479.7C50.1 483.2 52 485.5 54 486.5C55.6 487.3 58.5 488 60.3 488C62 488 65.8 486.7 68.5 485.1C71.3 483.6 76.6 479 80.3 474.9C84.1 470.8 89.8 463.7 92.9 459L98.7 450.5C99.4 460.6 100.2 464.8 101 466.5C101.8 468.1 104.1 470.5 106 471.8C108.4 473.4 110.3 473.9 112 473.5C113.4 473.2 115.1 472.1 115.8 471.2C116.7 470 116.9 467.9 116.5 464C116 459.6 116.3 457.4 118.1 453C119.3 450 121.9 445 123.8 442C125.7 439 129.7 433.6 132.6 430C135.4 426.4 140.4 421 143.6 418C146.9 414.9 151.4 411 153.8 409.2C156.1 407.4 158 406.2 158 406.5C158 406.8 155.5 411.8 152.5 417.7C149.4 423.7 145.8 432.1 144.4 436.5C142.4 442.9 141.9 446.6 141.8 455C141.8 463.7 142.1 465.9 143.7 467.9C144.7 469.2 147.1 471.1 149 472.2C151.6 473.6 154 474 158.1 473.8C162.3 473.6 164.7 472.8 168 470.5C170.4 468.8 174.2 465.7 176.5 463.5C178.7 461.3 181.4 458.2 182.5 456.7L184.5 454C184.5 465.2 184.9 469.7 185.3 471.2C185.7 472.9 187.5 475 189.8 476.3C191.8 477.6 195.8 479.3 198.5 479.9C202.5 480.9 204.6 480.9 209 480C212 479.3 217.2 477.3 220.5 475.6C224.3 473.6 229.9 469.1 236.1 463C241.3 457.8 246.2 452.1 246.8 450.5C248 447.6 248.3 447.5 256.8 446.7C261.6 446.3 266.5 445.7 267.8 445.5C269.8 445 270 445.4 270 448.7C270 452.5 270 452.5 263.8 454.3C260.1 455.3 255.8 457.4 253.5 459.3C250.2 462.1 249.2 463.8 247.6 469.6C245.7 476.4 245.7 476.6 247.6 482C249 486 250.4 488.1 253 489.7C254.9 491 258.3 492.3 260.5 492.6C263.1 493 266.4 492.6 270 491.4C273.5 490.3 276.8 488.3 279 485.9C280.9 483.9 283.8 479.5 285.5 476.2L288.5 470.1C293.1 473 298.8 475.7 304 478.1C309.2 480.4 314.8 482.7 316.5 483.1C318.1 483.5 323.3 485 328 486.4C332.7 487.9 343.5 490 352 491.2C363.7 492.8 372.4 493.3 387.5 493.3C403.4 493.4 410.3 492.9 421 491.2C428.4 489.9 439 487.6 444.5 485.9C450 484.2 458.7 481.1 463.8 478.9C468.8 476.8 476.3 473.1 480.3 470.7C484.2 468.3 490.9 463.9 495 460.8C499.1 457.7 505 452.8 508.1 449.9C511.2 446.9 515.7 442 518.2 439C520.8 436 524.5 431 526.5 428C528.5 425 531.9 419.1 534 415C536.2 410.9 539.5 403 541.5 397.5C543.4 392 546 381.9 547.2 375C548.7 366 549.3 358 549.4 346.5C549.4 335.6 548.9 326.7 547.6 318.5C546.6 311.9 544.9 303.8 543.9 300.5C542.9 297.2 541 291.6 539.7 288C538.4 284.4 535.4 278.1 533.1 274C530.8 269.9 528 265.6 526.9 264.5C525.9 263.4 525 262.2 525 261.7C525 261.3 522.9 258.6 520.4 255.7C517.8 252.9 513 248.1 509.6 245.2C506.3 242.2 499.7 237.5 495 234.6C490.3 231.8 482.7 227.8 478 225.8C473.3 223.8 463.4 220.6 456 218.6C448.6 216.7 439.1 214.6 435 214C430.9 213.4 412.8 212.6 394.7 212.2L362 211.5V161C525.4 161 536.1 160.8 536.5 159.5C536.8 158.7 537 135.3 537 107.5C537 63.9 536.8 56.8 535.5 55.5C534.2 54.2 520.1 54 420.5 54H307V0C35.1 0 18.1 0.2 17.6 1.5ZM25 8H299V99H212C135.6 99 124.9 99.2 124.5 100.5C124.2 101.3 124 115.5 124 132C124 148.5 124.2 162.7 124.5 163.5C124.9 164.8 128.7 165 149.7 165C163.4 165.1 179.2 165.5 185 166C190.8 166.5 200.4 167.7 206.5 168.6C212.5 169.5 222.7 171.7 229 173.6C235.3 175.5 244.3 178.9 249 181.2C253.7 183.4 260.6 187.3 264.5 189.8C268.3 192.3 275.5 198.4 280.5 203.4C286.1 209.1 291.3 215.6 294.2 220.5C296.8 224.9 300.5 232.3 302.4 237C304.3 241.7 307.1 250.9 308.6 257.5C311.2 268.7 311.4 271 311.5 291.5C311.5 313.3 311.5 313.6 308.1 327C306.2 334.4 302.8 344.8 300.5 350C298.2 355.2 294 363.1 291.2 367.5C287.8 372.6 284.7 376.2 282.4 377.5C280.5 378.6 277.6 381.1 276.1 383C274.6 384.9 272.6 387.8 271.8 389.5C271 391.1 269.5 395.4 268.5 399C267.3 403.8 266.9 407.9 267.3 414.5C267.6 419.4 268.3 426.9 268.9 431C269.5 435.1 269.9 438.6 269.8 438.8C269.6 438.9 265.7 439.3 261 439.7C252.9 440.3 252.5 440.3 253.3 438.4C253.8 437.4 255.1 432 256.2 426.5C257.6 419.6 258 414.7 257.6 410.7C257.3 407.6 256.1 402.6 255 399.7C253.9 396.8 251.4 392.9 249.3 390.9C247.2 388.9 244.1 386.6 242.5 385.8C240.8 385 237.2 383.7 234.5 382.9C231.7 382.2 227 381.6 224 381.5C221 381.5 215.8 382.2 212.6 383C208.3 384.1 205.3 385.7 202.1 388.6C199.6 390.8 196.3 395.1 194.7 398.1C192.5 402.4 192 404.8 192 410C192 413.6 192.5 417.8 193.1 419.5C194.1 422.3 193.8 423.2 188.9 431.5C185.9 436.4 181.6 443.2 179.4 446.5C177.1 449.8 172.5 455.3 169.1 458.7C165.7 462.3 162.1 465 161 465C159.3 465 159 464.3 159 460.7C159 458.4 160 453.3 161.3 449.5C162.6 445.6 166 438 168.8 432.5C171.6 427 176.1 419.1 178.7 415C181.7 410.3 184.1 405.2 184.9 401.5C186.2 395.9 186.2 395.2 184.3 392C183.3 390.1 181.3 387.9 179.9 387.2C178.5 386.4 175.7 386.1 173 386.4C170.5 386.7 165.8 388.3 162.5 390.1C159.2 391.8 154 395.2 151 397.5C148 399.9 142.3 405.1 138.3 409.1C134.4 413.2 130.2 417.6 129.1 419C128 420.4 127.1 421.2 127 420.7C127 420.3 128.6 417.2 130.6 413.7C132.5 410.3 134.5 406.8 135 406C135.6 405.2 137.2 402.2 138.6 399.5C140.3 396.3 141.3 392.8 141.4 389.7C141.5 385.9 141.1 384.5 139.5 383.4C138.4 382.6 135.9 382 134 382C132 381.9 129 382.9 127 384.3C125.1 385.5 122 388.8 120.2 391.5C118.3 394.3 114.9 400.5 112.5 405.5C110.2 410.4 107.1 417 105.6 420C104.2 423 101.8 427.6 100.3 430.1C98.7 432.7 96 437.4 94.1 440.6C92.2 443.9 87.9 450.5 84.6 455.5C81.2 460.4 75.8 467.3 72.5 470.8C68.9 474.6 65.9 477 65 476.7C63.9 476.4 63.5 475 63.7 471.4C63.7 468.5 65.3 462.7 67.5 457C69.5 451.8 72.2 445.5 73.5 443C74.8 440.5 77.6 434.8 79.9 430.2C83.4 423.2 84 421.1 84 415.7C84 411.2 83.5 409 82.2 407.7C81.2 406.6 79.1 405.9 73 406V401.5C73 399 72.1 395.2 71 393C69.9 390.8 67.5 388 65.7 386.7C63 384.9 61.2 384.5 54.5 384.5C48.2 384.5 45.6 385 38.5 388.9L36 386.2C34.6 384.7 32 381.6 30.2 379.2C28.4 376.9 27 374.8 27 374.5C27 374.2 25.9 372.3 24.5 370.2C23.1 368.2 20.2 362 18 356.5C15.9 351 13.2 341.8 12 336C10.8 330.2 9.5 321 9 315.5C8.5 310 8.1 304.3 8 300H111V303C111 304.6 111.7 309.3 112.5 313.2C113.4 317.2 115.1 322.5 116.3 325C117.5 327.5 121 332 124 335C127.8 338.8 131.6 341.3 136 343.2C139.7 344.7 146.3 346.3 151.5 347C157.9 347.8 162.6 347.8 167.7 347C171.7 346.5 178 344.8 181.6 343.2C185.4 341.7 190.5 338.5 193.4 335.9C196.2 333.3 200 328.8 201.7 325.9C203.5 322.9 205.9 316.9 207 312.5C208.3 307.5 209 301.3 209 296C209 291.3 208.3 284.8 207.5 281.5C206.6 278.2 204.9 273.2 203.6 270.5C202.4 267.7 199.3 263.5 196.9 261C194.5 258.5 189.8 255.1 186.5 253.3C182.7 251.3 177.3 249.5 172 248.5C164.9 247.3 152 247 25 247V127.5V8ZM307 62H528V153H442.2C395.1 153 355.9 153.4 355.3 153.8C354.3 154.3 354.1 162 354.5 219.5L392 220.1C420.5 220.6 431.2 221.1 436.5 222.3C440.3 223.2 447.5 224.8 452.5 226C457.4 227.2 465.5 229.8 470.5 231.7C475.4 233.6 482.6 237 486.5 239.2C490.3 241.4 496 245 499 247.3C502 249.6 507 254 510 257C513 260.1 517.6 265.5 520.1 269.1C522.7 272.6 526.4 278.9 528.5 283C530.6 287.1 533.5 294.5 535 299.5C536.5 304.4 538.4 311.2 539.1 314.5C540.1 318.8 540.5 327.9 540.4 346.5C540.4 371.5 540.3 372.9 537.7 382.2C536.2 387.6 533.7 395.5 532 399.7C530.4 404 526.7 411.5 523.9 416.5C521 421.4 516.1 428.6 513 432.5C509.8 436.3 504.8 441.8 501.9 444.6C498.9 447.3 493.1 452.1 489 455.1C484.9 458.2 478.3 462.4 474.5 464.6C470.6 466.7 464.1 470 460 471.8C455.9 473.6 448 476.4 442.5 478C437 479.6 429.1 481.7 425 482.5C420 483.6 410.3 484.3 395.5 484.7C383.4 485 367.9 484.8 361 484.2C353.2 483.6 343 481.8 334 479.6C326 477.7 315.4 474.3 310.5 472.2C305.5 470 298.9 466.9 295.7 465.1C290.2 462.1 290 461.9 290 457.7C289.9 454.2 290.4 453.3 292.5 452.2C293.9 451.6 299.3 448.2 304.5 444.7C309.8 441.3 314.3 437.7 314.5 436.7C314.8 435.8 314.5 434.3 314 433.5C313.1 432.2 312.3 432.4 308.2 434.7C305.6 436.2 300.6 438.8 290.5 443.8L290.2 440.2C290.1 438.1 289 430.9 287.8 424C286.6 417.1 285.6 407.4 285.6 402.5C285.6 395.3 286 392.6 287.7 389C288.9 386.5 290.7 384.2 291.7 383.9C292.7 383.5 294.2 383.6 295 384.1C296.1 384.7 296.4 386 296 389.2C295.6 391.8 294.3 395 292.5 397.4C290.8 399.5 288.9 402.1 288.2 403.1C287.2 404.7 287.3 405.3 289 407C290.8 408.8 291.3 408.9 293.7 407.6C295.3 406.8 297.5 405.1 298.6 403.8C299.8 402.6 301.5 400 302.4 398.2C303.3 396.5 304.2 392.6 304.5 389.7C304.9 386.4 304.6 383.6 303.8 382C303.1 380.7 301.1 378.7 296.2 375.5L298.6 371.5C299.9 369.3 302.4 364.7 307.5 355H341V359.7C341 362.4 341.7 367 342.6 370C343.5 373 345.3 377.6 346.6 380.2C347.9 382.9 350.6 386.6 352.5 388.5C354.4 390.4 357.7 393.1 359.7 394.4C361.8 395.7 366.9 397.8 371 399.1C376.7 400.8 380.9 401.4 388.5 401.4C396.1 401.4 400.3 400.9 406 399.2C410.1 397.9 415.9 395.2 418.9 393.2C421.8 391.2 425.7 387.7 427.5 385.5C429.2 383.3 431.5 379.9 432.5 378C433.5 376.1 435.2 372 436.2 369C437.3 366 438.4 359.4 438.7 354.5C439.1 349 438.8 343 438.1 339C437.4 335.4 435.4 329.3 433.5 325.5C431.3 320.7 428.5 317 424.9 313.6C421.9 310.9 417.1 307.6 414.2 306.3C411.4 305.1 406.2 303.3 402.7 302.5C397.8 301.3 388.6 301 320.5 301L319.7 283.8C319.3 274.3 318.3 263.3 317.5 259.5C316.8 255.6 314.9 248.2 313.3 243C311.6 237.8 308.8 230.3 307 226.5C305.1 222.6 301.6 216.3 299.1 212.5C296.6 208.6 290.7 201.7 286 197C281.3 192.3 274.8 186.6 271.5 184.4C268.2 182.1 263.1 179.1 255 175V107H307V84.5V62ZM133 107H247V139C247 169 246.9 171 245.2 170.4C244.3 170.1 239.9 168.6 235.5 167C231.1 165.5 221.2 163.1 213.5 161.7C205.8 160.2 193.4 158.6 186 158C178.6 157.5 163.6 157 133 157V132V107ZM319 309H357.2C393 309 396 309.1 403 311.1C407.1 312.2 412.3 314.4 414.5 315.9C416.7 317.4 420.1 320.7 422.2 323.1C424.2 325.5 426.8 330.4 428.1 334C429.8 338.9 430.4 342.8 430.4 350C430.4 356.9 429.8 361.4 428.3 366.5C427.1 370.3 424.5 375.7 422.5 378.5C420.4 381.2 416.5 385.1 413.6 387C410.8 388.9 406 391 403 391.7C400 392.4 393.9 393 389.5 393C385.1 393 378.8 392.5 375.5 391.8C372.2 391.2 367.3 389.3 364.6 387.6C361.9 385.9 358.5 382.9 357 381C355.6 379.1 353.4 375.2 352.3 372.5C351.1 369.7 349.7 364.8 349.1 361.5C348.5 358.2 348 353.6 348 347H329.5C319.3 347 311 346.8 311 346.5C311 346.2 312.2 342.3 313.6 337.7C315.1 333.2 316.8 326.6 317.6 323C318.3 319.4 319 314.8 319 312.7V309ZM214.1 389.4C216 388.7 219.5 388.2 222 388.1C224.9 388.1 227.9 388.9 230.4 390.3C232.6 391.5 235.8 394.3 237.5 396.5C239.7 399.4 240.8 402.2 241.4 406C241.8 409.1 241.8 413.8 241.5 416.5C241.1 419.3 239.6 425 238.2 429.3C236.7 433.6 235 437.1 234.5 437C233.9 437 230.3 436.2 226.5 435.2C222.3 434.1 219.4 432.8 219.2 432C219.1 431.2 220.8 428.1 223 425C225.3 422 228.2 417.2 229.6 414.3C230.9 411.4 232 407.8 232 406.3C232 404.8 231.3 402.5 230.5 401.3C229.3 399.6 228 399 225 399C222.8 399 219.7 399.7 218.2 400.4C216.7 401.2 213.1 404.4 210.2 407.4C207.3 410.5 204.5 413 204 413C203.4 413 203 411.5 203 409.5C203 407.6 203.4 404.1 204 401.8C204.6 399.5 206.3 396 207.9 394C209.5 392.1 212.3 390 214.1 389.4ZM54.8 401.4C57.8 399.9 59.7 399.4 61.3 400C62.5 400.4 63.8 401.9 64.1 403.2C64.5 404.5 64.8 407.6 64.9 410C64.9 412.8 64.2 415.9 63 418C62 420 59.6 424.5 57.8 428C56 431.6 52.3 437.9 49.5 442C46.8 446.2 40.9 453.2 36.5 457.7C32.1 462.1 26.6 466.8 24.2 467.9C20.5 469.8 19.8 469.9 18.5 468.5C17.7 467.7 17 466 17 464.8C17 463.6 17.9 459.4 18.9 455.5C19.9 451.7 22.3 445.2 24.1 441C25.9 436.9 29.3 430.4 31.7 426.5C34.1 422.7 39.3 415.9 43.3 411.5C47.3 407.1 52.5 402.6 54.8 401.4ZM209.3 446.8C212.8 440.2 213.7 439.2 215.5 439.8C216.6 440.1 220.7 441.4 231.7 444.5L228.8 449.5C227.3 452.3 223.6 457.4 220.7 461C217.8 464.5 213.3 468.9 210.7 470.7C207.8 472.8 205.2 473.9 204 473.5C202.9 473.3 201.7 472 201.4 470.8C201 469.6 201.8 465.4 203 461.5C204.2 457.7 207.1 451.1 209.3 446.8ZM260.5 466.4C262.8 464 265.4 462 266.2 462C267.3 462 267.6 462.9 267.3 465.3C267.1 467.1 266.5 470.2 266 472.3C265.4 474.4 263.9 477.3 260.2 481.5L258 479.5C256.6 478.2 256 476.5 256.1 474.2C256.2 471.7 257.4 469.6 260.5 466.4ZM734 0.7C731.5 0.9 726.6 1.5 723 2C719.4 2.5 711.1 4.5 704.5 6.4C697.9 8.3 687.8 12.1 682 14.8C676.2 17.6 667.2 22.7 662 26.1C655.8 30.2 648.4 36.4 640.9 43.9C634.5 50.3 627.1 58.9 624.3 63C621.5 67.2 617.6 73.9 615.5 78C613.4 82.2 610.2 89.6 608.4 94.5C606.7 99.5 604.2 108.7 603.1 115C601.9 121.4 600.7 131.3 600.4 137C600 142.8 600.3 151.8 600.8 157C601.4 162.3 602.8 170.8 603.8 176C604.9 181.3 606.9 188.7 608.4 192.5C609.9 196.4 613 203.6 615.4 208.5C617.9 213.5 622 220.7 624.8 224.5C627.5 228.4 633.4 235.6 638.1 240.4C642.7 245.3 650.1 252.1 654.5 255.5C658.9 258.9 665.2 263.2 668.5 265.2C671.8 267.1 678.4 270.6 683.2 272.9C688 275.2 692.4 277 693 277C693.5 277 697.9 278.4 702.7 280C707.5 281.7 716.7 283.7 723 284.5C731.7 285.7 744.3 286.1 775.2 286.1L816 286V493H869V286H968V235L868.5 235.1C869.5 208.3 870.7 196.9 871.9 190C873.1 183.7 874.7 176.5 875.5 174C876.3 171.6 877.9 166.8 879.2 163.5C880.4 160.2 883.3 154.4 885.4 150.5C887.6 146.7 890.7 141.7 892.4 139.5C894.1 137.3 898.4 132.7 902 129.2C905.6 125.7 911.9 120.9 916 118.4C920.1 116 927.6 112.7 932.7 111C937.8 109.4 946.1 107.6 951.2 107C957.8 106.2 963 106.2 969 107C973.7 107.5 982.2 109.4 988 111C994.1 112.8 1002 116 1007 118.8C1013.3 122.3 1018 126.1 1025.5 133.6C1032.7 140.8 1036.7 145.8 1039.9 151.6C1042.4 156 1045.9 164 1047.7 169.5C1049.6 175 1051.5 182.7 1052 186.5C1052.5 190.4 1052.9 198.7 1052.9 205C1052.9 211.4 1052.5 219.9 1051.9 224C1051.4 228.2 1049.6 235.6 1047.9 240.5C1046.2 245.5 1042.7 252.9 1040.2 257C1037.7 261.2 1034.1 266.5 1032.1 268.8C1030.1 271.2 1025.6 275.5 1022 278.4C1018.4 281.3 1011.9 285.5 1007.5 287.8C1003.1 290 996.6 292.8 993 293.9C986.9 295.9 984.2 296 953.3 296C925.2 296 919.9 296.3 918.6 297.5C917.2 298.8 917 302.4 917 321.8C917 334.3 917.3 345.1 917.7 345.8C918.3 346.8 956.3 347 1100 346.8L1281.5 346.5C1298.5 341.4 1307.1 337.9 1311.5 335.6C1316.2 333 1322.1 328.7 1326 324.9C1329.6 321.4 1334.1 316.3 1335.9 313.5C1337.7 310.8 1339.8 307.4 1340.5 306C1341.2 304.7 1343 299.9 1344.3 295.5C1345.7 291.1 1347.4 283.7 1348.1 279C1348.8 274.1 1349 267.2 1348.6 262.5C1348.3 258.1 1347.3 252.3 1346.5 249.5C1345.8 246.8 1344.4 242.5 1343.5 240C1342.6 237.6 1340.8 233.9 1339.7 231.8C1338.5 229.7 1337.1 228 1336.7 228C1336.3 228 1336 227.5 1336 226.8C1336 226.1 1333 222.4 1329.3 218.5C1325.5 214.7 1319.8 209.7 1316.5 207.4C1313.2 205.1 1307.1 201.5 1303 199.2C1298.9 197 1290.5 193.2 1284.5 190.8C1278.4 188.4 1267.4 184.5 1260 182.3C1252.6 180 1240.6 176.5 1233.5 174.5C1226.3 172.5 1214.9 169 1208 166.8C1201.1 164.6 1192.1 161.1 1188 159C1183.9 156.9 1178.6 153.4 1176.4 151.3C1174.1 149.3 1171.7 146 1170.9 144C1170.2 142.1 1169.7 138.3 1169.8 135.5C1169.9 132.8 1170.6 128.5 1171.5 126C1172.4 123.4 1174.3 120.5 1176.2 118.9C1178 117.5 1181.6 115.6 1184.2 114.7C1188.5 113.2 1197.2 113 1264.5 113C1306 113 1340.7 112.8 1341.5 112.5C1342.8 112.1 1343 108.4 1343 87V62C1339.5 61.2 1306.1 61.1 1266.5 61.4C1206 61.7 1192.8 62 1184 63.4C1178.2 64.3 1170.6 66 1167 67.2C1163.4 68.4 1157.8 70.5 1154.5 72C1151.2 73.5 1145.8 76.5 1142.5 78.7C1139.2 80.9 1133.9 85.6 1130.8 89.1C1127.7 92.7 1123.6 98.7 1121.6 102.5C1119.7 106.4 1117.4 112.2 1116.5 115.5C1115.6 118.8 1114.5 125.6 1114 130.5C1113.5 135.5 1113.3 141.3 1113.6 143.5C1113.9 145.7 1114.6 150.5 1115.1 154C1115.8 157.9 1117.9 164 1120.3 169C1123.1 174.7 1126.6 179.8 1131.1 184.5C1134.7 188.4 1141.1 193.9 1145.3 196.8C1149.5 199.7 1157.1 204.1 1162.2 206.7C1167.3 209.2 1173.7 212.1 1176.5 213.1C1179.2 214 1184.6 215.9 1188.5 217.4C1192.3 218.8 1200.7 221.5 1207 223.4C1213.3 225.3 1224.1 228.5 1231 230.5C1237.9 232.5 1245.7 234.8 1248.5 235.7C1251.2 236.6 1257.5 238.9 1262.5 240.8C1267.4 242.8 1274 245.8 1277 247.6C1280 249.3 1284.4 253 1286.8 255.7C1289.2 258.4 1291.6 262.3 1292.1 264.5C1292.7 266.7 1292.9 271 1292.5 274C1292.2 277.1 1290.8 281.3 1289.5 283.5C1288.2 285.7 1286.1 288.5 1284.8 289.7C1283.5 290.9 1280.2 292.7 1277.5 293.7C1272.8 295.4 1267.1 295.6 1175.7 295.8C1111.7 296 1079 295.7 1079 295C1079 294.5 1080 292.8 1081.3 291.3C1082.7 289.8 1085.6 285.4 1088 281.5C1090.4 277.7 1094 270.5 1096 265.5C1098.1 260.6 1100.9 252 1102.3 246.5C1103.7 241 1105.3 233.3 1105.9 229.3C1106.5 225.3 1107 216.8 1107 210.3C1106.9 203.8 1106.5 195.2 1106 191C1105.5 186.9 1104.1 179 1102.9 173.5C1101.7 168 1099.7 160.4 1098.4 156.5C1097.2 152.7 1095.4 147.6 1094.5 145.3C1093.7 143 1091.2 137.4 1089 133C1086.8 128.6 1082.2 120.9 1078.7 115.9C1075.3 110.8 1069.3 103.3 1065.5 99.2C1061.6 95.1 1055.6 89.4 1052 86.6C1048.4 83.7 1042.9 79.7 1039.7 77.7C1036.6 75.7 1030.5 72.3 1026.2 70.2C1022 68.1 1013.3 64.7 1007 62.7C1000.7 60.7 992.3 58.5 988.5 57.8C984.1 57 973.1 56.6 959 56.6C944.2 56.6 934.4 57 930.5 57.9C927.2 58.6 919.8 60.7 914 62.5C908.2 64.3 899.8 67.6 895.2 69.9C890.7 72.2 883.9 76 880.2 78.4C876.5 80.8 869.5 86.3 864.5 90.6C859.6 95 852.5 102.6 848.8 107.5C845 112.5 840 119.9 837.6 124C835.2 128.2 831.8 134.9 830 139C828.2 143.2 825.2 151.5 823.4 157.5C821.5 163.6 819.2 172.6 818.4 177.5C817.3 183.5 816.6 194.7 816.4 210.8L816 235C742.2 235 737.7 234.8 730.5 233.1C726.1 232 719.8 230.2 716.5 229C713.2 227.8 707.3 225.2 703.5 223.3C699.6 221.3 694.7 218.3 692.5 216.6C690.3 215 685.6 210.9 682.1 207.6C678.7 204.3 674 198.8 671.7 195.5C669.5 192.2 666.1 186.4 664.3 182.5C662.5 178.7 660 171.3 658.8 166C657.2 159 656.7 153.2 656.7 143.5C656.7 133.9 657.2 128.1 658.8 121C660 115.8 662.5 108.4 664.3 104.5C666.1 100.7 669.3 95.1 671.4 92C673.5 89 677.1 84.5 679.4 82C681.8 79.6 685 76.4 686.6 75C688.2 73.5 692.6 70.4 696.5 67.9C700.3 65.5 707.3 61.8 712 59.9C716.7 57.9 722.1 56 724 55.7C725.9 55.4 730.6 54.5 734.5 53.6C739.7 52.5 747.7 52.1 766.2 52.1C779.8 52.1 791.7 51.8 792.5 51.5C793.8 51.1 794 47.4 794 26C794 4.7 793.8 1 792.5 0.5C791.7 0.3 779.2 0.1 764.7 0.2C750.3 0.3 736.5 0.6 734 0.7ZM2578.5 60.9C2576.3 61.9 2572.9 64.5 2571 66.8C2569.1 69 2566.9 72.9 2566.2 75.4C2565.5 78 2565 81.8 2565 84C2565 86.6667 2565.5 88.1667 2566.5 88.5C2567.3 88.8 2570.5 89 2573.5 89C2576.5 89 2579.7 88.7 2580.6 88.3C2581.5 87.9 2582.7 86.5 2583.1 85.3C2583.6 84.1 2584.8 82.8 2585.7 82.4C2586.7 82 2591.3 82.8 2596 84C2600.7 85.3 2607.4 86.9 2611 87.7C2616.1 88.9 2618.7 89 2623 88.1C2626.7 87.4 2629.8 86 2632.5 83.7C2634.8 81.8 2637.4 78.2 2638.7 75.2C2640 72.4 2641.3 68 2641.7 65.5C2642.3 61.9 2642.2 60.7 2641 60C2640.2 59.5 2636.3 59.1 2632.5 59.1C2625.8 59.1 2625.4 59.2 2622.5 62.5C2620.6 64.7 2618.5 66 2617 66C2615.6 66 2608.9 64.5 2602 62.5C2595.1 60.6 2587.9 59 2586 59.1C2584.1 59.1 2580.7 59.9 2578.5 60.9ZM2477.5 98.7C2473.6 99.6 2468.2 101.4 2465.5 102.8C2462.7 104.2 2458.5 107.4 2456 110C2453.5 112.5 2450.3 116.8 2448.8 119.5C2447.2 122.7 2445.8 127.7 2445 133C2444.1 139.6 2444.1 143.1 2445 148.5C2445.7 152.4 2447 157.1 2448 159C2449 161 2451.8 164.5 2454.4 166.8C2456.9 169.1 2461.1 172.1 2463.7 173.4C2466.3 174.8 2470.5 176.4 2473 177C2475.5 177.7 2481.3 179.8 2486 181.7C2491 183.7 2495.4 186.3 2496.7 187.9C2498.23 189.7 2499 191.9 2499 194.5C2499 197.6 2498.3 199.3 2496 201.8C2494.3 203.6 2491.7 205.3 2490.2 205.7C2488.7 206 2484.6 206.1 2481 205.9C2476.6 205.7 2472.7 204.6 2469 202.9C2466 201.4 2461.7 198.8 2459.5 197.1C2457.3 195.4 2454.9 194.1 2454.1 194.2C2453.3 194.4 2449.6 200.4 2445.8 207.5C2442 214.7 2439.1 221.1 2439.4 221.8C2439.7 222.5 2444.6 225.3 2450.2 228.1C2457.7 231.7 2462.8 233.5 2469 234.6C2473.7 235.4 2480.9 236.1 2485 236.1C2489.1 236.1 2495.2 235.6 2498.5 235C2501.8 234.5 2506.5 233.2 2509 232.3C2511.5 231.4 2515.7 229.3 2518.5 227.5C2521.2 225.8 2524.8 222.8 2526.4 221C2528 219.1 2530.6 214.8 2532.1 211.5C2533.7 208.2 2535.5 202.6 2536 199C2536.6 195.4 2536.8 189.7 2536.4 186C2535.9 181.8 2534.5 177.3 2532.4 173C2530.4 169.1 2527.4 165.1 2524.8 162.9C2522.4 161 2517.2 157.7 2513.2 155.7C2509.2 153.7 2502.9 151.2 2499.2 150.2C2495.5 149.1 2491.4 147.8 2490 147.3C2488.6 146.7 2486 145.1 2484.2 143.7C2481.8 141.7 2481 140.2 2480.9 137.8C2480.9 136 2481.8 133.4 2482.8 132C2483.8 130.7 2486 129 2487.6 128.2C2489.4 127.4 2493 127 2497 127.2C2502.5 127.5 2504.6 128.2 2509.8 131.3C2513.2 133.4 2516.4 135 2517 135C2517.5 135 2520.9 129.3 2524.4 122.3C2527.9 115.3 2530.5 109 2530.2 108.4C2529.8 107.8 2527.7 106.4 2525.5 105.3C2523.3 104.2 2519.2 102.6 2516.5 101.7C2513.7 100.8 2507.4 99.4 2502.5 98.6C2497.5 97.7 2491.5 97.1 2489 97.1C2486.5 97.2 2481.3 97.9 2477.5 98.7ZM2721 98.7C2716 99.6 2709.2 101.7 2704.5 103.8C2700.1 105.8 2694.2 109.1 2691.5 111.1C2688.7 113.1 2684 117.5 2681 120.8C2678 124.1 2673.6 130.6 2671.2 135.2C2668.5 140.5 2666.4 146.4 2665.5 151.3C2664.6 155.6 2664 162.5 2664 166.8C2664 171.1 2664.7 178.1 2665.5 182.5C2666.4 187.2 2668.5 193.5 2670.6 197.5C2672.5 201.4 2676 207 2678.3 210C2680.6 212.9 2685.2 217.6 2688.5 220.2C2691.8 222.9 2698.3 226.9 2703 229.2C2708.8 232 2714.1 233.7 2720 234.6C2724.7 235.4 2732.1 236 2736.5 236C2740.9 236 2748.4 235.4 2753.2 234.5C2759 233.6 2764.8 231.7 2770.2 229.1C2774.8 226.9 2781.1 223.1 2784.2 220.6C2787.4 218.1 2792 213.5 2794.5 210.3C2797 207.1 2800.2 202.3 2801.6 199.5C2803.1 196.8 2805.1 192.1 2806.2 189C2807.5 185.3 2808.3 179.7 2808.7 171.5C2809.1 163.8 2808.8 156.9 2808 152C2807.1 147 2805.2 141.6 2802.1 135.5C2798.6 128.5 2795.8 124.8 2789.5 118.4C2782.7 111.5 2779.9 109.6 2771 105.2C2762.8 101.2 2758.4 99.8 2751 98.6C2745.8 97.7 2738.8 97.1 2735.5 97.1C2732.2 97.2 2725.7 97.9 2721 98.7ZM2724.2 133.8C2728 132.5 2731.9 132.1 2738 132.4C2744.2 132.6 2747.8 133.3 2751.5 135C2754.2 136.2 2758.5 138.9 2760.9 140.9C2763.6 143.2 2766.6 147.2 2768.9 151.5C2772.2 158 2772.5 159.2 2772.4 167C2772.4 174.7 2772.1 176.1 2769.2 181.5C2767.4 184.8 2765 188.7 2763.7 190C2762.4 191.4 2759.9 193.8 2758 195.3C2756 196.8 2751.7 198.9 2748.2 200C2744.8 201.1 2739.5 202 2736.5 202C2733.5 202 2728.2 201.1 2724.7 200C2721.3 198.9 2716.9 196.8 2715 195.3C2713.1 193.8 2710.5 191.4 2709.2 190C2708 188.7 2705.6 184.8 2703.9 181.5C2701.3 176.2 2700.9 174.5 2701 166.8C2701 158.6 2701.2 157.6 2704.7 150.9C2707.4 145.7 2709.9 142.6 2713.7 139.7C2716.6 137.4 2721.3 134.8 2724.2 133.8ZM3348.5 98C3345.7 98.4 3340.7 99.5 3337.2 100.4C3333.8 101.3 3328.6 103.2 3325.7 104.7C3322.8 106.1 3318.5 108.7 3316 110.4C3313.5 112.1 3309.1 115.9 3306.2 119C3303.3 122.1 3299.1 127.5 3297 131C3294.8 134.6 3291.8 141.4 3290.3 146C3288 153.4 3287.7 156.3 3287.6 167C3287.6 178.1 3287.9 180.5 3290.4 188C3292 192.7 3295.1 199.6 3297.4 203.4C3299.8 207.5 3304.5 213.1 3309 217.2C3314.2 222.1 3319.2 225.6 3325.5 228.6C3332.2 232 3336.8 233.5 3343.5 234.6C3348.4 235.4 3356.1 236 3360.5 236C3364.9 236 3372.3 235.3 3377 234.5C3382.3 233.6 3388.5 231.6 3393.5 229.2C3397.9 227.1 3403.7 223.7 3406.5 221.5C3409.2 219.4 3413.9 214.9 3416.8 211.6C3419.7 208.3 3423.8 201.9 3426 197.5C3428.1 193.1 3430.6 186.8 3431.4 183.5C3432.4 180 3433 173.3 3433 167C3433 160.9 3432.4 154.2 3431.5 150.8C3430.7 147.6 3428.8 142.2 3427.4 138.8C3425.9 135.4 3422.7 129.7 3420.1 126.1C3417.6 122.6 3413 117.5 3410 114.9C3407 112.2 3401.1 108.3 3397 106.1C3392.9 103.9 3385.9 101.2 3381.5 100.1C3377.1 98.9 3369 97.8 3363.5 97.6C3358 97.4 3351.2 97.5 3348.5 98ZM3347.5 133.9C3350.2 132.9 3355.6 132.2 3359.5 132.1C3363.3 132.1 3368.7 132.8 3371.5 133.6C3374.2 134.5 3377.8 136 3379.5 137C3381.1 138 3384.3 140.8 3386.6 143.2C3388.8 145.6 3391.7 149.8 3393 152.5C3394.9 156.6 3395.4 159.2 3395.4 166.6C3395.5 173.4 3395 176.7 3393.5 180.1C3392.5 182.5 3390.4 186.1 3388.9 188C3387.5 190 3384.1 193.2 3381.4 195.2C3378.6 197.3 3373.9 199.5 3370.5 200.4C3367.2 201.3 3362.5 202 3360 202C3357.5 202.1 3353 201.4 3350 200.5C3347 199.6 3342.2 197.4 3339.5 195.6C3336.7 193.7 3333.1 190.2 3331.3 187.9C3329.6 185.5 3327.4 181.5 3326.5 179C3325.5 176.4 3324.8 171.5 3324.8 167C3324.7 161.9 3325.3 158 3326.6 154.5C3327.7 151.8 3329.9 147.8 3331.5 145.7C3333.1 143.5 3336.3 140.4 3338.5 138.7C3340.7 137 3344.7 134.8 3347.5 133.9ZM1746 102.2C1743.5 102.6 1738.6 104 1735 105.2C1731.4 106.3 1725.6 108.9 1722 110.8C1718.4 112.8 1712.6 116.7 1709.1 119.5C1705.5 122.3 1700.8 126.8 1698.5 129.5C1696.2 132.3 1692.7 137 1690.7 140C1688.7 143.1 1686.1 148 1684.9 151C1683.7 154.1 1681.8 159.5 1680.7 163C1679 168.4 1678.6 172.2 1678.6 184C1678.6 197.8 1678.7 199 1681.8 207.8C1683.5 212.9 1686.1 219.2 1687.5 221.8C1688.9 224.4 1690.9 228.1 1692.1 230C1693.2 232 1698.5 237.8 1703.8 243C1711.2 250.3 1715.5 253.6 1722 257C1726.7 259.4 1733.4 262.2 1737 263.1L1743.5 264.9L1678 265C1678 420 1678.2 430.1 1679.5 430.5C1680.3 430.8 1737.6 431.1 1806.7 431.1C1888.4 431.1 1934.4 430.7 1938 430C1941 429.5 1947.1 427.9 1951.5 426.4C1955.9 425 1963 421.8 1967.4 419.2C1971.8 416.6 1978.4 411.4 1982.4 407.5C1986.3 403.6 1990.9 398.4 1992.6 396C1994.3 393.5 1997.3 388.4 1999.3 384.5C2001.2 380.7 2003.8 373.7 2005 369C2006.8 362.5 2007.3 357.8 2007.3 348.5C2007.4 339.4 2006.9 334.5 2005.2 327.8C2004 323 2001.4 315.8 1999.4 311.8C1997.4 307.8 1993.9 302.1 1991.6 299.1C1989.3 296 1985.2 291.4 1982.5 288.7C1979.7 286.1 1976.8 283.3 1976 282.6C1975.2 281.8 1971 279.2 1966.7 276.6C1962.5 274.1 1955.5 271 1951.2 269.6L1943.5 267.2C2000 267.1 2005.1 266.8 2006.4 265.5C2007.8 264.2 2008 255.5 2008 184C2008 140 2007.8 103.4 2007.5 102.5C2007 101.2 1991.9 101.1 1878.7 101.2C1808.2 101.2 1748.5 101.7 1746 102.2ZM2079 102C2077.6 102.4 2074 103.9 2071 105.3C2068 106.7 2063.2 110.1 2060.5 112.8C2057.7 115.5 2053.9 120.6 2052 124.1L2048.5 130.5C2048.1 379.6 2048.3 430 2049 430C2049.5 430 2086.3 411.9 2130.7 389.7L2211.5 349.3C2301.9 348.4 2309.3 348.1 2314.5 346.6C2317.8 345.7 2323.4 343.7 2327 342.1C2330.6 340.6 2336 337.8 2339 335.8C2342 333.9 2347.3 329.7 2350.8 326.5C2354.4 323.2 2359.1 317.8 2361.5 314.5C2363.8 311.2 2367.1 305.7 2368.8 302.3C2370.6 298.9 2373 292.8 2374.2 288.8C2376.3 281.8 2376.4 279.9 2376.7 228C2377.1 175.8 2377 174.3 2374.9 165C2373.5 159 2370.9 151.9 2367.7 145.5C2363.4 137 2361.3 134.2 2353.1 126C2346.6 119.5 2341.1 115.1 2336 112.2C2331.9 109.9 2324.2 106.6 2319 104.8L2309.5 101.5C2132.8 101.3 2080.4 101.5 2079 102ZM2582.6 104.3C2581.9 106.1 2579.6 112 2577.5 117.5C2575.4 123 2572.3 131.4 2570.5 136C2568.7 140.7 2566.4 146.6 2565.5 149C2564.6 151.5 2562.1 158 2560 163.5C2557.9 169 2553 182.1 2549 192.5C2545 203 2540.2 215.6 2538.3 220.5C2536.5 225.5 2534.9 229.8 2534.8 230C2534.8 230.3 2534.8 231.1 2534.9 231.8C2535 232.7 2539.3 233 2553 233C2570.7 233 2571 233 2571.9 230.8C2572.5 229.6 2574.4 224.4 2576.2 219.3L2579.5 210.1L2626.5 210C2629.3 217.4 2630.8 222 2631.6 225C2632.4 228.1 2633.6 231.1 2634.3 231.8C2635.2 232.8 2639.9 233.1 2653.2 233.1C2670.3 233.1 2671 233 2671 231C2671 229.9 2669.9 226.2 2668.5 222.8C2667.2 219.4 2664.5 212.5 2662.6 207.5C2660.7 202.6 2657.3 193.6 2655 187.5C2652.7 181.5 2649.5 173.2 2647.9 169C2646.4 164.9 2642.8 155.5 2640 148C2637.2 140.6 2633.8 131.8 2632.5 128.5C2631.3 125.2 2628.4 117.8 2626.2 112L2622.1 101.5L2583.9 101L2582.6 104.3ZM2600.7 148.3C2601.6 145.4 2602.4 143.1 2602.7 143.1C2602.9 143.1 2604.4 146.6 2606 150.8C2607.6 155.1 2609.4 160.6 2610 163.1C2610.7 165.6 2612.2 169.8 2613.4 172.6C2614.7 175.3 2616 178.8 2617 183.1H2603C2595.3 183.1 2589 183 2589 182.8C2589 182.7 2591.3 176.1 2594.1 168.1C2596.9 160.1 2599.9 151.2 2600.7 148.3ZM2860.6 102.6C2860.3 103.4 2860 132.4 2860 167.1C2860 201.7 2860.2 230.8 2860.5 231.6C2860.9 232.8 2863.8 233.1 2878 233.1C2892.2 233.1 2895.1 232.8 2895.5 231.6C2895.8 230.8 2896 221.1 2896 210.1V190.1C2912.7 190 2920.5 189.6 2924.2 189.1C2928 188.5 2934 186.9 2937.7 185.4C2942.4 183.5 2946 181.1 2949.5 177.6C2953 174.2 2955.5 170.3 2957.5 165.6C2960.3 159 2960.5 157.8 2960.5 145.1C2960.4 132.7 2960.2 131 2957.7 125.1C2956 121.1 2953.2 116.7 2950.2 113.7C2947.6 111 2943.4 107.8 2940.7 106.5C2938.1 105.1 2933.4 103.4 2930.2 102.6C2925.7 101.4 2917.8 101.1 2892.8 101.1C2865.6 101.1 2861.1 101.3 2860.6 102.6ZM2896.3 128.8L2904.4 129.3C2910.8 129.6 2913.5 130.3 2917.2 132.4C2920.7 134.3 2922.3 136 2923 138.3C2923.6 140.1 2924 143.4 2924 145.6C2924 147.8 2923.2 151.1 2922.2 153C2921.3 155 2918.9 157.4 2917 158.5C2914.6 159.8 2910.7 160.6 2896 161.6L2896.1 145.2L2896.3 128.8ZM2995 102.3C2994.3 102.9 2993.8 104 2994.1 104.7C2994.3 105.4 2992.3 111.2 2989.7 117.7C2987.1 124.2 2983.6 132.9 2982 137.1C2980.4 141.2 2977.6 148.6 2975.7 153.6C2973.8 158.5 2970.6 167.1 2968.5 172.6C2966.5 178.1 2963.2 186.3 2961.4 190.8C2959.5 195.4 2958 199.5 2958 200.1C2958 200.6 2956.4 205.2 2954.4 210.3C2952.4 215.4 2949.8 222 2948.5 225.1C2947.3 228.1 2946.5 231.1 2946.7 231.8C2946.9 232.8 2951.5 233.1 2965 233.1C2982.8 233.1 2983 233 2983.9 230.8C2984.5 229.6 2986.4 224.4 2988.2 219.3L2991.5 210.1C3035.9 210.1 3038.1 210.2 3038.9 211.8C3039.4 212.8 3041.2 218 3042.9 223.3L3046 233.1C3082.4 233.1 3083 233 3083 231.1C3083 230 3082 226.5 3080.6 223.3C3079.3 220.2 3076.1 211.9 3073.6 205.1C3071 198.2 3067.5 189 3065.8 184.6C3064.1 180.2 3061.5 173.4 3059.9 169.6C3058.3 165.7 3057 162.2 3057 161.8C3057 161.4 3055 155.8 3052.5 149.3C3050 142.9 3046.5 134 3044.9 129.6C3043.2 125.2 3040.3 117.7 3038.5 113.1C3036.7 108.4 3035 103.8 3034.6 102.8C3034.1 101.2 3032.2 101.1 3015.2 101.1C3002.1 101.1 2996 101.4 2995 102.3ZM3014.5 143.1L3016.4 147.3C3017.4 149.7 3019.5 155.4 3021 160.1C3022.6 164.7 3025 171.7 3026.5 175.6C3027.9 179.4 3029.1 182.7 3029.1 182.8C3029 183 3022.7 183.1 3015 183.1C3002.2 183.1 3001.1 182.9 3001.4 181.3C3001.7 180.4 3004 173.7 3006.5 166.6C3009.1 159.4 3012 151.2 3012.9 148.3L3014.5 143.1ZM3081.4 103.4C3081.1 104.6 3081 125 3081.2 148.6C3081.6 190.6 3081.7 191.8 3084.1 200.6C3085.5 205.8 3088 211.9 3090 215C3091.9 218 3095.3 222.1 3097.6 224C3099.9 226 3104.2 228.9 3107.1 230.4C3110.2 231.9 3116.2 233.7 3121.5 234.6C3126.4 235.4 3134.3 236.1 3139 236.1C3143.7 236.1 3151.5 235.4 3156.5 234.6C3161.6 233.7 3167.9 231.9 3171 230.4C3174 228.9 3179 225.2 3182 222.1C3185.1 219.1 3188.6 214.6 3189.8 212.1C3191 209.7 3192.9 204 3194.1 199.6C3196.2 192.1 3196.4 189.3 3196.7 148.6C3196.9 125 3196.9 104.6 3196.5 103.4C3196 101.2 3195.8 101.1 3179 101.1C3162.2 101.1 3162 101.2 3161.5 103.4C3161.2 104.6 3160.9 124.5 3160.7 147.6C3160.5 187.2 3160.4 189.9 3158.5 194C3157.4 196.5 3154.7 199.8 3152.5 201.5C3148.7 204.5 3148.2 204.6 3139 204.6C3129.8 204.6 3129.2 204.5 3125.4 201.5C3123.3 199.8 3120.6 196.5 3119.5 194C3117.6 189.9 3117.5 187.2 3117.2 147.6C3117.1 124.5 3116.8 104.6 3116.5 103.4C3116 101.2 3115.8 101.1 3099 101.1C3082.2 101.1 3082 101.2 3081.4 103.4ZM3210.6 102.6C3210.2 103.5 3210 132.5 3210 167.1C3210 201.8 3210.2 230.8 3210.5 231.6C3210.9 232.9 3216 233.1 3248.5 233.1H3286V203.1H3246C3246 126.4 3245.8 103.5 3245.5 102.6C3245.1 101.4 3242.2 101.1 3228.1 101.1C3214 101.1 3211.1 101.4 3210.6 102.6ZM2462 264.2C2459.5 264.7 2455.1 266.6 2452.2 268.4C2448.7 270.5 2445.5 273.6 2443.1 277.1C2440 281.6 2439.2 283.9 2438.5 289.6C2438.1 293.5 2438 299.3 2438.4 302.6C2438.9 307 2440 310 2442.5 313.9C2444.5 316.9 2448.2 320.6 2451.2 322.6C2454.9 325.1 2458.4 326.4 2463 327.2C2466.6 327.8 2472 327.9 2475 327.6C2478 327.2 2482.8 325.9 2485.7 324.5C2489.4 322.9 2492.2 320.5 2495.1 316.9C2497.3 314 2499.8 309.4 2500.6 306.6C2501.4 303.9 2502 299.5 2502 296.9V292.1L2469.5 292.6C2469 298.8 2469.1 301.6 2469.4 302.9C2469.9 304.9 2470.6 305.1 2476 305.1C2481.7 305.1 2482 305.2 2481.4 307.4C2481.1 308.6 2479.8 310.4 2478.6 311.4C2477.5 312.4 2474.9 313.4 2473 313.7C2471.1 314 2467.7 313.6 2465.5 312.9C2462.9 312.1 2460.7 310.4 2459.2 308.1C2457.9 306.2 2456.5 302.9 2455.9 300.9C2455.4 298.8 2455.3 295.4 2455.6 293.4C2456 291.3 2457.1 287.9 2458.1 285.9C2459.1 283.8 2461.4 281.2 2463.2 280.1C2465 279 2468.1 278.1 2470 278.1C2471.9 278.1 2474.9 279 2476.7 280.1C2478.5 281.2 2480.5 283.3 2481.2 284.7C2481.9 286 2482.9 287.2 2483.5 287.1C2484 287.1 2487.5 285.9 2491.3 284.4C2495.4 282.7 2498 281 2498 280.1C2498 279.3 2496.9 277.1 2495.6 275.1C2494.3 273.2 2491.3 270.3 2488.9 268.6C2486.5 267 2482.3 265.1 2479.5 264.4C2476.8 263.7 2472.7 263.2 2470.5 263.2C2468.3 263.3 2464.5 263.7 2462 264.2ZM2533 264.7C2530 265.6 2525.5 267.5 2523 269.1C2520.5 270.7 2516.8 274.1 2514.7 276.8C2512.6 279.4 2510.4 283.4 2509.8 285.6C2509.2 287.8 2509 293.4 2509.2 298.1C2509.6 303.4 2510.4 307.9 2511.5 310.1C2512.5 312.1 2515.4 315.7 2517.9 318.2C2520.4 320.7 2523.9 323.5 2525.7 324.5C2527.5 325.4 2532 326.6 2535.7 327.2C2540.6 327.9 2544.5 327.9 2549.5 327.1C2553.6 326.4 2558.3 324.9 2560.9 323.3C2563.3 321.8 2566.9 318.8 2568.9 316.5C2570.9 314.3 2573.3 310.2 2574.2 307.5C2575.2 304.8 2576.3 300.4 2576.6 297.6C2577 293.9 2576.6 290.9 2575 286.1C2573.8 282.6 2571.7 278.2 2570.4 276.4C2569.1 274.6 2565.5 271.6 2562.5 269.6C2559.5 267.7 2554.4 265.4 2551.2 264.6C2548.1 263.8 2543.9 263.1 2542 263.2C2540.1 263.2 2536 263.9 2533 264.7ZM2540.4 279.8C2541.5 279.7 2544.4 280.1 2546.9 280.8C2549.4 281.5 2552.5 283.2 2553.8 284.4C2555.1 285.6 2556.9 288 2557.7 289.6C2558.6 291.4 2559.1 294.2 2558.8 296.6C2558.6 298.8 2557.2 302.3 2555.7 304.4C2554.2 306.4 2551.2 309 2549 310.1C2546.8 311.2 2543.9 312.1 2542.5 312.1C2541.1 312.1 2538.3 311.3 2536.2 310.2C2534.2 309.2 2531.7 307.5 2530.8 306.5C2529.9 305.5 2528.4 302.9 2527.5 300.9C2526.7 298.8 2526 296.1 2526 294.9C2526 293.6 2526.9 290.8 2528 288.6C2529.3 285.9 2531.3 283.9 2534.2 282.4C2536.6 281.2 2539.3 280 2540.4 279.8ZM2845 264.4C2842.5 265.1 2838.5 266.9 2836 268.3C2833.5 269.8 2829.8 272.7 2827.8 274.8C2825.8 276.9 2823.2 281 2822.1 283.9C2820.8 287 2820 291.4 2820 294.9C2820 298 2820.9 303.3 2822 306.6C2823.1 310 2825.6 314.5 2827.7 317C2830.1 319.7 2834 322.5 2838 324.5C2843.9 327.3 2845.4 327.6 2854 327.5C2861.2 327.5 2864.6 327 2868 325.5C2870.5 324.4 2874.7 321.5 2877.3 319.1C2880 316.6 2883 313.1 2884 311.1C2884.9 309.2 2886.3 305.2 2887 302.1C2887.7 299.1 2888 294.6 2887.7 292.1C2887.3 289.7 2886.6 286.1 2886.1 284.1C2885.5 282.2 2883.1 278.4 2880.7 275.6C2878 272.6 2873.8 269.3 2869.9 267.3C2865 264.8 2861.8 264 2856.5 263.6C2852.4 263.3 2847.6 263.7 2845 264.4ZM2849.8 280.5C2851.6 279.9 2854.6 279.7 2856.3 280.1C2858.1 280.5 2860.9 281.6 2862.7 282.7C2864.5 283.8 2866.8 286.2 2867.9 288.1C2869 290.1 2869.9 293.4 2869.9 295.6C2869.9 297.8 2869 301.2 2867.9 303.1C2866.8 305.1 2864.5 307.6 2862.7 308.9C2860.9 310.1 2857.7 311.4 2855.5 311.8C2852.5 312.2 2850.4 311.8 2847.2 310.2C2844.8 309.1 2841.9 306.5 2840.6 304.4C2839.2 302.3 2837.9 299.2 2837.6 297.4C2837.2 295.2 2837.67 292.6 2839 289.6C2840.1 287.2 2842.2 284.3 2843.7 283.4C2845.2 282.4 2848 281.1 2849.8 280.5ZM3014 264.4C3011.5 265.1 3007.5 266.8 3005 268.3C3002.5 269.7 2999 272.4 2997.2 274.3C2995.4 276.1 2992.9 279.7 2991.7 282.1C2989.9 285.7 2989.5 288.4 2989.5 295.1C2989.5 302.7 2989.8 304.4 2992.7 310.1C2994.7 314.4 2997.3 317.8 3000.2 320.1C3002.5 322 3006.5 324.4 3009 325.5C3012.4 327 3015.8 327.5 3023 327.5C3031.2 327.6 3033.2 327.2 3038 324.9C3041 323.5 3045.4 320.3 3047.8 318C3050.2 315.6 3053.1 311.6 3054.3 309.1C3056.1 305.5 3056.5 302.8 3056.5 295.1C3056.5 286.7 3056.2 285.1 3053.9 281.1C3052.4 278.7 3049.3 274.9 3046.9 272.7C3044.4 270.5 3040.2 267.7 3037.5 266.4C3034.4 265 3029.8 263.9 3025.5 263.6C3021.3 263.3 3016.7 263.6 3014 264.4ZM3019.7 280.1C3021.1 279.8 3023.7 279.8 3025.4 280.1C3027.1 280.5 3030 281.6 3031.8 282.7C3033.7 283.8 3036 286.3 3037.1 288.4C3038.1 290.4 3039 293.7 3039 295.6C3039 297.6 3038.1 300.8 3037.1 302.9C3036 304.9 3033.4 307.8 3031.4 309.1C3028.7 310.9 3026.3 311.6 3023 311.6C3019.5 311.6 3017.3 310.9 3014.4 308.9C3012.2 307.4 3009.7 304.8 3008.7 303.2C3007.7 301.4 3007 298.1 3007 295.4C3007 292.5 3007.8 289.4 3009 287.4C3010.1 285.6 3012.4 283.4 3014 282.5C3015.7 281.6 3018.3 280.5 3019.7 280.1ZM3386 264.7C3383 265.6 3378.2 267.7 3375.5 269.5C3372.7 271.3 3369 274.8 3367.2 277.2C3365.4 279.6 3363.4 283.4 3362.8 285.6C3362.2 287.8 3362 293.5 3362.2 298.1C3362.5 303.2 3363.4 308 3364.3 309.9C3365.2 311.7 3367.3 314.6 3368.8 316.4C3370.4 318.2 3373.9 321.1 3376.6 322.8C3380 325.1 3383.6 326.4 3388.5 327.1C3393.6 327.9 3397.4 327.9 3402.5 327.1C3406.3 326.5 3411.3 325 3413.5 323.7C3415.7 322.4 3419.3 319.4 3421.5 316.9C3423.7 314.4 3426.4 310 3427.5 307C3428.7 303.7 3429.4 299.1 3429.5 295.1C3429.5 290.8 3428.8 287 3427.6 284.1C3426.5 281.6 3424.6 278.2 3423.3 276.4C3422 274.6 3418.5 271.6 3415.5 269.6C3412.5 267.7 3407.4 265.4 3404.2 264.6C3401.1 263.8 3396.9 263.1 3395 263.2C3393.1 263.2 3389 263.9 3386 264.7ZM3392.4 280.1C3394 279.7 3397.4 280.1 3399.9 280.8C3402.4 281.5 3405.5 283.2 3406.8 284.4C3408.1 285.6 3409.8 287.9 3410.6 289.4C3411.4 290.9 3412 293.5 3412 295.1C3412 296.8 3411.1 299.8 3410.1 301.9C3409 303.9 3407.4 306.4 3406.3 307.3C3405.3 308.2 3403 309.6 3401.2 310.5C3399.4 311.4 3396.9 312.1 3395.5 312.1C3394.1 312.1 3391.3 311.3 3389.2 310.2C3387.2 309.2 3384.7 307.5 3383.8 306.5C3382.9 305.5 3381.4 302.9 3380.5 300.9C3379.7 298.8 3379 296.2 3379 295.1C3379 294 3379.8 291.5 3380.7 289.5C3381.7 287.4 3384.1 284.6 3386 283.2C3387.9 281.8 3390.8 280.4 3392.4 280.1ZM3151.5 265.8C3149.8 266.7 3147.4 268.3 3146.1 269.5C3144.8 270.7 3142.9 273.4 3141.9 275.6C3140.9 277.8 3140 281.7 3140 284.1C3140 286.6 3140.8 290.4 3141.8 292.6C3143.1 295.5 3144.7 297.1 3147.6 298.4C3149.7 299.3 3154.4 301.1 3158 302.4C3163.9 304.4 3164.5 304.9 3164.8 307.6C3164.9 309.3 3164.5 311.2 3163.8 311.9C3163.1 312.6 3160.7 313.2 3158.5 313.2C3155.9 313.2 3153.2 312.3 3150.7 310.7C3148.7 309.3 3146.3 308.1 3145.5 308.1C3144.7 308.1 3142.6 310.6 3141 313.6C3139.3 316.7 3138.1 319.7 3138.4 320.4C3138.6 321.1 3140.9 322.7 3143.6 324.1C3147.5 326.1 3150.3 326.7 3157.5 326.9C3163.8 327.2 3167.7 326.8 3170.5 325.8C3172.7 324.9 3176.2 322.4 3178.2 320.2C3180.3 318 3182.4 314.4 3183 312.4C3183.5 310.3 3184 307.3 3184 305.6C3183.9 304 3183 300.7 3182 298.4C3180.3 294.8 3179 293.7 3173.7 291.3C3170.3 289.7 3165.3 287.7 3162.7 286.8C3158.8 285.4 3158 284.7 3158 282.6C3158 281.1 3158.8 279.7 3160 279.1C3161.1 278.6 3163.1 278.1 3164.5 278.1C3165.9 278.1 3168.4 278.8 3170.2 279.7C3172 280.6 3173.9 281.1 3174.5 280.8C3175 280.6 3176.7 278.2 3178.1 275.5C3179.6 272.8 3180.5 270.1 3180.1 269.4C3179.8 268.7 3177.1 267.3 3174.2 266.1C3170.6 264.8 3166.7 264.1 3161.7 264.2C3157.1 264.2 3153.4 264.8 3151.5 265.8ZM2578.6 266.6C2577.1 268 2577.2 268.6 2579.1 272.9C2580.3 275.5 2582.7 280.9 2584.6 284.9C2586.5 288.9 2588 292.6 2588 293.1C2588 293.7 2589.6 297.5 2591.5 301.6C2593.4 305.8 2595 309.4 2595 309.6C2595 309.9 2596.7 313.8 2598.7 318.2L2602.5 326.3L2615.3 325.6C2622.2 310.1 2625.5 302.8 2627.1 299.4C2628.7 295.9 2630 292.6 2630 291.9C2630 291.2 2630.3 290.2 2630.8 289.6C2631.3 289.1 2633.6 284.2 2635.8 278.9C2638.1 273.5 2640 268.5 2640 267.6C2640 266.8 2639.3 265.9 2638.5 265.6C2637.7 265.4 2634.1 265.1 2630.5 265.1C2624.8 265.1 2623.8 265.4 2622.5 267.4C2621.7 268.6 2619.1 274.6 2616.6 280.6C2614.2 286.7 2611.4 293.4 2610.5 295.6L2608.8 299.6C2606.5 294.2 2603.5 287 2600.8 280.1C2598 273.3 2595 267.1 2594.1 266.4C2593.2 265.6 2589.8 265.1 2586.3 265.1C2582.17 265.1 2579.6 265.6 2578.6 266.6ZM2648.5 266.7C2647 268.1 2646.8 271.5 2646.9 295.7C2647 310.8 2647.2 323.8 2647.5 324.6C2647.9 325.9 2650.8 326.1 2665.5 326.1H2683V312.1H2665V303.1C2675.8 303.1 2679.7 302.9 2680.5 302.6C2681.6 302.3 2682 300.5 2682 295.6C2682 290.7 2681.6 289 2680.5 288.6C2679.7 288.4 2675.8 288.1 2672 288.1H2665V280.1C2676.6 280.1 2680.7 279.9 2681.5 279.6C2682.6 279.3 2683 277.5 2683 272.6C2683 267.7 2682.6 266 2681.5 265.6C2680.7 265.4 2673.3 265.1 2665.1 265.1C2652.8 265.1 2649.8 265.4 2648.5 266.7ZM2696 265.7C2694.8 266.2 2694.6 270.9 2694.8 296.2L2695 326.1H2712L2711.9 304.6C2720.5 317.8 2723 321.9 2723 322.1C2722.9 322.4 2723.7 323.4 2724.7 324.4C2726.1 325.7 2728.4 326.1 2735.7 326.1C2740.9 326.1 2745.2 325.7 2745.5 325.1C2745.8 324.6 2743.6 321.1 2740.7 317.5C2737.8 313.9 2734 309.1 2732.2 307C2730.4 304.9 2729 302.8 2729 302.4C2729 302 2730.8 300.6 2733 299.4C2735.67 297.867 2737.67 295.7 2739 292.9C2740.1 290.5 2741 287.1 2741 285.1C2741 283.2 2740.5 280.1 2739.9 278.1C2739.2 276.2 2737.8 273.6 2736.6 272.3C2735.4 271 2732.7 269 2730.5 267.8C2727 265.9 2724.6 265.6 2712 265.4C2704 265.3 2696.8 265.4 2696 265.7ZM2712 285.1C2712 278.5 2712.1 278.1 2714.2 278.1C2715.5 278.1 2717.9 279 2719.7 280.1C2722.1 281.6 2723 282.8 2723 284.9C2723 286.4 2722.6 288.1 2722.2 288.7C2721.8 289.3 2720.5 290.3 2719.2 291C2718 291.6 2715.9 292.1 2714.5 292.1C2712.1 292.1 2712 291.9 2712 285.1ZM2753 265.8C2751.8 266.2 2751.6 270.8 2751.8 296.2L2752 326.1H2769V291.1C2786.4 312.9 2792.6 320.8 2794 322.7L2796.5 326.2C2811.2 326.1 2813.1 325.8 2813.5 324.6C2813.8 323.8 2814 310.8 2814 295.6C2814 272.5 2813.7 267.9 2812.5 266.6C2811.5 265.6 2809 265.1 2805.2 265.1C2802.1 265.1 2798.8 265.6 2798 266.1C2796.8 266.9 2796.4 270.3 2796 283.2L2795.5 299.3C2776.3 274.8 2770 267.1 2769.1 266.4C2768.1 265.6 2764.9 265.1 2761 265.2C2757.4 265.2 2753.8 265.5 2753 265.8ZM2929.1 265.9C2927.9 266.6 2927.7 271.5 2928.1 296.2L2928.5 325.6C2957.5 325.6 2960.1 325.4 2964 323.6C2966.5 322.4 2970.4 319.7 2972.8 317.6C2975.2 315.4 2978.3 311.2 2979.8 308.1C2981.8 303.8 2982.4 301.1 2982.4 295.6C2982.4 289.8 2981.8 287.6 2979.3 282.6C2977.6 279.3 2974.7 275.3 2972.9 273.7C2971 272.1 2967 269.7 2964 268.2C2959.1 266 2957 265.7 2944.5 265.4C2936.8 265.2 2929.8 265.4 2929.1 265.9ZM2945 280.1H2949C2951.2 280.1 2954.8 281 2957 282.1C2959.67 283.433 2961.67 285.433 2963 288.1C2964.1 290.3 2965 293.7 2965 295.6C2965 297.6 2964.3 300.7 2963.5 302.6C2962.7 304.6 2960.3 307.3 2958.2 308.7C2956.2 310.1 2952.3 311.5 2945 312.6V296.4V280.1ZM3093 265.7C3091.8 266.2 3091.6 270.8 3091.8 296.2L3092 326.1C3126.8 326.1 3127 326.1 3127.5 323.8C3127.8 322.6 3127.9 319.6 3127.8 317.1L3127.5 312.6L3109 312.1V303.1C3121.6 303.1 3124.3 302.6 3125.4 301.6C3126.4 300.6 3127 298.4 3127 295.6C3127 292.9 3126.4 290.5 3125.5 289.6C3124.4 288.5 3121.8 288.1 3116.5 288.1H3109V280.1C3122.6 280.1 3125.3 279.7 3126.4 278.6C3127.4 277.6 3128 275.4 3128 272.6C3128 269.9 3127.4 267.5 3126.5 266.6C3125.3 265.4 3122 265.1 3109.7 265.2C3101.3 265.2 3093.8 265.5 3093 265.7ZM3187.5 266.6C3186.4 267.7 3185.9 269.8 3185.9 272.6C3185.9 275.2 3186.6 277.7 3187.5 278.6C3188.4 279.5 3190.9 280.1 3194.5 280.1H3200V326.1C3214.2 326.1 3216.1 325.7 3216.5 324.6C3216.7 323.8 3217 313.4 3217 301.6V280.1C3223.9 280.1 3226.6 279.9 3227.5 279.6C3228.6 279.2 3229 277.5 3229 272.6C3229 267.7 3228.6 266 3227.5 265.6C3226.6 265.3 3217.7 265.1 3207.5 265.1C3192.2 265.1 3188.8 265.3 3187.5 266.6ZM3251.9 266.3C3251.1 267 3248.5 272.5 3246.1 278.6C3243.7 284.6 3240.2 293.3 3238.4 297.8C3236.5 302.4 3235 306.4 3235 306.8C3235 307.2 3233.3 311.4 3231.4 316.1C3229.4 320.8 3228.2 324.9 3228.6 325.3C3229.1 325.8 3233.3 326 3237.9 325.8L3246.3 325.6L3249.6 315.6H3270.2L3274 326.1H3292C3291.2 321.8 3289.3 316.5 3287.3 311.6C3285.4 306.6 3282.2 298.8 3280.3 294.1C3278.5 289.4 3276.9 285.1 3276.9 284.6C3276.9 284 3275.3 279.8 3273.3 275.1C3271.3 270.4 3269.1 266.2 3268.5 265.8C3268 265.4 3264.3 265.1 3260.4 265.1C3256.3 265.1 3252.8 265.6 3251.9 266.3ZM3260.3 286.6L3262 291.6C3262.9 294.3 3264.2 298 3266 303.1H3260.5C3255.3 303.1 3255 303 3255.5 300.8C3255.8 299.6 3257 295.9 3258.2 292.6L3260.3 286.6ZM3301.5 266.6C3300 268.1 3299.8 270.8 3299.9 295.9C3299.9 311.1 3300.3 324.2 3300.7 324.9C3301.3 325.9 3305 326.1 3317 325.9C3332 325.6 3332.6 325.5 3337.9 322.6C3340.8 320.9 3345.2 317.3 3347.6 314.6C3350 311.8 3352.7 307.3 3353.6 304.6C3354.7 301.2 3355.1 297.6 3354.7 293.6C3354.5 290.3 3353.4 286 3352.5 284.1C3351.5 282.2 3349.1 278.6 3347.1 276.1C3344.6 273.2 3341.3 270.7 3337 268.6C3330.9 265.8 3329.6 265.6 3316.9 265.2C3305.3 264.9 3303 265.1 3301.5 266.6ZM3318.2 279.8L3322.9 280.2C3325.9 280.4 3328.8 281.5 3331 283.2C3333.27 284.867 3334.87 287.2 3335.8 290.2C3336.6 292.7 3336.9 296.3 3336.6 298.6C3336.2 300.8 3335 303.9 3333.7 305.5C3332.5 307.1 3329.7 309.2 3327.5 310.2C3325.3 311.2 3322.2 312 3318 312.1L3318.1 295.9L3318.2 279.8ZM2505.2 359.8C2504 360.8 2502.3 363 2501.5 364.6C2500.7 366.3 2500.3 368.2 2500.5 368.9C2500.7 369.5 2502.1 370.1 2503.7 370.1C2505.2 370.1 2507.2 369.4 2508.2 368.6C2509.7 367.3 2510.5 367.3 2514.7 368.6C2517.3 369.4 2520.5 370.1 2521.7 370.1C2523 370.1 2525.4 368.8 2527 367.1C2528.6 365.4 2529.9 363 2529.9 361.6C2529.9 359.7 2529.3 359 2527.2 358.5C2525.1 358.1 2523.9 358.5 2522.4 360.1C2520.6 362.1 2520.2 362.1 2517.4 360.8C2515.8 360 2512.8 359 2510.9 358.6C2508.2 358.1 2506.8 358.4 2505.2 359.8ZM3007.4 359.2C3006.3 359.7 3004.6 361.5 3003.7 363.1C3002.7 364.8 3001.9 367 3001.9 368.1C3001.9 369.7 3002.6 370.1 3005.2 370.1C3006.9 370.1 3009.1 369.4 3009.9 368.5C3011.3 367.2 3011.9 367.2 3016.4 368.6C3019.3 369.5 3022.8 370 3024.7 369.7C3027.1 369.3 3028.5 368.1 3030.1 365.4C3031.6 362.6 3032 361.2 3031.2 360.1C3030.7 359.3 3029.2 358.5 3027.9 358.3C3026.7 358.1 3024.7 358.9 3023.5 360C3021.4 361.9 3021.3 361.9 3016.7 360C3014 359 3011.3 358.1 3010.7 358.2C3010 358.2 3008.5 358.7 3007.4 359.2ZM935.9 370C934 370.4 931.1 371.4 929.4 372.3C927.8 373.1 924.5 376 922.1 378.7C919.7 381.4 917.3 385.4 916.8 387.6C916.2 389.8 915.7 393.9 915.7 396.6C915.7 399.4 916.3 403.6 916.9 406.1C917.6 408.6 919.4 412.2 920.9 414.1C922.4 416 926.3 418.9 929.5 420.6C934 422.8 937.2 423.6 942.9 423.9C947 424.2 952.8 423.9 955.7 423.2C959.5 422.4 960.9 421.6 960.9 420.4C960.9 419.4 960.4 417.8 959.7 416.7C958.5 415 958 415 954.4 416.1C952.1 416.8 948.1 417.2 944.9 416.9C941.9 416.6 937.3 415.3 934.7 414C930.9 412.1 929.4 410.5 927.4 406.6C925.6 403 924.9 400 924.9 396.1C925 392.2 925.7 389.3 927.5 386.1C928.8 383.6 931.6 380.5 933.6 379.1C937 376.8 938.2 376.6 948.6 376.6H959.9C960.8 372 960.7 370.4 960.4 370.1C960 369.8 955.2 369.5 949.6 369.4C944 369.3 937.8 369.6 935.9 370ZM2454.4 374.7C2452.8 375.5 2450.4 377.2 2449.1 378.4C2447.9 379.6 2446.3 382.4 2445.8 384.6C2445.2 386.8 2445 390.6 2445.3 393.1C2445.7 395.7 2446.9 398.6 2448.2 399.9C2449.4 401.2 2454.1 404 2458.7 406.2L2466.9 410.1C2466.9 418.3 2466.5 419.3 2464.7 420.2C2463.4 420.8 2460.7 421 2458.7 420.7C2456.1 420.3 2454.2 419.2 2452.7 417.1C2451.4 415.4 2450.2 414 2449.9 414C2449.6 414 2447.9 415.5 2446.1 417.3C2444.3 419.1 2442.9 421.1 2442.9 421.6C2442.9 422.2 2444.6 424.2 2446.6 426.2C2448.7 428.2 2451.5 430.4 2452.9 431.1C2454.3 431.8 2457.9 432.4 2460.9 432.4C2464.2 432.4 2468 431.6 2470.3 430.5C2472.5 429.4 2475.3 427.4 2476.6 425.9C2477.9 424.3 2479.4 421.4 2479.9 419.4C2480.5 417.3 2480.9 414.3 2480.9 412.6C2480.9 411 2479.9 407.6 2478.7 405.1C2476.7 401.2 2475.4 400.2 2467.7 396.4C2462.8 394 2458.6 391.3 2458.3 390.4C2457.9 389.4 2458.1 387.7 2458.6 386.6C2459.2 385.5 2460.8 384.3 2462.2 383.9C2463.7 383.4 2465.9 383.6 2467.2 384.1C2468.4 384.6 2470.2 385.7 2471.2 386.4C2472.7 387.4 2473.3 387.2 2475.4 384.6C2476.7 383 2477.9 380.8 2477.9 379.9C2477.9 378.7 2476.1 377.2 2472.7 375.6C2469.2 374 2465.7 373.1 2462.4 373.1C2459.7 373.1 2456.1 373.8 2454.4 374.7ZM2509.4 376.8C2508.5 378.9 2506.4 384 2504.8 388.1C2503.1 392.2 2500.5 398.8 2499 402.6C2497.4 406.5 2494.5 413.5 2492.5 418.4C2490.5 423.2 2488.9 427.8 2488.9 428.6C2488.9 429.4 2489.6 430.3 2490.4 430.6C2491.2 430.9 2493.6 431.1 2495.7 431.1C2497.7 431.1 2499.9 430.7 2500.4 430.3C2501 429.9 2502.6 427.2 2503.9 424.3L2506.4 419.1H2524.9C2527.6 426.4 2529 429.1 2529.7 429.8C2530.3 430.5 2532.8 431.1 2535.2 431.1C2537.8 431.2 2539.9 430.6 2540.7 429.6C2541.7 428.4 2541.3 426.4 2538.4 418.9C2536.5 413.8 2533.1 404.9 2530.8 399.1C2528.6 393.3 2525.5 385.2 2523.9 381.1L2521.1 373.6C2511.1 373 2511 373 2509.4 376.8ZM2515.2 392.2L2518 400.4C2519.6 404.9 2520.9 408.7 2520.9 408.9C2520.9 409 2518.4 409.1 2515.4 409.1C2512.4 409.1 2509.9 408.8 2509.9 408.4C2509.9 407.9 2511.1 404.1 2512.5 399.9L2515.2 392.2ZM2570.5 373.9C2569.4 374.4 2566.9 375.4 2565 376.3C2563 377.2 2559.6 379.9 2557.2 382.5C2554.4 385.5 2552.5 388.9 2551.5 392.3C2550.6 395.2 2550 399.7 2550 402.3C2550 404.9 2550.6 409.4 2551.4 412.3C2552.2 415.2 2554.3 419.5 2555.9 421.8C2558.1 424.9 2560.8 427 2565.7 429.3C2571.4 432 2573.6 432.5 2579.5 432.5C2584.7 432.4 2587.7 431.8 2591.5 430C2594.2 428.7 2598.2 425.8 2600.4 423.6C2602.6 421.4 2605.3 417.6 2606.4 415.1C2607.8 411.8 2608.3 408.4 2608.3 402.6C2608.3 397.8 2607.7 393.2 2606.8 391.1C2606 389.2 2603.8 385.6 2601.9 383.2C2600 380.8 2596.2 377.7 2593.5 376.3C2589.6 374.3 2586.7 373.7 2580.5 373.5C2576.1 373.3 2571.6 373.5 2570.5 373.9ZM2570.4 387.9C2573.3 385.8 2575.5 385.1 2578.9 385.1C2582 385 2584.6 385.8 2586.9 387.3C2588.8 388.6 2591.5 391.2 2592.8 393.1C2594.8 396.1 2595.1 397.5 2594.8 403.6C2594.5 408.6 2593.9 411.3 2592.5 413.2C2591.4 414.7 2589.1 416.8 2587.5 418C2585.3 419.5 2582.9 420.1 2578.7 420.1C2573.6 420.1 2572.6 419.7 2569.2 416.7C2566.7 414.5 2565.1 411.9 2564.2 408.7C2563.5 406.2 2563 403 2563 401.6C2563 400.2 2563.8 397.2 2564.7 394.9C2565.8 392.3 2568 389.6 2570.4 387.9ZM2709.4 374.8C2709.1 375.8 2707.9 378.6 2706.8 381.1C2705.6 383.6 2703.5 389 2702 393.1C2700.4 397.2 2698.2 403.1 2697 406.1C2695.7 409.1 2693.1 415.3 2691.1 419.8C2687.9 427.1 2687.6 428.2 2689 429.6C2689.9 430.6 2692.1 431.2 2694.7 431.1C2696.9 431.1 2699.4 430.5 2700.2 429.8C2700.9 429.1 2702.4 426.4 2703.5 423.8L2705.5 419L2724.1 419.6C2727.4 427.3 2728.8 429.9 2729.4 430.3C2730 430.7 2732.2 431.1 2734.2 431.1C2736.3 431.1 2738.6 430.9 2739.5 430.6C2740.3 430.3 2741 429.3 2741 428.3C2741 427.4 2740.1 424.3 2739 421.6C2737.9 418.8 2733.6 407.8 2729.4 397.1C2725.3 386.4 2721.5 376.6 2720.9 375.3C2720.1 373.4 2719.2 373.1 2714.9 373.1C2711 373.1 2709.8 373.5 2709.4 374.8ZM2712.1 399.4C2713.7 394.4 2714.7 392.7 2715.1 393.9C2715.5 394.8 2716.9 398.6 2721 409.1H2715C2710.6 409.1 2709.1 408.7 2709.3 407.8C2709.5 407.1 2710.8 403.3 2712.1 399.4ZM2863.5 375.1C2860.7 376.2 2857 378.6 2855.1 380.4C2853.2 382.1 2850.4 386.3 2848.9 389.6C2846.6 394.3 2846 397 2846 402.1C2845.9 405.7 2846.6 410.6 2847.5 413.1C2848.4 415.6 2850.5 419.5 2852.3 421.8C2854.3 424.5 2857.7 427.2 2861.5 429.2C2866.5 431.7 2868.6 432.2 2875 432.3C2879.8 432.3 2883.9 431.7 2886.5 430.6C2888.7 429.7 2892.5 427.3 2894.9 425.3C2897.7 422.9 2900.2 419.6 2901.8 416.1C2903.2 413.1 2904.5 408.1 2904.8 405.1C2905 401.7 2904.6 397.5 2903.7 394.1C2902.8 391.1 2900.6 386.6 2898.8 384.1C2896.5 381 2893.5 378.6 2889 376.3C2883.4 373.5 2881.5 373.1 2875.5 373.1C2871 373.2 2866.7 373.9 2863.5 375.1ZM2867 387.4C2869.4 385.8 2871.9 385.1 2875 385.1C2877.7 385.1 2880.9 386 2883.3 387.4C2886 389 2887.8 391.2 2889.7 395.1C2891.7 399.3 2892.1 401.4 2891.6 404.3C2891.3 406.4 2890.1 409.9 2889 412.1C2887.9 414.3 2885.5 417 2883.7 418.1C2881.5 419.5 2878.7 420.1 2874.7 420.1C2869.9 420.1 2868.5 419.7 2865.8 417.3C2864.1 415.8 2861.8 412.8 2860.8 410.6C2859.8 408.4 2859 404.8 2859 402.6C2859 400.4 2860 396.6 2861.2 394.2C2862.5 391.7 2865 388.7 2867 387.4ZM2954.5 375.5C2951.8 377.1 2949.7 379.4 2948.1 382.7C2946.3 386.2 2945.8 388.7 2946.1 391.6C2946.4 393.9 2947.8 397.2 2949.5 399.4C2951.7 402.2 2954.1 403.8 2958.4 405.4C2961.6 406.6 2965.3 408.6 2966.6 409.8C2967.9 411.1 2969 413.2 2969 414.6C2969 416 2968.1 418 2967 419.1C2965.9 420.2 2963.6 421.1 2962 421.1C2959.9 421.1 2957.8 420 2955.2 417.6C2953.2 415.6 2951.2 414 2951 414C2950.7 414 2949.2 415.3 2947.7 416.8C2946.2 418.3 2945 420.6 2945 421.8C2945 423.2 2946.3 425.1 2948.2 426.7C2950 428.2 2952.8 430 2954.5 430.9C2956.1 431.7 2959.9 432.4 2963 432.4C2966 432.4 2969.8 431.7 2971.5 430.8C2973.1 430 2975.7 428 2977.2 426.4C2978.6 424.9 2980.4 422.2 2981 420.6C2981.6 418.9 2982.1 415.6 2982.2 413.1C2982.2 410.6 2981.5 407.2 2980.7 405.6C2979.9 403.9 2978.3 401.8 2977.3 400.9C2976.3 400 2972.1 397.7 2968 395.8C2963.8 393.8 2960.1 391.5 2959.7 390.7C2959.3 389.8 2959.4 388.2 2960 387.1C2960.5 386 2961.9 384.6 2963 384.1C2964.1 383.5 2966.3 383.4 2968.1 383.8C2969.8 384.2 2971.7 385.2 2972.3 385.9C2973 386.6 2974 387.2 2974.7 387.1C2975.4 387.1 2976.9 385.5 2978 383.6C2979.1 381.7 2980 379.6 2980 379.1C2980 378.5 2977.5 377 2974.5 375.6C2970.8 373.9 2967.2 373.1 2963.7 373.1C2960 373.1 2957.3 373.8 2954.5 375.5ZM3010.7 376.8C3009.8 378.9 3007.9 383.5 3006.4 387.1C3005 390.7 3002.8 396.5 3001.5 400.1C3000.3 403.7 2998.5 407.9 2997.7 409.6C2996.8 411.2 2995 415.7 2993.6 419.6C2992.2 423.4 2991 427.4 2991 428.3C2991 429.3 2991.6 430.3 2992.5 430.6C2993.3 430.9 2995.5 431.1 2997.5 431.1C2999.6 431.1 3001.7 430.3 3003 429.1C3004.1 428 3005.5 425.3 3006.2 423.1L3007.5 419L3027 419.1C3028.8 425.7 3030.2 428.4 3031.4 429.4C3032.7 430.5 3035 431.2 3037.5 431.1C3039.7 431.1 3042.1 430.5 3042.7 429.8C3043.4 429 3043.5 427.9 3043 426.6C3042.5 425.5 3040.3 419.6 3038 413.6C3035.7 407.5 3032.6 399.4 3031.1 395.6C3029.5 391.7 3026.9 385.2 3025.3 381.1L3022.3 373.6C3012.4 373 3012.3 373 3010.7 376.8ZM3016.2 391.6L3018.6 397.3C3019.9 400.5 3021.3 404.4 3022.5 409.1H3017.2C3014.3 409.1 3012 408.7 3012 408.3C3012 407.9 3012.9 404 3014.1 399.6L3016.2 391.6ZM3067.4 375.9C3063.9 377.6 3060.1 380.3 3058.2 382.7C3056.4 384.8 3054 388.9 3052.9 391.8C3051.8 394.7 3050.9 399.5 3050.9 402.6C3050.9 405.6 3051.8 410.4 3052.9 413.3C3054 416.2 3056.6 420.5 3058.7 422.9C3060.7 425.3 3064.7 428.4 3067.4 429.7C3071.3 431.7 3074.1 432.2 3079.9 432.3C3085.9 432.4 3088.6 431.9 3092.9 429.9C3096 428.5 3100 425.9 3101.8 424C3103.6 422.1 3106.1 418.6 3107.2 416.1C3108.9 412.6 3109.3 409.6 3109.3 402.6C3109.3 395.5 3108.9 392.7 3107.2 389.1C3106 386.6 3103.3 383 3101.3 381C3099.2 379 3095.1 376.4 3092.2 375.2C3088.6 373.8 3084.8 373.1 3080.2 373.1C3074.9 373.1 3072.2 373.7 3067.4 375.9ZM3074.3 386C3075.5 385.6 3078.5 385.2 3080.9 385.1C3084.1 385.1 3086.5 385.8 3088.9 387.4C3090.9 388.7 3093.3 391.5 3094.3 393.7C3095.4 395.8 3096.4 398.9 3096.7 400.6C3097 402.2 3096.5 405.8 3095.6 408.6C3094.6 411.7 3092.7 414.8 3090.5 416.8C3087.2 419.8 3086.4 420.1 3080.2 420.1C3073.7 420 3073.3 419.9 3069.9 416.3C3068 414.2 3065.9 410.8 3065.2 408.6C3064.5 406.4 3064 403.5 3064 402.1C3064 400.7 3064.8 397.8 3065.8 395.6C3066.8 393.4 3068.6 390.5 3069.9 389.2C3071.1 387.8 3073.1 386.4 3074.3 386ZM3207.9 375.5C3204.4 377.1 3200.9 379.6 3198.2 382.7C3195.8 385.4 3193.4 389.4 3192.8 391.6C3192.1 393.8 3191.6 398.7 3191.6 402.6C3191.6 406.4 3192.1 411.4 3192.7 413.6C3193.3 415.8 3195.8 419.8 3198.1 422.4C3200.5 425.1 3204.7 428.4 3207.4 429.7C3211.3 431.7 3214.1 432.2 3219.9 432.3C3225.3 432.3 3228.7 431.8 3231.9 430.4C3234.4 429.3 3238.4 426.7 3240.8 424.5C3243.1 422.4 3246 418.6 3247.2 416.1C3248.8 412.7 3249.3 409.6 3249.4 403.6C3249.4 399.2 3248.8 393.7 3248.2 391.3C3247.4 388.7 3245.2 385.3 3242.2 382.2C3239.3 379.2 3235.4 376.5 3232.2 375.2C3228.6 373.8 3224.8 373.1 3220.2 373.1C3215.4 373.2 3211.9 373.8 3207.9 375.5ZM3215 385.8C3215.8 385.4 3218.7 385.3 3221.4 385.4C3225.2 385.6 3227.4 386.4 3230.2 388.6C3232.5 390.4 3234.5 393 3235.1 395.1C3235.7 397 3236 401.7 3235.7 405.6C3235.2 412.4 3235 412.7 3230.8 416.4C3226.8 419.9 3226 420.2 3220.4 420.1C3215.5 420 3213.9 419.6 3211 417.3C3209.1 415.8 3207 413.1 3206.3 411.3C3205.5 409.5 3204.9 405.7 3204.9 402.8C3204.9 399.9 3205.4 396.2 3205.9 394.6C3206.4 392.9 3208.3 390.4 3210.2 389C3212 387.6 3214.1 386.2 3215 385.8ZM3332.4 376C3329.1 377.5 3325.2 380.1 3323.7 381.7C3322.3 383.3 3320 386.8 3318.8 389.6C3317 393.5 3316.5 396.4 3316.5 402.6C3316.5 409 3317 411.7 3319 416C3320.3 419 3323.2 423 3325.4 424.9C3327.6 426.9 3331.5 429.3 3333.9 430.4C3337.2 431.8 3340.6 432.3 3345.9 432.3C3351.8 432.2 3354.5 431.7 3358.4 429.7C3361.2 428.4 3365.4 425.1 3367.7 422.4C3370.1 419.8 3372.7 415.6 3373.5 413.1C3374.3 410.6 3375 405.7 3375 402.1C3374.9 397 3374.3 394.3 3372.1 389.6C3370.5 386.3 3367.9 382.4 3366.3 380.9C3364.7 379.4 3361 377.1 3357.9 375.7C3353.7 373.7 3350.8 373.1 3345.4 373.1C3339.8 373.1 3337.3 373.6 3332.4 376ZM3337.7 387.4C3340.1 386 3343.1 385.1 3345.9 385.1C3349 385.1 3351.6 385.8 3353.9 387.4C3355.9 388.7 3358.5 391.7 3359.7 394.2C3360.9 396.6 3361.9 400.4 3361.9 402.6C3361.9 404.8 3361.1 408.4 3360.1 410.6C3359.1 412.8 3356.9 415.8 3355.1 417.3C3352.4 419.7 3351 420.1 3346.2 420.1C3342.2 420.1 3339.5 419.5 3337.2 418.1C3335.4 417 3333 414.2 3331.8 411.8C3330.4 409.2 3329.6 405.7 3329.6 402.6C3329.53 399.267 3330.23 396.267 3331.7 393.6C3333 391.4 3335.6 388.6 3337.7 387.4ZM3396 374.5C3394.2 375.2 3391.6 377.2 3390.3 379C3389 380.7 3387.4 383.8 3386.8 385.8C3385.9 388.6 3385.9 390.6 3386.7 393.6C3387.4 395.8 3389.3 399 3391.2 400.7C3393 402.4 3396.5 404.5 3398.9 405.4C3401.4 406.3 3404.7 407.9 3406.2 409C3408.2 410.5 3409 412 3409 414.3C3409 416.4 3408.2 418.3 3406.9 419.6C3405.2 421.2 3404.1 421.4 3401.1 420.9C3399 420.5 3396.6 419.1 3395.4 417.6C3394.3 416.2 3392.9 415.1 3392.2 415.1C3391.5 415.1 3389.6 416 3387.9 417.1C3386.3 418.2 3384.9 419.9 3384.9 420.8C3384.9 421.8 3386.3 424.1 3388.2 425.9C3390 427.8 3392.8 430 3394.4 430.8C3396.1 431.7 3399.8 432.4 3402.9 432.4C3406.5 432.3 3409.9 431.6 3412.7 430.2C3415 429 3417.9 426.6 3419 424.8C3420.1 423 3421.4 419.8 3422 417.6C3422.6 415.3 3422.8 411.9 3422.4 409.6C3421.9 407.4 3420.4 404.3 3419 402.8C3417.6 401.2 3412.8 398.1 3408.4 395.8C3402 392.4 3400.4 391.1 3400.2 389.1C3400 387.7 3400.5 386 3401.2 385.3C3401.9 384.6 3403.5 383.8 3404.7 383.6C3405.9 383.3 3408 383.5 3409.2 384.1C3410.4 384.6 3412.3 385.6 3413.3 386.3C3414.8 387.4 3415.4 387.2 3417.5 384.6C3418.8 382.9 3419.9 380.8 3419.9 379.8C3419.9 378.7 3418.1 377.2 3414.7 375.6C3411.2 374 3407.8 373.1 3404.4 373.1C3401.7 373.2 3397.9 373.8 3396 374.5ZM1063.5 374.8C1061.8 375.2 1061.5 376 1061.7 379.7C1061.9 384 1061.9 384.1 1058.9 384.1C1056.97 384.1 1055.8 384.667 1055.4 385.8C1055.1 386.8 1055.1 388.4 1055.4 389.3C1055.8 390.5 1056.97 391.1 1058.9 391.1H1061.9V417.1C1068.4 423.5 1069.6 424.1 1073.4 424.1C1075.9 424.1 1078.6 423.9 1079.4 423.6C1080.3 423.3 1080.9 421.9 1080.9 420.1C1080.9 417.3 1080.7 417.1 1076.9 417.1C1073.9 417.1 1072.7 416.6 1071.9 415.1C1071.4 414 1070.9 408.1 1070.9 402.1V391.1H1080.9V384.1H1070.9C1070.9 378.7 1070.7 376.4 1070.4 375.6C1070.2 374.8 1068.9 374.1 1067.7 374.2C1066.5 374.3 1064.5 374.5 1063.5 374.8ZM2651 374.7C2649.8 375.2 2649.6 379.5 2649.7 402.7C2649.9 426 2650.2 430.2 2651.4 430.6C2652.3 430.9 2654.5 431.1 2656.4 431.1C2658.3 431.1 2660.5 430.4 2661.4 429.6C2662.6 428.4 2662.9 426 2662.9 419.1V410.1C2674.9 409.7 2677.5 409.1 2679.5 407.6C2681 406.5 2683.2 404.3 2684.3 402.8C2685.9 400.7 2686.5 398.2 2686.8 393.3C2687 388.2 2686.6 385.7 2685.2 383.1C2683.9 380.8 2681.6 378.8 2678.4 377.1C2674.3 375.1 2671.7 374.6 2662.9 374.4C2657.2 374.2 2651.8 374.4 2651 374.7ZM2663.1 384L2666.8 384.6C2668.8 385 2671.3 386.3 2672.3 387.4C2673.7 389.1 2674 390.5 2673.6 393.6C2673.3 395.8 2672.6 397.9 2672.2 398.2C2671.8 398.6 2669.5 399.2 2662.9 400.1L2663 392L2663.1 384ZM2753 374.8C2751.8 375.2 2751.6 378.7 2751.8 396.2C2751.9 408 2752.5 418.3 2753 419.9C2753.6 421.4 2755.8 424.3 2757.8 426.4C2759.8 428.5 2763.1 430.7 2765 431.3C2766.9 431.9 2771.4 432.4 2775 432.3C2780.2 432.2 2782.4 431.7 2786 429.4C2789.1 427.5 2791.2 425.1 2793 421.6C2795.4 416.9 2795.5 415.7 2795.8 396.1C2796 380.2 2795.8 375.5 2794.8 374.9C2794.1 374.5 2791.8 374.2 2789.8 374.1C2787.8 374.1 2785.4 374.8 2784.6 375.6C2783.3 376.9 2783 380 2783 394.6C2783 408.2 2782.6 413 2781.4 415.9C2780.6 417.9 2779.3 420 2778.7 420.4C2778 420.8 2775.9 421.1 2774 421.2C2772.1 421.2 2769.4 420.4 2768.1 419.4C2766.5 418.2 2765.5 416.1 2764.9 412.6C2764.5 409.9 2764.1 400.3 2764.1 391.4C2764 377.9 2763.7 375 2762.5 374.6C2761.7 374.4 2759.5 374.2 2757.7 374.2C2756 374.3 2753.8 374.5 2753 374.8ZM2811.5 375.7C2810 377.1 2809.9 380.4 2809.9 402.7C2810 423.9 2810.2 428.4 2811.5 429.6C2812.7 430.8 2815.6 431.1 2824.7 431.1C2831.2 431.1 2837.1 430.8 2837.8 430.4C2838.6 429.9 2839 428 2838.8 425.1L2838.5 420.6L2823 420.1C2823 378.5 2822.8 375.1 2821.5 374.6C2820.7 374.4 2818.4 374.1 2816.6 374.1C2814.7 374.1 2812.4 374.8 2811.5 375.7ZM3149 374.8C3148 375.2 3147.6 376.7 3147.8 380.2L3148 385.1H3159C3159 424.4 3159.3 428.4 3160.5 429.6C3161.3 430.5 3163.6 431.1 3165.5 431.1C3167.4 431.1 3169.7 430.9 3170.5 430.6C3171.8 430.2 3172 426.7 3172 407.6V385.1C3181.5 385.1 3183.1 384.7 3183.5 383.6C3183.8 382.8 3184 381 3184 379.6C3184 378.3 3183.3 376.5 3182.5 375.6C3181.3 374.4 3178 374.1 3165.7 374.2C3157.4 374.3 3149.8 374.5 3149 374.8ZM3263 374.7C3261.8 375.2 3261.6 379.6 3261.8 402.7L3262 430.1C3265.5 431 3271 431.1 3276.5 431C3284.8 430.7 3287.4 430.2 3291.4 428.1C3294.2 426.8 3298.1 423.8 3300.2 421.6C3302.5 419.2 3304.6 415.6 3305.5 412.6C3306.3 409.9 3307 405.4 3307 402.6C3307 399.9 3306.3 395.4 3305.5 392.6C3304.5 389.2 3302.6 386.2 3299.3 382.8C3296.4 380 3292.7 377.4 3290 376.5C3287.4 375.6 3281 374.8 3275 374.5C3269.2 374.3 3263.8 374.4 3263 374.7ZM3275.3 384.9L3279.6 385.5C3282 385.8 3285.8 387.4 3288 388.9C3291.2 391.1 3292.1 392.5 3293.1 396.6C3293.7 399.4 3294 403.8 3293.6 406.4C3293.2 409.5 3292 412.2 3290.2 414.3C3288.7 416 3286.3 418 3284.7 418.8C3283.2 419.5 3280.4 420.1 3275 420.1L3275.1 402.5L3275.3 384.9ZM976.3 385.1C975.1 385.6 972.6 387.7 970.7 389.8C968.6 392.3 966.9 395.7 966.1 399.2C965 403.9 965 405.5 966.4 410.4C967.6 414.5 968.9 416.9 971.3 418.8C973.1 420.3 976 422.1 977.8 422.8C979.6 423.6 983.8 424.2 987.3 424.2C990.7 424.2 995.2 423.7 997.3 423.2C1000.6 422.3 1001 421.8 1000.8 419.4L1000.5 416.7C983.5 417.3 982.2 417 979.3 415C977.6 413.7 975.6 411.7 975.1 410.4C974.5 409.2 974 407.5 974 406.7C974 405.4 976.4 405.2 989 405.2H1004C1004 400.9 1003.5 397.9 1002.9 395.7C1002.3 393.5 1000.2 390 998.2 388C994.6 384.3 994.5 384.3 986.5 384.3C982.1 384.3 977.5 384.7 976.3 385.1ZM977.5 393.7C980.3 390.7 981.4 390.2 984.9 390.2C987.2 390.2 989.8 390.5 990.7 390.9C991.6 391.3 992.9 392.9 993.7 394.4C994.4 395.9 995 397.6 995 398.2C995 398.8 990.9 399.2 984.5 399.2C978.6 399.2 974.1 398.8 974.2 398.2C974.3 397.7 975.8 395.7 977.5 393.7ZM1012 403.7V423.2H1021C1021.5 396.9 1021.6 396.2 1024 393.8C1025.4 392.4 1027.7 391 1029 390.8C1030.4 390.6 1033 390.8 1034.8 391.3C1037.2 392 1038.3 393 1039.1 395.4C1039.6 397.2 1040.1 403.5 1040.1 409.4C1040 415.3 1040.3 420.8 1040.5 421.7C1040.83 422.7 1042.33 423.2 1045 423.2C1048.6 423.2 1049.1 422.9 1049.7 420.4C1050 418.9 1050.1 412.5 1049.9 406.2C1049.5 396.1 1049.2 394.2 1047 390.8C1045.6 388.6 1043.6 386.2 1042.5 385.5C1041.3 384.7 1037.7 384.2 1033.3 384.2C1027 384.2 1025.6 384.5 1023 386.7L1020 389.2C1020 384.4 1019.6 384.2 1016 384.2H1012V403.7ZM1088.9 385.2C1088.7 385.7 1088.6 394.5 1088.8 404.7L1089 423.2H1098C1098 403.7 1098.5 399.2 1099.5 396.9C1100.3 395.1 1102.1 393.1 1103.5 392.4C1104.9 391.7 1107.2 391.2 1108.5 391.2C1110.7 391.2 1111 390.7 1111 387.7C1111 384.2 1111 384.2 1106.8 384.1C1103.8 384.1 1101.8 384.8 1099.9 386.4L1097.2 388.7C1096.2 384.6 1095.3 384.2 1092.6 384.2C1090.7 384.2 1089 384.6 1088.9 385.2ZM1121.9 387.5C1119.5 389.3 1116.7 392.5 1115.6 394.7C1114.6 397 1113.8 400.8 1113.8 403.7C1113.8 406.4 1114.6 410.7 1115.7 413.1C1116.9 416.1 1119 418.5 1122 420.6C1126.2 423.4 1127.2 423.7 1134.7 423.7C1142.2 423.7 1143.2 423.4 1147.2 420.6C1149.6 418.9 1152.6 415.8 1153.8 413.6C1155.7 410.3 1156.1 408.5 1155.8 402.6C1155.6 396.7 1155.1 394.9 1152.8 391.8C1151.3 389.8 1148.6 387.3 1146.8 386.2C1144.2 384.6 1141.8 384.2 1134.9 384.2C1126.6 384.2 1126 384.3 1121.9 387.5ZM1129.5 391.1C1130.6 390.7 1133 390.3 1134.8 390.2C1136.6 390.2 1139.3 390.8 1140.8 391.5C1142.3 392.3 1144.2 394.4 1145 396.3C1145.9 398.1 1146.5 401.7 1146.5 404.2C1146.5 406.6 1145.7 409.9 1144.8 411.4C1143.8 412.9 1141.6 415.1 1139.8 416.2C1137.5 417.6 1135.6 418.1 1133.5 417.7C1131.9 417.3 1129.2 416.1 1127.5 414.8C1125.6 413.3 1124.1 411 1123.4 408.1C1122.8 405.7 1122.6 402.3 1123 400.7C1123.4 399 1124.5 396.4 1125.6 394.8C1126.6 393.3 1128.4 391.6 1129.5 391.1ZM1053 463.7V492.2H1062V435.2H1053V463.7ZM924 438L919.5 438.7L919 492.2H928V471.2C937.5 471.2 942.3 470.3 945.5 469.2C949.7 467.7 951.6 466.2 953.5 463.4C954.8 461.4 956.2 457.9 956.5 455.7C957 452.6 956.6 450.6 954.8 447.2C953.1 443.9 951.3 442.1 948 440.4C945 438.9 941.1 438.1 936 437.8C931.9 437.5 926.5 437.6 924 438ZM929.5 444.9C930.6 444.6 932.3 444.3 933.3 444.3C934.2 444.2 937.1 444.7 939.7 445.4C942.2 446.1 944.9 447.6 945.7 448.7C946.4 449.8 947 452.1 947 453.9C947 455.7 946.6 458.1 946 459.2C945.5 460.3 943.5 461.8 941.5 462.7C939.6 463.5 935.8 464.2 928 464.2L927.8 454.7C927.6 446 927.7 445.3 929.5 444.9ZM1141.1 439.9C1136.7 442.1 1135.3 443.5 1133.8 446.9C1132.6 449.8 1132.3 452.2 1132.7 454.4C1133.1 456.2 1134.6 459 1136 460.6C1137.4 462.1 1140.1 464.2 1142 465.2C1144 466.1 1147.3 467.5 1149.5 468.2C1151.7 468.8 1154.8 470.6 1156.3 472C1157.9 473.5 1159.1 475.8 1159.1 477.2C1159.1 478.5 1158.2 480.8 1157.2 482.2C1155.4 484.4 1154.5 484.7 1147.9 484.7C1143.8 484.7 1138.8 484.3 1136.8 483.9C1133.5 483.3 1132.9 483.4 1132.2 485.4C1131.7 486.7 1131.5 488.1 1131.6 488.7C1131.8 489.2 1133.7 490.2 1135.8 490.8C1137.8 491.5 1141.3 492.3 1143.5 492.6C1145.7 493 1149.8 492.8 1152.5 492.2C1155.3 491.5 1159.1 490.3 1160.9 489.4C1162.9 488.4 1165.1 486.1 1166.2 483.9C1167.2 481.9 1168 478.5 1168.1 476.4C1168.1 473.8 1167.2 471.4 1165.1 468.4C1162.7 465.1 1160.7 463.7 1156.3 462.1C1153.1 460.9 1149 459.2 1147 458.2C1145.1 457.2 1143.2 455.7 1142.8 454.8C1142.4 453.9 1142 452.2 1142 450.9C1142 449.7 1142.8 447.9 1143.8 446.9C1144.7 446 1147.1 444.9 1149 444.5C1151 444.2 1154.7 444.4 1157.3 445C1159.9 445.7 1162.7 445.9 1163.5 445.7C1164.4 445.4 1165 443.9 1165 442.2C1165 439.5 1164.6 439 1161.3 438.2C1159.2 437.6 1155.1 437.2 1152 437.2C1148 437.1 1145.1 437.9 1141.1 439.9ZM966.6 453.8C963.8 454.9 962.7 455.9 962.9 457.3C963 458.3 963.8 459.6 964.8 460.1C965.7 460.7 966.8 460.9 967 460.6C967.3 460.4 969.6 459.7 972 459.1C975 458.433 977.5 458.433 979.5 459.1C981.3 459.7 983.1 461.3 983.8 462.9C984.5 464.4 985 465.8 984.8 465.9C984.7 466 981.6 466.5 978 467.1C974.5 467.6 969.8 468.8 967.8 469.6C965.7 470.5 963.1 472.4 962 473.9C960.6 475.8 960 478.2 960 481.4C960 485.1 960.6 486.7 962.5 488.7C963.9 490 966.9 491.6 969.3 492.2C971.6 492.8 974.9 493 976.5 492.6C978.2 492.3 981 491.1 982.8 490.1C986 488.2 986 488.2 986.5 490.2C986.9 491.7 987.9 492.2 990.5 492.2H994C994 466.6 993.7 462.4 992.5 459.9C991.6 458.1 989.1 455.7 987 454.4C984 452.7 981.5 452.2 976.8 452.2C973.3 452.2 968.8 453 966.6 453.8ZM973.3 474.7C975.1 473.9 978.4 473.2 980.8 473.2C984.9 473.2 985 473.3 985.1 476.4C985.1 478.2 984.2 480.9 983.1 482.4C981.7 484.2 979.8 485.4 977.3 485.8C974.9 486.2 972.7 485.9 971.3 485C970.1 484.3 968.9 483 968.7 482.2C968.5 481.3 968.7 479.7 969.2 478.4C969.7 477.2 971.5 475.5 973.3 474.7ZM1078.2 453.3C1076.4 453.8 1074.5 454.7 1074 455.4C1073.4 456.2 1073.5 457.4 1074.3 458.6C1075.4 460.3 1076.1 460.4 1081 459.4C1084.1 458.8 1087.7 458.5 1089 458.9C1090.4 459.2 1092.3 460.2 1093.3 461.1C1094.3 461.9 1095.1 463.5 1095.1 464.4C1095 465.8 1093.9 466.3 1090.3 466.7C1087.7 467.1 1083.4 468 1080.8 468.7C1078.2 469.5 1074.9 471.4 1073.5 472.9C1072.2 474.4 1070.7 477.2 1070.4 479.2C1070 481.5 1070.4 483.8 1071.4 485.9C1072.5 488.1 1074.5 489.8 1077.8 491.3C1081.2 492.8 1083.5 493.2 1086 492.8C1088 492.4 1090.9 491.5 1092.5 490.6C1095.2 489.3 1095.6 489.3 1096.5 490.6C1097.1 491.5 1099.1 492.1 1101.3 492.1L1105 492.2C1104.5 464.8 1104.2 462.2 1102.5 459.2C1101.4 457.2 1098.9 454.9 1097 453.9C1094.8 452.8 1091.4 452.2 1087.5 452.3C1084.2 452.3 1080 452.8 1078.2 453.3ZM1084 474.7C1086 473.9 1089.6 473.2 1096.5 473.1L1095.8 477.4C1095.4 480.1 1094.3 482.3 1092.8 483.5C1091.6 484.5 1089.6 485.6 1088.5 485.8C1087.4 486.1 1085.3 486.1 1083.8 485.8C1082.2 485.4 1080.7 484.2 1080.2 482.9C1079.7 481.7 1079.6 479.6 1079.9 478.4C1080.3 477 1081.9 475.6 1084 474.7ZM1185.5 454.5C1182 456.2 1179.7 458.2 1177.8 461.3C1176.3 463.7 1174.8 467.5 1174.5 469.7C1174.2 471.9 1174.4 475.5 1174.9 477.7C1175.5 479.9 1177.5 483.5 1179.3 485.7C1181.8 488.6 1184.2 490.2 1188.6 491.6C1193.8 493.2 1195.2 493.3 1200 492.3C1203.1 491.7 1207.1 490.1 1209 488.8C1211 487.6 1213.4 484.8 1214.5 482.6C1215.8 479.9 1216.5 476.6 1216.5 472.2C1216.5 467.5 1215.9 464.5 1214.5 461.7C1213 458.7 1211 457 1207 454.9C1203 452.9 1200.1 452.1 1196 452.2C1192.33 452.2 1188.83 452.967 1185.5 454.5ZM1192.1 459.5C1194 458.9 1196.7 458.6 1198 458.9C1199.4 459.2 1201.4 460 1202.5 460.7C1203.6 461.4 1205.3 463.6 1206.3 465.6C1207.2 467.5 1208 470.5 1208 472.2C1208 473.8 1207.4 476.7 1206.5 478.7C1205.7 480.6 1203.6 483.1 1201.8 484.2C1200 485.3 1197.5 486.2 1196.3 486.2C1195 486.2 1192.5 485.5 1190.5 484.7C1188.1 483.6 1186.6 482 1185.5 479.4C1184.7 477.4 1184 473.9 1184 471.7C1184 469.2 1184.8 466.4 1186.3 464.2C1187.7 462.1 1190 460.2 1192.1 459.5ZM1314.6 453.8C1311.9 454.9 1310.7 455.9 1310.9 457.3C1311 458.3 1311.8 459.6 1312.8 460.1C1313.7 460.7 1314.8 460.9 1315 460.6C1315.3 460.4 1317.3 459.7 1319.5 459.2C1322 458.6 1324.9 458.6 1327 459.2C1329.4 459.8 1330.9 461 1331.8 462.9C1332.5 464.4 1333 465.8 1332.8 465.9C1332.7 466 1329.6 466.5 1326 467.1C1322.5 467.6 1317.8 468.8 1315.8 469.6C1313.7 470.5 1311.1 472.4 1310 473.9C1308.6 475.8 1308 478.2 1308 481.4C1308 485.1 1308.6 486.7 1310.5 488.7C1311.9 490 1314.9 491.7 1317.3 492.3C1320.4 493.1 1322.6 493.1 1325.5 492.2C1327.7 491.5 1330.5 490.4 1331.8 489.6C1333.8 488.3 1334 488.3 1334 490.2C1334 491.8 1334.7 492.2 1338 492.2C1340.5 492.2 1342.1 491.7 1342.1 490.9C1342.1 490.2 1342.1 483.8 1342 476.7C1342 466.6 1341.6 462.9 1340.2 460.2C1339.3 458.3 1337.3 455.9 1335.7 454.7C1333.6 453.2 1331.1 452.6 1325.7 452.4C1320.9 452.3 1317.2 452.7 1314.6 453.8ZM1321.3 474.7C1323.1 473.9 1326.4 473.2 1328.8 473.2C1332.9 473.2 1333 473.3 1333.1 476.4C1333.1 478.2 1332.2 480.9 1331.1 482.4C1329.7 484.2 1327.8 485.4 1325.3 485.8C1322.9 486.2 1320.7 485.9 1319.2 485C1318 484.3 1316.7 482.9 1316.5 481.9C1316.2 481 1316.5 479.3 1317 478.2C1317.6 477.1 1319.5 475.5 1321.3 474.7ZM1004.6 454.7C1004.3 455.5 1004 460.8 1004.1 466.4C1004.1 472.1 1004.5 478.5 1005 480.7C1005.5 482.9 1006.8 485.8 1007.8 487.2C1008.9 488.5 1011 490.3 1012.6 491.1C1014.2 492 1017.6 492.6 1020 492.6C1022.5 492.7 1026.4 491.8 1028.7 490.7C1032.7 488.8 1033 488.8 1033.5 490.4C1033.9 491.7 1035.1 492.2 1038 492.2H1042C1042 464.3 1041.8 455.5 1041.5 454.7C1041.17 453.7 1039.67 453.2 1037 453.2C1034.33 453.2 1032.83 453.7 1032.5 454.7C1032.3 455.5 1032.1 461.5 1032.1 467.9C1032.1 477.7 1031.8 480 1030.3 481.9C1029.3 483.2 1027 484.5 1025 484.8C1023.1 485.2 1020.3 485.1 1018.8 484.8C1016.8 484.3 1015.7 483.3 1015 480.9C1014.5 479.1 1014 472.8 1014 466.9C1014 461 1013.8 455.5 1013.5 454.7C1013.2 453.7 1011.7 453.2 1009.1 453.2C1006.6 453.2 1005 453.7 1004.6 454.7ZM1225.6 454.7C1225.3 455.5 1225 461.7 1225 468.4C1225.1 478.5 1225.4 481.4 1227 484.9C1228.2 487.3 1230.2 489.8 1231.8 490.5C1233.3 491.3 1235.9 492.2 1237.5 492.6C1239.2 493 1242.3 492.8 1244.5 492.3C1246.7 491.7 1249.8 490.4 1251.3 489.2L1254 487.2C1254.5 491.2 1255.2 491.7 1258 492C1260 492.1 1261.8 491.8 1262 491.3C1262.3 490.8 1262.5 482 1262.4 471.8L1262.2 453.2H1253C1253 474.2 1252.6 479 1251.7 480.9C1250.9 482.4 1249.2 484 1247.9 484.4C1246.6 484.8 1244.2 485.2 1242.5 485.2C1240.9 485.2 1238.7 484.6 1237.7 483.9C1236.8 483.2 1235.5 480.9 1235 478.7C1234.5 476.5 1234.1 469.8 1234.1 463.9L1234 453.2C1227.6 453.2 1226 453.7 1225.6 454.7ZM1270.6 454.7C1270.3 455.5 1270 456.4 1270 456.7C1270 456.9 1270.7 457.8 1271.5 458.7C1272.7 459.8 1275.4 460.2 1282.8 460.2H1292.5C1288.7 463.8 1285.7 467.1 1283.5 469.7C1281.3 472.4 1278.9 475.3 1278 476.1C1277.2 477 1274.9 479.7 1272.8 482.2C1270.6 484.9 1269.1 487.7 1269.1 489.4L1269 492.2H1304V485.2L1281.3 484.7C1300.6 462.2 1304 457.4 1304 455.7V453.2C1274 453.2 1271.1 453.4 1270.6 454.7Z" fill="white"/>
<path fill-rule="evenodd" clip-rule="evenodd" d="M3656 72H3818V113H3701V178H3808V219H3701V321H3656V72ZM4041 97H4083V145H4132V180H4083V222.2C4083 257 4083.2 265.4 4084.5 269.7C4085.4 273.1 4087.3 276.3 4089.5 278.5C4091.7 280.7 4094.9 282.6 4098.2 283.5C4101.9 284.6 4108.1 285 4133 285V321L4111.7 320.6C4096.4 320.3 4088.7 319.8 4084 318.6C4080.4 317.7 4074.1 315.3 4070 313.2C4065.1 310.8 4060.4 307.5 4056.5 303.5C4052.9 299.9 4049.2 294.9 4047.3 291C4045.5 287.4 4043.4 281.6 4042.6 278C4041.3 272.7 4041 263.4 4041 180H4014V145H4041V97ZM3920.5 141.5C3926.5 141.8 3934.9 142.6 3939 143.4C3943.1 144.2 3949.2 145.8 3952.5 147C3955.8 148.1 3961 150.5 3964 152.2C3967 154 3972.2 158.1 3975.5 161.4C3978.8 164.8 3982.9 170.2 3984.7 173.5C3986.5 176.8 3988.9 183.1 3990.2 187.5C3992.4 195.3 3992.4 196.7 3993 321H3952V311.5C3952 306.3 3951.8 302 3951.5 302C3951.2 302 3944.6 305.3 3936.7 309.4C3928.9 313.5 3918.9 318.1 3914.5 319.6C3907.8 321.8 3904.2 322.4 3893 322.8C3884.1 323.1 3877.4 322.8 3873.5 322C3870.2 321.3 3864.3 319.1 3860.5 317.1C3856.5 315.1 3851.3 311.3 3848.5 308.4C3845.7 305.6 3842.3 300.9 3840.8 297.9C3839.3 294.9 3837.4 289.6 3836.6 286C3835.7 282.4 3835 276.6 3835 273C3835 269.4 3835.7 263.3 3836.6 259.5C3837.4 255.6 3839.5 249.8 3841.3 246.6C3843.1 243.4 3847 238.4 3850 235.6C3853.1 232.8 3858.3 229.1 3861.5 227.3C3864.8 225.5 3871.1 223.1 3875.5 221.9C3882.9 219.8 3886 219.6 3952 219L3951.7 208.7C3951.4 200.5 3950.9 197.5 3948.9 193.1C3947.4 189.8 3944.7 186.2 3942 183.8C3939.5 181.7 3935.5 179.2 3933 178.4C3930.5 177.5 3924.7 176.6 3920 176.3C3914.1 175.9 3909.2 176.2 3904 177.3C3899.2 178.4 3894.7 180.1 3891.5 182.2C3888.8 184 3885.3 187.5 3883.8 190C3882.2 192.6 3880.6 197.1 3879 207H3839V201.7C3839 198.9 3839.6 193.6 3840.4 190C3841.1 186.4 3843.2 180.3 3845 176.5C3847.4 171.5 3850.4 167.4 3855.4 162.4C3861.1 156.7 3864.4 154.4 3872 150.7C3877.2 148.2 3884.4 145.5 3888 144.6C3891.6 143.7 3897.9 142.6 3902 142.1C3906.1 141.5 3914.4 141.3 3920.5 141.5ZM3885 253.7C3883.1 254.9 3880.4 257.8 3879.1 260.2C3877.2 263.5 3876.6 266 3876.6 270.5C3876.7 274.6 3877.3 277.8 3878.8 280.7C3880.1 283.2 3882.6 285.9 3884.7 287.2C3888 289.2 3889.8 289.5 3898.5 289.4C3906.7 289.4 3909.7 288.9 3915 286.8C3918.6 285.5 3928.4 280.6 3936.7 276.2L3952 268V249C3904 249.1 3894.5 249.5 3892 250.3C3890.1 251 3886.9 252.5 3885 253.7ZM4234.5 142.5C4244.4 142.7 4250.8 143.5 4256.5 145C4260.9 146.1 4267.6 148.6 4271.5 150.5C4275.3 152.4 4281.1 156 4284.2 158.5C4287.4 161 4292.1 165.8 4294.6 169.2C4297.2 172.7 4300.5 178.2 4302 181.5C4303.5 184.8 4305.5 190.4 4306.5 194C4307.8 198.8 4308.4 206.6 4309.5 247H4192V252.7C4192 255.9 4192.6 261 4193.3 264C4194 267 4195.8 271.6 4197.3 274.2C4198.8 276.9 4202.1 280.5 4204.7 282.4C4207.4 284.3 4211.7 286.7 4214.5 287.7C4218.4 289.1 4222.3 289.5 4232.5 289.5C4243.7 289.4 4246.3 289.1 4251.5 287.1C4255.5 285.5 4259.1 283.1 4262.2 279.9C4266.2 275.8 4267.2 274 4269.5 263H4308V268.7C4308 271.9 4307.3 277.2 4306.4 280.5C4305.6 283.8 4303.7 288.7 4302.2 291.5C4300.7 294.2 4296.6 299.4 4293 303C4288.5 307.5 4283.9 310.9 4278 313.9C4273.3 316.3 4265.2 319.4 4260 320.8C4251.4 323.1 4248.7 323.4 4231.5 323.4C4215.1 323.4 4211.4 323.1 4204.5 321.2C4200.1 320 4192.9 317.2 4188.5 315.1C4184.1 312.9 4178.2 309.2 4175.3 306.8C4172.4 304.4 4168.2 300 4165.9 297C4163.6 294 4160.5 288.8 4158.9 285.5C4157.4 282.2 4155.4 275.9 4154.5 271.5C4153.1 264.8 4152.9 258.4 4153.3 231.5C4153.6 205.3 4153.9 198.4 4155.3 193.5C4156.3 190.2 4158.6 184.3 4160.5 180.5C4162.4 176.6 4165.8 171.2 4168.2 168.3C4170.6 165.5 4174.7 161.3 4177.5 159.1C4180.2 156.8 4185.4 153.5 4189 151.6C4192.6 149.8 4198 147.4 4201 146.5C4204 145.5 4209.6 144.1 4213.5 143.4C4218.1 142.5 4225.4 142.2 4234.5 142.5ZM4211.5 180.4C4208.7 181.8 4204.4 185 4201.9 187.7C4199.2 190.6 4196.5 194.8 4195.2 198.2C4194 201.4 4192.7 207.4 4192.2 211.5L4191.5 219H4270C4270 213.2 4269.5 208.8 4268.9 205.5C4268.3 202.2 4266.4 196.8 4264.7 193.6C4262.7 189.9 4259.8 186.4 4257 184.3C4254.5 182.4 4250.2 180.1 4247.5 179C4244.7 178 4239.1 176.9 4235 176.6C4230.9 176.4 4225 176.5 4222 177.1C4219 177.6 4214.2 179.1 4211.5 180.4ZM4422 142.5C4431.8 142.8 4439.1 143.5 4444.5 144.9C4448.9 145.9 4455.2 148 4458.5 149.5C4461.8 150.9 4467.3 154.1 4470.7 156.6C4474.2 159 4478.9 163.4 4481.2 166.2C4483.4 169.1 4486.6 174.2 4488.2 177.5C4489.7 180.8 4491.7 186 4492.5 189C4493.3 192 4494.4 198.7 4495.5 213H4455.5L4454.8 206.8C4454.3 203.3 4452.7 197.8 4451.1 194.5C4449.3 190.8 4446.7 187.3 4444.3 185.5C4442.2 183.9 4438.2 181.7 4435.5 180.6C4431.5 179 4428.1 178.6 4419 178.5C4408.5 178.5 4407 178.8 4401.5 181.2C4398.2 182.8 4394.1 185.5 4392.3 187.2C4390.5 189 4387.8 193.2 4383.5 202.5V232.5C4383.5 259.5 4383.7 263 4385.4 268C4386.7 271.8 4388.9 275.1 4392.4 278.6C4396.7 282.9 4398.7 284.1 4405 286C4411.3 287.9 4414 288.2 4422 287.8C4429.7 287.4 4432.7 286.8 4437.9 284.4C4442 282.6 4445.6 280 4447.7 277.5C4449.5 275.3 4451.7 271.5 4452.6 269C4453.4 266.5 4454.4 261.9 4455.5 253H4495.5L4494.8 262.2C4494.4 267.3 4493.4 274.2 4492.5 277.5C4491.6 280.8 4489.5 286.4 4487.7 290C4485.7 294.2 4482 299.1 4477.5 303.6C4472.2 309 4468.5 311.7 4462 314.9C4457.3 317.1 4449.9 320 4445.5 321.2C4438.6 323.1 4434.9 323.4 4419 323.4C4403 323.4 4399.4 323.1 4392.5 321.1C4388.1 319.9 4381.3 317.4 4377.5 315.5C4373.6 313.6 4368.2 310.2 4365.3 307.8C4362.4 305.4 4358.2 301 4355.9 298C4353.6 295 4350.6 290.2 4349.3 287.5C4347.9 284.7 4345.9 279.1 4344.9 275C4343.2 268.4 4343 263.5 4343 233.5C4343 202.7 4343.2 198.7 4345 191.5C4346.1 187.1 4348.5 180.6 4350.3 177C4352.4 172.8 4356.1 167.9 4361 162.9C4366.1 157.8 4370.8 154.2 4375.5 151.8C4379.3 149.9 4385 147.4 4388 146.5C4391 145.5 4396.6 144.1 4400.5 143.4C4405.1 142.5 4412.4 142.2 4422 142.5ZM4141.2 361.8L4160.3 362.2C4174 362.4 4180.2 362.9 4182 363.9C4183.4 364.6 4186 366.6 4187.8 368.4C4190 370.4 4191.6 373.4 4192.7 377C4193.7 380.7 4194 384 4193.5 387C4193.1 389.5 4192.2 392.6 4191.5 394C4190.8 395.4 4188.7 397.9 4186.9 399.6C4185 401.2 4182.9 402.8 4182.1 403.1C4181.1 403.4 4182.5 407 4187.4 416.7C4191 424 4194 430.2 4194 430.5C4194 430.8 4190.7 431 4179.5 431.1L4167.5 405.9L4154 406V431H4141L4141.2 361.8ZM4154 394C4173.1 394 4174.3 393.8 4176.8 391.6C4178.3 390.3 4179.8 388 4180.1 386.4C4180.5 384.8 4180.4 382 4179.9 380.2C4179.4 378.4 4178 376.3 4176.8 375.5C4175.1 374.4 4171.7 374 4164.3 374H4154V394ZM4313 362C4314.9 362 4317.1 362.5 4317.8 363.2C4318.5 363.9 4319 366.3 4319 368.5C4319 370.7 4318.5 373 4317.8 373.7C4317.2 374.4 4314.8 375 4312.6 375C4310.3 375 4307.9 374.4 4307.2 373.8C4306.5 373.1 4305.9 370.6 4305.8 368.3C4305.7 365.1 4306.1 363.8 4307.6 363.1C4308.6 362.5 4311.1 362 4313 362ZM4383 369H4396V382H4409V393H4396V405.5C4396 417.3 4396.1 418.1 4398.3 419.5C4399.5 420.3 4402.4 421 4409 421V431H4402C4397 431 4393.9 430.4 4391 429C4388.2 427.6 4386.4 425.7 4385 422.7C4383.4 419.2 4383.1 416.3 4383 393H4376V382H4383V369ZM4224 381.6C4227 381.8 4231.4 382.9 4233.8 384C4236.6 385.4 4238.8 387.4 4240.5 390.2C4242.3 393.3 4243.2 396.8 4244.5 411H4227.8C4211.5 411 4211 411 4211.5 413C4211.8 414.1 4212.2 415.9 4212.5 417C4212.8 418.1 4214.4 419.7 4216 420.5C4217.7 421.3 4220.4 422 4222 422C4223.7 422 4226.1 421.5 4227.5 421C4228.9 420.4 4230.6 418.8 4231.3 417.5C4232.4 415.2 4233.1 414.9 4243 415V418.7C4242.9 421.7 4242.2 423.2 4239.2 426.1C4237 428.3 4233.7 430.2 4231 431C4228.5 431.7 4223.4 432 4219.5 431.8C4215.7 431.5 4211.1 430.6 4209.3 429.6C4207.5 428.7 4204.8 426.3 4203.3 424.3C4200.7 420.9 4200.5 419.8 4200.2 409.6C4200 403.5 4200.3 396.9 4200.9 395C4201.4 393.1 4202.8 390.2 4204 388.7C4205.1 387.2 4207.5 385.2 4209.3 384.3C4211.1 383.4 4213.9 382.3 4215.5 381.9C4217.2 381.4 4221 381.3 4224 381.6ZM4212 398.7L4211 402C4231.3 402 4232 401.9 4232 400C4232 398.9 4230.9 396.6 4229.5 395C4227.4 392.4 4226.3 392 4222.1 392C4219 392 4216.5 392.6 4215.1 393.7C4213.9 394.7 4212.5 396.9 4212 398.7ZM4349.3 381.1C4350.8 381 4354.4 381.5 4357.3 382.2C4360.6 382.9 4363.7 384.5 4365.8 386.4C4367.7 388.1 4369.6 391.1 4370.1 393C4370.6 394.9 4371 397 4371 397.7C4371 398.6 4369.1 399 4365 399C4359.2 399 4359 398.9 4358 396C4357.3 393.7 4356.1 392.7 4353.3 391.8C4350.3 390.9 4348.7 391 4345.5 392.1C4342.5 393.2 4341.4 394.2 4341.2 396C4341 397.4 4341.5 399 4342.2 399.7C4342.9 400.4 4347.8 401.6 4353 402.5C4358.2 403.4 4363.9 404.9 4365.5 405.8C4367.4 406.9 4369 409.1 4369.9 411.5C4370.83 414.167 4371.03 416.833 4370.5 419.5C4370.1 421.9 4368.6 424.7 4366.7 426.6C4364.9 428.3 4361.5 430.3 4359 431C4356.5 431.7 4351.2 432 4347 431.8C4341.9 431.5 4338.4 430.7 4336 429.4C4334.1 428.3 4331.5 425.8 4330.2 423.9C4329 422 4328 419.2 4328 417.7C4328 415 4328.1 415 4334 415C4338.7 415 4340 415.3 4340 416.5C4340 417.3 4341.3 418.9 4342.8 420C4344.6 421.4 4347 422.067 4350 422C4352.5 422 4355.5 421.3 4356.8 420.5C4358 419.7 4359 418.1 4359 417C4359 415.9 4358 414.5 4356.8 413.9C4355.5 413.2 4350.9 412.2 4346.5 411.5C4342.1 410.8 4337.1 409.5 4335.3 408.6C4333.5 407.7 4331.3 406 4330.5 404.7C4329.7 403.5 4329 400.3 4329 397.7C4329 395.1 4329.5 391.9 4330 390.5C4330.6 389.1 4332.5 386.9 4334.3 385.5C4336.1 384.1 4339.5 382.6 4342 382.1C4344.5 381.6 4347.8 381.2 4349.3 381.1ZM4472.8 381.1C4474 381 4477.2 381.4 4479.8 382C4482.5 382.6 4486.1 384.4 4488.4 386.2C4490.5 388 4493 390.8 4493.9 392.5C4495.1 394.7 4495.5 398.3 4495.5 407C4495.5 415.8 4495.1 419.2 4493.9 421.5C4492.9 423.1 4491.1 425.5 4489.9 426.7C4488.6 427.9 4485.8 429.6 4483.8 430.4C4481.7 431.3 4477 432 4473.3 432C4467.8 432 4465.5 431.5 4461.1 429.3C4456.9 427.1 4455.1 425.4 4453.3 422C4451.3 418.1 4451 416.1 4451 407C4451 398.1 4451.4 395.8 4453.3 392.1C4454.5 389.6 4456.9 386.7 4458.5 385.6C4460.2 384.5 4463.5 383 4466 382.3C4468.5 381.7 4471.5 381.1 4472.8 381.1ZM4464 397C4463.5 398.1 4463 402.6 4463 407C4463 413 4463.5 415.6 4464.8 417.5C4465.7 418.9 4468.1 420.6 4470 421.1C4471.9 421.7 4474.6 421.9 4476 421.6C4477.4 421.3 4479.6 419.8 4481 418.4C4483.2 416.1 4483.5 414.8 4483.8 407.4L4484 399C4477.9 392.9 4476.2 392 4473.8 392C4472 392 4469.3 392.7 4467.8 393.5C4466.3 394.3 4464.6 395.9 4464 397ZM4300 382V387C4300 391.8 4299.9 392 4297.3 392C4294.5 392 4294.5 392.1 4294.8 397.7C4295.1 402.2 4294.7 404.2 4293.1 406.7C4291.9 408.5 4289.6 410.8 4287.8 411.7C4285.4 412.9 4281.3 413.5 4273 413.8C4265.9 414.1 4261.3 414.6 4260.8 415.3C4260.5 416 4260.4 417 4260.6 417.7C4260.9 418.6 4264.4 419 4273.8 419C4280.8 419 4288.1 419.5 4290 420.1C4291.9 420.7 4294.5 422.2 4295.8 423.4C4297.1 424.5 4298.5 427.2 4299.1 429.2C4299.7 431.7 4299.7 434.4 4299 437C4298.3 439.7 4296.8 441.9 4294.3 444C4292 445.8 4288.3 447.4 4285 448.1C4282 448.7 4276.8 449 4273.5 448.7C4270.2 448.5 4265.6 447.3 4263.3 446.1C4260.2 444.6 4258.5 442.8 4257 439.7C4255.9 437.4 4255 433.6 4255 431.2C4255 428.2 4254.3 426.1 4252.4 423.7C4250.1 420.9 4249.8 419.8 4250.3 415.5C4250.6 412.1 4251.5 409.9 4252.9 408.7C4254.7 407.2 4254.9 406.5 4254 403.7C4253.4 401.9 4253 399.2 4253 397.7C4253 396.2 4253.7 393.3 4254.5 391.2C4255.3 389.2 4257.2 386.6 4258.7 385.6C4260.3 384.5 4262.6 383.3 4264 382.9C4265.4 382.5 4274.1 382.1 4300 382ZM4264.9 398.3C4264.9 400.1 4265.5 402 4266.2 402.7C4266.9 403.4 4269.3 404.3 4271.5 404.6C4273.7 405 4276.8 405 4278.3 404.6C4279.8 404.3 4281.7 403.3 4282.5 402.5C4283.3 401.7 4284 399.7 4284 398.2C4284.1 396.7 4283.3 394.7 4282.3 393.8C4281 392.5 4278.8 392 4274.3 392C4270.1 392 4267.7 392.5 4266.5 393.6C4265.6 394.4 4264.9 396.6 4264.9 398.3ZM4266 430.7C4266 432.2 4266.7 434.5 4267.5 435.7C4268.3 437 4270.7 438.4 4272.8 438.9C4275 439.5 4278.3 439.5 4281 439C4283.5 438.5 4286.1 437.3 4286.8 436.3C4287.5 435.3 4288 433.6 4287.8 432.5C4287.6 431.4 4286.4 430 4285 429.3C4283.6 428.6 4278.9 428 4274.3 428H4266V430.7ZM4306 381.9H4319V430.9H4306V381.9ZM4417 381.9H4423C4428.8 381.9 4429 382 4429 386.9L4433.3 384.5C4436 382.9 4439.1 382 4446 381.9V393.9H4442.3C4439.8 393.9 4436.9 394.9 4429 399.9V430.9H4417V381.9Z" fill="white"/>
</svg>
